%TF.GenerationSoftware,KiCad,Pcbnew,8.0.0*%
%TF.CreationDate,2024-03-13T21:01:22-04:00*%
%TF.ProjectId,pico-ethernet,7069636f-2d65-4746-9865-726e65742e6b,rev?*%
%TF.SameCoordinates,Original*%
%TF.FileFunction,Copper,L2,Bot*%
%TF.FilePolarity,Positive*%
%FSLAX46Y46*%
G04 Gerber Fmt 4.6, Leading zero omitted, Abs format (unit mm)*
G04 Created by KiCad (PCBNEW 8.0.0) date 2024-03-13 21:01:22*
%MOMM*%
%LPD*%
G01*
G04 APERTURE LIST*
G04 Aperture macros list*
%AMRoundRect*
0 Rectangle with rounded corners*
0 $1 Rounding radius*
0 $2 $3 $4 $5 $6 $7 $8 $9 X,Y pos of 4 corners*
0 Add a 4 corners polygon primitive as box body*
4,1,4,$2,$3,$4,$5,$6,$7,$8,$9,$2,$3,0*
0 Add four circle primitives for the rounded corners*
1,1,$1+$1,$2,$3*
1,1,$1+$1,$4,$5*
1,1,$1+$1,$6,$7*
1,1,$1+$1,$8,$9*
0 Add four rect primitives between the rounded corners*
20,1,$1+$1,$2,$3,$4,$5,0*
20,1,$1+$1,$4,$5,$6,$7,0*
20,1,$1+$1,$6,$7,$8,$9,0*
20,1,$1+$1,$8,$9,$2,$3,0*%
G04 Aperture macros list end*
%TA.AperFunction,ComponentPad*%
%ADD10R,2.200000X2.200000*%
%TD*%
%TA.AperFunction,ComponentPad*%
%ADD11C,2.200000*%
%TD*%
%TA.AperFunction,ComponentPad*%
%ADD12R,1.478000X1.478000*%
%TD*%
%TA.AperFunction,ComponentPad*%
%ADD13C,1.478000*%
%TD*%
%TA.AperFunction,ComponentPad*%
%ADD14C,1.650000*%
%TD*%
%TA.AperFunction,ComponentPad*%
%ADD15C,2.475000*%
%TD*%
%TA.AperFunction,ComponentPad*%
%ADD16C,1.498600*%
%TD*%
%TA.AperFunction,SMDPad,CuDef*%
%ADD17RoundRect,0.225000X-0.225000X-0.250000X0.225000X-0.250000X0.225000X0.250000X-0.225000X0.250000X0*%
%TD*%
%TA.AperFunction,ComponentPad*%
%ADD18R,1.700000X1.700000*%
%TD*%
%TA.AperFunction,ComponentPad*%
%ADD19O,1.700000X1.700000*%
%TD*%
%TA.AperFunction,SMDPad,CuDef*%
%ADD20RoundRect,0.225000X0.225000X0.250000X-0.225000X0.250000X-0.225000X-0.250000X0.225000X-0.250000X0*%
%TD*%
%TA.AperFunction,SMDPad,CuDef*%
%ADD21RoundRect,0.200000X0.275000X-0.200000X0.275000X0.200000X-0.275000X0.200000X-0.275000X-0.200000X0*%
%TD*%
%TA.AperFunction,SMDPad,CuDef*%
%ADD22RoundRect,0.225000X0.250000X-0.225000X0.250000X0.225000X-0.250000X0.225000X-0.250000X-0.225000X0*%
%TD*%
%TA.AperFunction,SMDPad,CuDef*%
%ADD23RoundRect,0.200000X-0.275000X0.200000X-0.275000X-0.200000X0.275000X-0.200000X0.275000X0.200000X0*%
%TD*%
%TA.AperFunction,SMDPad,CuDef*%
%ADD24RoundRect,0.225000X-0.250000X0.225000X-0.250000X-0.225000X0.250000X-0.225000X0.250000X0.225000X0*%
%TD*%
%TA.AperFunction,SMDPad,CuDef*%
%ADD25RoundRect,0.225000X-0.375000X0.225000X-0.375000X-0.225000X0.375000X-0.225000X0.375000X0.225000X0*%
%TD*%
%TA.AperFunction,SMDPad,CuDef*%
%ADD26R,2.500000X1.600000*%
%TD*%
%TA.AperFunction,SMDPad,CuDef*%
%ADD27R,1.750000X0.450000*%
%TD*%
%TA.AperFunction,SMDPad,CuDef*%
%ADD28R,1.600000X3.200000*%
%TD*%
%TA.AperFunction,ViaPad*%
%ADD29C,0.800000*%
%TD*%
%TA.AperFunction,Conductor*%
%ADD30C,0.250000*%
%TD*%
%TA.AperFunction,Conductor*%
%ADD31C,0.350000*%
%TD*%
G04 APERTURE END LIST*
D10*
%TO.P,J5,1,Pin_1*%
%TO.N,GND*%
X142195000Y-116185000D03*
D11*
%TO.P,J5,2,Pin_2*%
%TO.N,Net-(J2-Pin_4)*%
X142195000Y-118725000D03*
%TO.P,J5,3,Pin_3*%
%TO.N,Net-(J2-Pin_2)*%
X142195000Y-121265000D03*
%TO.P,J5,4,Pin_4*%
%TO.N,Net-(J2-Pin_1)*%
X142195000Y-123805000D03*
%TD*%
D12*
%TO.P,J4,1,TD+*%
%TO.N,Net-(J4-TD+)*%
X180850000Y-116205000D03*
D13*
%TO.P,J4,2,CT*%
%TO.N,Net-(J4-CT)*%
X178310000Y-117475000D03*
%TO.P,J4,3,TD-*%
%TO.N,Net-(J4-TD-)*%
X180850000Y-118745000D03*
%TO.P,J4,4,RD+*%
%TO.N,Net-(J4-RD+)*%
X178310000Y-120015000D03*
%TO.P,J4,5,RD-*%
%TO.N,Net-(J4-RD-)*%
X180850000Y-121285000D03*
%TO.P,J4,8,VC+_P8*%
%TO.N,unconnected-(J4-VC+_P8-Pad8)*%
X178310000Y-125095000D03*
%TO.P,J4,9,VC-_P9*%
%TO.N,unconnected-(J4-VC-_P9-Pad9)*%
X180850000Y-126365000D03*
%TO.P,J4,10,VC+_P10*%
%TO.N,+24V*%
X178310000Y-127635000D03*
%TO.P,J4,11,VC-_P11*%
%TO.N,GND*%
X175770000Y-126365000D03*
D14*
%TO.P,J4,A1*%
%TO.N,Net-(J4-PadA1)*%
X173480000Y-127385000D03*
%TO.P,J4,A2*%
%TO.N,Net-(J4-PadA2)*%
X173480000Y-118995000D03*
%TO.P,J4,C1*%
%TO.N,GND*%
X173480000Y-124845000D03*
%TO.P,J4,C2*%
X173480000Y-116455000D03*
D15*
%TO.P,J4,S1,SHIELD*%
X184150000Y-129665000D03*
%TO.P,J4,S2,SHIELD__1*%
X184150000Y-114175000D03*
%TD*%
D16*
%TO.P,J3,1,Vin*%
%TO.N,+24V*%
X161250000Y-122250000D03*
%TO.P,J3,2,Ground*%
%TO.N,GND*%
X161250000Y-119710000D03*
%TO.P,J3,3,+Vout*%
%TO.N,Net-(D1-A)*%
X161250000Y-117170000D03*
%TD*%
D17*
%TO.P,C10,1*%
%TO.N,+3.3V*%
X156975000Y-123356000D03*
%TO.P,C10,2*%
%TO.N,GND*%
X158525000Y-123356000D03*
%TD*%
D18*
%TO.P,J2,1,Pin_1*%
%TO.N,Net-(J2-Pin_1)*%
X144740000Y-128905000D03*
D19*
%TO.P,J2,2,Pin_2*%
%TO.N,Net-(J2-Pin_2)*%
X147280000Y-128905000D03*
%TO.P,J2,3,Pin_3*%
%TO.N,GND*%
X149820000Y-128905000D03*
%TO.P,J2,4,Pin_4*%
%TO.N,Net-(J2-Pin_4)*%
X152360000Y-128905000D03*
%TO.P,J2,5,Pin_5*%
%TO.N,Net-(J2-Pin_5)*%
X154900000Y-128905000D03*
%TD*%
D20*
%TO.P,C5,1*%
%TO.N,GND*%
X158525000Y-120056000D03*
%TO.P,C5,2*%
%TO.N,Net-(U1-OSC1)*%
X156975000Y-120056000D03*
%TD*%
D21*
%TO.P,R2,1*%
%TO.N,Net-(J4-RD-)*%
X190310000Y-123253000D03*
%TO.P,R2,2*%
%TO.N,Net-(C7-Pad1)*%
X190310000Y-121603000D03*
%TD*%
D22*
%TO.P,C7,1*%
%TO.N,Net-(C7-Pad1)*%
X191910000Y-119956000D03*
%TO.P,C7,2*%
%TO.N,GND*%
X191910000Y-118406000D03*
%TD*%
D23*
%TO.P,R5,1*%
%TO.N,Net-(J4-TD-)*%
X183388000Y-121603000D03*
%TO.P,R5,2*%
%TO.N,Net-(J4-CT)*%
X183388000Y-123253000D03*
%TD*%
D24*
%TO.P,C9,1*%
%TO.N,Net-(U1-VCAP)*%
X141710000Y-126981000D03*
%TO.P,C9,2*%
%TO.N,GND*%
X141710000Y-128531000D03*
%TD*%
D25*
%TO.P,D1,1,K*%
%TO.N,+5V*%
X170500000Y-114350000D03*
%TO.P,D1,2,A*%
%TO.N,Net-(D1-A)*%
X170500000Y-117650000D03*
%TD*%
D20*
%TO.P,C12,1*%
%TO.N,GND*%
X158525000Y-114050000D03*
%TO.P,C12,2*%
%TO.N,+3.3V*%
X156975000Y-114050000D03*
%TD*%
D17*
%TO.P,C4,1*%
%TO.N,+3.3V*%
X156960000Y-116756000D03*
%TO.P,C4,2*%
%TO.N,GND*%
X158510000Y-116756000D03*
%TD*%
D26*
%TO.P,C1,1*%
%TO.N,Net-(D1-A)*%
X164637500Y-119500000D03*
%TO.P,C1,2*%
%TO.N,GND*%
X168137500Y-119500000D03*
%TD*%
D17*
%TO.P,C3,1*%
%TO.N,+3.3V*%
X156960000Y-126156000D03*
%TO.P,C3,2*%
%TO.N,GND*%
X158510000Y-126156000D03*
%TD*%
D21*
%TO.P,R6,1*%
%TO.N,Net-(U1-LEDB)*%
X171000000Y-124825000D03*
%TO.P,R6,2*%
%TO.N,Net-(J4-PadA2)*%
X171000000Y-123175000D03*
%TD*%
D18*
%TO.P,J1,1,Pin_1*%
%TO.N,unconnected-(J1-Pin_1-Pad1)*%
X193040000Y-111125000D03*
D19*
%TO.P,J1,2,Pin_2*%
%TO.N,+5V*%
X190500000Y-111125000D03*
%TO.P,J1,3,Pin_3*%
%TO.N,GND*%
X187960000Y-111125000D03*
%TO.P,J1,4,Pin_4*%
%TO.N,unconnected-(J1-Pin_4-Pad4)*%
X185420000Y-111125000D03*
%TO.P,J1,5,Pin_5*%
%TO.N,+3.3V*%
X182880000Y-111125000D03*
%TO.P,J1,6,Pin_6*%
%TO.N,unconnected-(J1-Pin_6-Pad6)*%
X180340000Y-111125000D03*
%TO.P,J1,7,Pin_7*%
%TO.N,unconnected-(J1-Pin_7-Pad7)*%
X177800000Y-111125000D03*
%TO.P,J1,8,Pin_8*%
%TO.N,unconnected-(J1-Pin_8-Pad8)*%
X175260000Y-111125000D03*
%TO.P,J1,9,Pin_9*%
%TO.N,unconnected-(J1-Pin_9-Pad9)*%
X172720000Y-111125000D03*
%TO.P,J1,10,Pin_10*%
%TO.N,unconnected-(J1-Pin_10-Pad10)*%
X170180000Y-111125000D03*
%TO.P,J1,11,Pin_11*%
%TO.N,unconnected-(J1-Pin_11-Pad11)*%
X167640000Y-111125000D03*
%TO.P,J1,12,Pin_12*%
%TO.N,unconnected-(J1-Pin_12-Pad12)*%
X165100000Y-111125000D03*
%TO.P,J1,13,Pin_13*%
%TO.N,GND*%
X162560000Y-111125000D03*
%TO.P,J1,14,Pin_14*%
%TO.N,unconnected-(J1-Pin_14-Pad14)*%
X160020000Y-111125000D03*
%TO.P,J1,15,Pin_15*%
%TO.N,Net-(J1-Pin_15)*%
X157480000Y-111125000D03*
%TO.P,J1,16,Pin_16*%
%TO.N,Net-(J1-Pin_16)*%
X154940000Y-111125000D03*
%TO.P,J1,17,Pin_17*%
%TO.N,Net-(J1-Pin_17)*%
X152400000Y-111125000D03*
%TO.P,J1,18,Pin_18*%
%TO.N,GND*%
X149860000Y-111125000D03*
%TO.P,J1,19,Pin_19*%
%TO.N,Net-(J1-Pin_19)*%
X147320000Y-111125000D03*
%TO.P,J1,20,Pin_20*%
%TO.N,Net-(J1-Pin_20)*%
X144780000Y-111125000D03*
%TD*%
D21*
%TO.P,R3,1*%
%TO.N,Net-(J4-RD+)*%
X191910000Y-123253000D03*
%TO.P,R3,2*%
%TO.N,Net-(C7-Pad1)*%
X191910000Y-121603000D03*
%TD*%
D24*
%TO.P,FB1,1*%
%TO.N,+3.3V*%
X186669332Y-121653000D03*
%TO.P,FB1,2*%
%TO.N,Net-(J4-CT)*%
X186669332Y-123203000D03*
%TD*%
D23*
%TO.P,R4,1*%
%TO.N,Net-(J4-TD+)*%
X185028666Y-121603000D03*
%TO.P,R4,2*%
%TO.N,Net-(J4-CT)*%
X185028666Y-123253000D03*
%TD*%
D17*
%TO.P,C11,1*%
%TO.N,+3.3V*%
X156975000Y-118406000D03*
%TO.P,C11,2*%
%TO.N,GND*%
X158525000Y-118406000D03*
%TD*%
D22*
%TO.P,C8,1*%
%TO.N,Net-(J4-CT)*%
X188310000Y-123203000D03*
%TO.P,C8,2*%
%TO.N,GND*%
X188310000Y-121653000D03*
%TD*%
D27*
%TO.P,U1,1,VCAP*%
%TO.N,Net-(U1-VCAP)*%
X145600000Y-124125000D03*
%TO.P,U1,2,VSS*%
%TO.N,GND*%
X145600000Y-123475000D03*
%TO.P,U1,3,CLKOUT*%
%TO.N,unconnected-(U1-CLKOUT-Pad3)*%
X145600000Y-122825000D03*
%TO.P,U1,4,~{INT}*%
%TO.N,Net-(J2-Pin_5)*%
X145600000Y-122175000D03*
%TO.P,U1,5,~{WOL}*%
%TO.N,unconnected-(U1-~{WOL}-Pad5)*%
X145600000Y-121525000D03*
%TO.P,U1,6,SO*%
%TO.N,Net-(J1-Pin_20)*%
X145600000Y-120875000D03*
%TO.P,U1,7,SI*%
%TO.N,Net-(J1-Pin_16)*%
X145600000Y-120225000D03*
%TO.P,U1,8,SCK*%
%TO.N,Net-(J1-Pin_17)*%
X145600000Y-119575000D03*
%TO.P,U1,9,~{CS}*%
%TO.N,Net-(J1-Pin_19)*%
X145600000Y-118925000D03*
%TO.P,U1,10,~{RESET}*%
%TO.N,Net-(J1-Pin_15)*%
X145600000Y-118275000D03*
%TO.P,U1,11,VSSRX*%
%TO.N,GND*%
X145600000Y-117625000D03*
%TO.P,U1,12,TPIN-*%
%TO.N,Net-(J4-RD-)*%
X145600000Y-116975000D03*
%TO.P,U1,13,TPIN+*%
%TO.N,Net-(J4-RD+)*%
X145600000Y-116325000D03*
%TO.P,U1,14,RBIAS*%
%TO.N,Net-(U1-RBIAS)*%
X145600000Y-115675000D03*
%TO.P,U1,15,VDDTX*%
%TO.N,+3.3V*%
X152800000Y-115675000D03*
%TO.P,U1,16,TPOUT-*%
%TO.N,Net-(J4-TD-)*%
X152800000Y-116325000D03*
%TO.P,U1,17,TPOUT+*%
%TO.N,Net-(J4-TD+)*%
X152800000Y-116975000D03*
%TO.P,U1,18,VSSTX*%
%TO.N,GND*%
X152800000Y-117625000D03*
%TO.P,U1,19,VDDRX*%
%TO.N,+3.3V*%
X152800000Y-118275000D03*
%TO.P,U1,20,VDDPLL*%
X152800000Y-118925000D03*
%TO.P,U1,21,VSSPLL*%
%TO.N,GND*%
X152800000Y-119575000D03*
%TO.P,U1,22,VSSOSC*%
X152800000Y-120225000D03*
%TO.P,U1,23,OSC1*%
%TO.N,Net-(U1-OSC1)*%
X152800000Y-120875000D03*
%TO.P,U1,24,OSC2*%
%TO.N,Net-(U1-OSC2)*%
X152800000Y-121525000D03*
%TO.P,U1,25,VDDOSC*%
%TO.N,+3.3V*%
X152800000Y-122175000D03*
%TO.P,U1,26,LEDB*%
%TO.N,Net-(U1-LEDB)*%
X152800000Y-122825000D03*
%TO.P,U1,27,LEDA*%
%TO.N,Net-(U1-LEDA)*%
X152800000Y-123475000D03*
%TO.P,U1,28,VDD*%
%TO.N,+3.3V*%
X152800000Y-124125000D03*
%TD*%
D23*
%TO.P,R7,1*%
%TO.N,Net-(U1-LEDA)*%
X171000000Y-126175000D03*
%TO.P,R7,2*%
%TO.N,Net-(J4-PadA1)*%
X171000000Y-127825000D03*
%TD*%
D28*
%TO.P,C2,1*%
%TO.N,+24V*%
X166000000Y-129250000D03*
%TO.P,C2,2*%
%TO.N,GND*%
X166000000Y-124250000D03*
%TD*%
D20*
%TO.P,C6,1*%
%TO.N,GND*%
X158525000Y-121706000D03*
%TO.P,C6,2*%
%TO.N,Net-(U1-OSC2)*%
X156975000Y-121706000D03*
%TD*%
D21*
%TO.P,R1,1*%
%TO.N,Net-(U1-RBIAS)*%
X142100000Y-113525000D03*
%TO.P,R1,2*%
%TO.N,GND*%
X142100000Y-111875000D03*
%TD*%
D29*
%TO.N,GND*%
X148500000Y-127500000D03*
X155159049Y-117205049D03*
X155310000Y-119650000D03*
X148910000Y-113156000D03*
X160510000Y-114406000D03*
%TO.N,+24V*%
X162060000Y-127056000D03*
%TO.N,Net-(U1-OSC1)*%
X150910000Y-120156000D03*
%TO.N,Net-(U1-OSC2)*%
X150910000Y-121556000D03*
%TO.N,+3.3V*%
X151110000Y-116756000D03*
X185910000Y-119556000D03*
%TO.N,Net-(J1-Pin_15)*%
X154710000Y-113881000D03*
%TO.N,Net-(J1-Pin_16)*%
X150110000Y-117556000D03*
%TO.N,Net-(J1-Pin_17)*%
X149310000Y-118156000D03*
%TO.N,Net-(J1-Pin_19)*%
X148330940Y-118359584D03*
%TO.N,Net-(J1-Pin_20)*%
X144012653Y-119687347D03*
%TO.N,Net-(J4-TD-)*%
X168110000Y-114556000D03*
%TO.N,Net-(J4-RD+)*%
X165910000Y-113756000D03*
%TO.N,Net-(J4-RD-)*%
X164910000Y-113956000D03*
%TD*%
D30*
%TO.N,+5V*%
X181660000Y-114350000D02*
X170500000Y-114350000D01*
X190500000Y-116840000D02*
X188722000Y-118618000D01*
X190500000Y-111125000D02*
X190500000Y-116840000D01*
X188722000Y-118618000D02*
X185928000Y-118618000D01*
X185928000Y-118618000D02*
X181660000Y-114350000D01*
%TO.N,GND*%
X158525000Y-114050000D02*
X158881000Y-114406000D01*
X158881000Y-114406000D02*
X160510000Y-114406000D01*
X154739098Y-117625000D02*
X152800000Y-117625000D01*
X155310000Y-119650000D02*
X154735000Y-120225000D01*
X152800000Y-119575000D02*
X152800000Y-120225000D01*
X145600000Y-117625000D02*
X143635000Y-117625000D01*
X155159049Y-117205049D02*
X154739098Y-117625000D01*
X143635000Y-117625000D02*
X142195000Y-116185000D01*
X154735000Y-120225000D02*
X152800000Y-120225000D01*
D31*
%TO.N,+24V*%
X164036000Y-129032000D02*
X176913000Y-129032000D01*
X176913000Y-129032000D02*
X178310000Y-127635000D01*
X162060000Y-127056000D02*
X164036000Y-129032000D01*
D30*
%TO.N,Net-(U1-OSC1)*%
X155991000Y-120875000D02*
X156810000Y-120056000D01*
X152800000Y-120875000D02*
X151629000Y-120875000D01*
X156810000Y-120056000D02*
X156975000Y-120056000D01*
X155991000Y-120875000D02*
X152800000Y-120875000D01*
X151629000Y-120875000D02*
X150910000Y-120156000D01*
%TO.N,Net-(U1-OSC2)*%
X152769000Y-121556000D02*
X152800000Y-121525000D01*
X152800000Y-121525000D02*
X156794000Y-121525000D01*
X156794000Y-121525000D02*
X156975000Y-121706000D01*
X150941000Y-121525000D02*
X150910000Y-121556000D01*
X156908500Y-121525000D02*
X156975000Y-121458500D01*
X152800000Y-121525000D02*
X150941000Y-121525000D01*
%TO.N,Net-(C7-Pad1)*%
X191910000Y-119956000D02*
X191910000Y-121603000D01*
X190310000Y-121603000D02*
X191910000Y-121603000D01*
%TO.N,Net-(U1-VCAP)*%
X145600000Y-124125000D02*
X144141000Y-124125000D01*
X141710000Y-126556000D02*
X141710000Y-126981000D01*
X144141000Y-124125000D02*
X141710000Y-126556000D01*
%TO.N,+3.3V*%
X156910000Y-116756000D02*
X155391000Y-118275000D01*
X155560000Y-118925000D02*
X152800000Y-118925000D01*
X156975000Y-123356000D02*
X156310000Y-123356000D01*
X152800000Y-115675000D02*
X154391000Y-115675000D01*
X156016000Y-114050000D02*
X156975000Y-114050000D01*
X156710000Y-125756000D02*
X156960000Y-125756000D01*
X156079000Y-118406000D02*
X156975000Y-118406000D01*
X155575000Y-118925000D02*
X155560000Y-118925000D01*
X156960000Y-116756000D02*
X156910000Y-116756000D01*
X186669332Y-121653000D02*
X186669332Y-120315332D01*
X186669332Y-120315332D02*
X185910000Y-119556000D01*
X156310000Y-123356000D02*
X155129000Y-122175000D01*
X152800000Y-118275000D02*
X152800000Y-118925000D01*
X154279000Y-124125000D02*
X156310000Y-126156000D01*
X156310000Y-126156000D02*
X156960000Y-126156000D01*
X152800000Y-124125000D02*
X154279000Y-124125000D01*
X155391000Y-118275000D02*
X152800000Y-118275000D01*
X155560000Y-118925000D02*
X156079000Y-118406000D01*
X154391000Y-115675000D02*
X156016000Y-114050000D01*
X155129000Y-122175000D02*
X152800000Y-122175000D01*
%TO.N,Net-(J1-Pin_15)*%
X148041000Y-116697792D02*
X150782792Y-113956000D01*
X154635000Y-113956000D02*
X154710000Y-113881000D01*
X147191000Y-118275000D02*
X148041000Y-117425000D01*
X150782792Y-113956000D02*
X154635000Y-113956000D01*
X145600000Y-118275000D02*
X147191000Y-118275000D01*
X148041000Y-117425000D02*
X148041000Y-116697792D01*
%TO.N,Net-(J1-Pin_16)*%
X150110000Y-117556000D02*
X150110000Y-118956000D01*
X148841000Y-120225000D02*
X145600000Y-120225000D01*
X150110000Y-118956000D02*
X148841000Y-120225000D01*
%TO.N,Net-(J1-Pin_17)*%
X149310000Y-118456000D02*
X148191000Y-119575000D01*
X148191000Y-119575000D02*
X145600000Y-119575000D01*
X149310000Y-118156000D02*
X149310000Y-118456000D01*
%TO.N,Net-(J1-Pin_19)*%
X148330940Y-118359584D02*
X147765524Y-118925000D01*
X147765524Y-118925000D02*
X145600000Y-118925000D01*
%TO.N,Net-(J1-Pin_20)*%
X145600000Y-120875000D02*
X144475000Y-120875000D01*
X144012653Y-120412653D02*
X144012653Y-119687347D01*
X144475000Y-120875000D02*
X144012653Y-120412653D01*
%TO.N,Net-(U1-RBIAS)*%
X142679000Y-113525000D02*
X142100000Y-113525000D01*
X144829000Y-115675000D02*
X142679000Y-113525000D01*
X145600000Y-115675000D02*
X144829000Y-115675000D01*
%TO.N,Net-(U1-LEDB)*%
X154290396Y-122825000D02*
X155971396Y-124506000D01*
X152800000Y-122825000D02*
X154290396Y-122825000D01*
X168500000Y-126500000D02*
X170175000Y-124825000D01*
X162296396Y-124506000D02*
X164290396Y-126500000D01*
X170175000Y-124825000D02*
X171000000Y-124825000D01*
X155971396Y-124506000D02*
X162296396Y-124506000D01*
X164290396Y-126500000D02*
X168500000Y-126500000D01*
%TO.N,Net-(U1-LEDA)*%
X154265396Y-123475000D02*
X155746396Y-124956000D01*
X152800000Y-123475000D02*
X154265396Y-123475000D01*
X169461396Y-126175000D02*
X171000000Y-126175000D01*
X168686396Y-126950000D02*
X169461396Y-126175000D01*
X162110000Y-124956000D02*
X164104000Y-126950000D01*
X155746396Y-124956000D02*
X162110000Y-124956000D01*
X164104000Y-126950000D02*
X168686396Y-126950000D01*
%TO.N,Net-(J2-Pin_5)*%
X145600000Y-122175000D02*
X146725000Y-122175000D01*
X152000000Y-127450000D02*
X153445000Y-127450000D01*
X153445000Y-127450000D02*
X154900000Y-128905000D01*
X146725000Y-122175000D02*
X152000000Y-127450000D01*
%TO.N,Net-(J4-CT)*%
X181310000Y-119956000D02*
X182310000Y-120956000D01*
X182310000Y-122175000D02*
X183388000Y-123253000D01*
X180110000Y-119956000D02*
X181310000Y-119956000D01*
X182310000Y-120956000D02*
X182310000Y-122175000D01*
X188260000Y-123253000D02*
X188310000Y-123203000D01*
X183388000Y-123253000D02*
X188260000Y-123253000D01*
X178310000Y-117475000D02*
X178310000Y-118156000D01*
X178310000Y-118156000D02*
X180110000Y-119956000D01*
%TO.N,Net-(J4-TD-)*%
X152800000Y-116325000D02*
X154377396Y-116325000D01*
X183388000Y-121412000D02*
X183388000Y-121666000D01*
X180850000Y-118745000D02*
X183388000Y-121283000D01*
X167360000Y-115306000D02*
X168110000Y-114556000D01*
X155396396Y-115306000D02*
X167360000Y-115306000D01*
X154377396Y-116325000D02*
X155396396Y-115306000D01*
X183388000Y-121283000D02*
X183388000Y-121603000D01*
%TO.N,Net-(J4-TD+)*%
X178292670Y-114956000D02*
X178412670Y-114956000D01*
X178052670Y-115716000D02*
X178052670Y-115196000D01*
X185028666Y-120474666D02*
X180850000Y-116296000D01*
X176252670Y-115196000D02*
X176252670Y-115716000D01*
X164199249Y-116756000D02*
X164319249Y-116756000D01*
X163599249Y-115756000D02*
X163719249Y-115756000D01*
X177452670Y-115196000D02*
X177452670Y-115716000D01*
X162759249Y-115996000D02*
X162759249Y-116516000D01*
X165759249Y-116516000D02*
X165759249Y-115996000D01*
X179601000Y-114956000D02*
X180850000Y-116205000D01*
X167799249Y-116756000D02*
X167919249Y-116756000D01*
X178412670Y-114956000D02*
X178560000Y-114956000D01*
X177692670Y-115956000D02*
X177812670Y-115956000D01*
X168519249Y-115756000D02*
X168810000Y-115756000D01*
X167559249Y-115996000D02*
X167559249Y-116516000D01*
X164799249Y-115756000D02*
X164919249Y-115756000D01*
X163959249Y-115996000D02*
X163959249Y-116516000D01*
X165999249Y-115756000D02*
X166119249Y-115756000D01*
X166959249Y-116516000D02*
X166959249Y-115996000D01*
X164559249Y-116516000D02*
X164559249Y-115996000D01*
X163359249Y-116516000D02*
X163359249Y-115996000D01*
X166359249Y-115996000D02*
X166359249Y-116516000D01*
X175292670Y-115956000D02*
X175412670Y-115956000D01*
X180850000Y-116296000D02*
X180850000Y-116205000D01*
X177092670Y-114956000D02*
X177212670Y-114956000D01*
X176492670Y-115956000D02*
X176612670Y-115956000D01*
X165159249Y-115996000D02*
X165159249Y-116516000D01*
X165399249Y-116756000D02*
X165519249Y-116756000D01*
X175652670Y-115716000D02*
X175652670Y-115196000D01*
X166599249Y-116756000D02*
X166719249Y-116756000D01*
X168810000Y-115756000D02*
X172110000Y-115756000D01*
X168159249Y-116516000D02*
X168159249Y-115996000D01*
X172110000Y-115756000D02*
X172910000Y-114956000D01*
X168399249Y-115756000D02*
X168519249Y-115756000D01*
X167199249Y-115756000D02*
X167319249Y-115756000D01*
X172910000Y-114956000D02*
X174812670Y-114956000D01*
X154363792Y-116975000D02*
X155582792Y-115756000D01*
X175892670Y-114956000D02*
X176012670Y-114956000D01*
X155582792Y-115756000D02*
X162519249Y-115756000D01*
X176852670Y-115716000D02*
X176852670Y-115196000D01*
X185028666Y-121603000D02*
X185028666Y-120474666D01*
X175052670Y-115196000D02*
X175052670Y-115716000D01*
X162999249Y-116756000D02*
X163119249Y-116756000D01*
X152800000Y-116975000D02*
X154363792Y-116975000D01*
X178560000Y-114956000D02*
X179601000Y-114956000D01*
X166719249Y-116756000D02*
G75*
G03*
X166959300Y-116516000I51J240000D01*
G01*
X166119249Y-115756000D02*
G75*
G02*
X166359300Y-115996000I51J-240000D01*
G01*
X163959249Y-116516000D02*
G75*
G03*
X164199249Y-116755951I239951J0D01*
G01*
X175652670Y-115196000D02*
G75*
G02*
X175892670Y-114955970I240030J0D01*
G01*
X163359249Y-115996000D02*
G75*
G02*
X163599249Y-115756049I239951J0D01*
G01*
X178052670Y-115196000D02*
G75*
G02*
X178292670Y-114955970I240030J0D01*
G01*
X166359249Y-116516000D02*
G75*
G03*
X166599249Y-116755951I239951J0D01*
G01*
X177452670Y-115716000D02*
G75*
G03*
X177692670Y-115956030I240030J0D01*
G01*
X162759249Y-116516000D02*
G75*
G03*
X162999249Y-116755951I239951J0D01*
G01*
X177212670Y-114956000D02*
G75*
G02*
X177452700Y-115196000I30J-240000D01*
G01*
X175412670Y-115956000D02*
G75*
G03*
X175652700Y-115716000I30J240000D01*
G01*
X166959249Y-115996000D02*
G75*
G02*
X167199249Y-115756049I239951J0D01*
G01*
X164559249Y-115996000D02*
G75*
G02*
X164799249Y-115756049I239951J0D01*
G01*
X174812670Y-114956000D02*
G75*
G02*
X175052700Y-115196000I30J-240000D01*
G01*
X175052670Y-115716000D02*
G75*
G03*
X175292670Y-115956030I240030J0D01*
G01*
X167319249Y-115756000D02*
G75*
G02*
X167559300Y-115996000I51J-240000D01*
G01*
X167919249Y-116756000D02*
G75*
G03*
X168159300Y-116516000I51J240000D01*
G01*
X163119249Y-116756000D02*
G75*
G03*
X163359300Y-116516000I51J240000D01*
G01*
X165759249Y-115996000D02*
G75*
G02*
X165999249Y-115756049I239951J0D01*
G01*
X162519249Y-115756000D02*
G75*
G02*
X162759300Y-115996000I51J-240000D01*
G01*
X176612670Y-115956000D02*
G75*
G03*
X176852700Y-115716000I30J240000D01*
G01*
X167559249Y-116516000D02*
G75*
G03*
X167799249Y-116755951I239951J0D01*
G01*
X165519249Y-116756000D02*
G75*
G03*
X165759300Y-116516000I51J240000D01*
G01*
X168159249Y-115996000D02*
G75*
G02*
X168399249Y-115756049I239951J0D01*
G01*
X177812670Y-115956000D02*
G75*
G03*
X178052700Y-115716000I30J240000D01*
G01*
X164919249Y-115756000D02*
G75*
G02*
X165159300Y-115996000I51J-240000D01*
G01*
X164319249Y-116756000D02*
G75*
G03*
X164559300Y-116516000I51J240000D01*
G01*
X165159249Y-116516000D02*
G75*
G03*
X165399249Y-116755951I239951J0D01*
G01*
X163719249Y-115756000D02*
G75*
G02*
X163959300Y-115996000I51J-240000D01*
G01*
X176012670Y-114956000D02*
G75*
G02*
X176252700Y-115196000I30J-240000D01*
G01*
X176852670Y-115196000D02*
G75*
G02*
X177092670Y-114955970I240030J0D01*
G01*
X176252670Y-115716000D02*
G75*
G03*
X176492670Y-115956030I240030J0D01*
G01*
%TO.N,Net-(J4-RD+)*%
X178310000Y-120756000D02*
X178310000Y-120015000D01*
X145600000Y-116325000D02*
X147141000Y-116325000D01*
X160035000Y-113231000D02*
X165385000Y-113231000D01*
X150910000Y-112556000D02*
X159360000Y-112556000D01*
X182510000Y-124956000D02*
X178310000Y-120756000D01*
X159360000Y-112556000D02*
X160035000Y-113231000D01*
X190207000Y-124956000D02*
X182510000Y-124956000D01*
X191910000Y-123253000D02*
X190207000Y-124956000D01*
X165385000Y-113231000D02*
X165910000Y-113756000D01*
X147141000Y-116325000D02*
X150910000Y-112556000D01*
%TO.N,Net-(J4-RD-)*%
X159323604Y-113156000D02*
X159848604Y-113681000D01*
X190310000Y-123253000D02*
X190310000Y-123830604D01*
X150946396Y-113156000D02*
X159323604Y-113156000D01*
X182760000Y-124506000D02*
X189634604Y-124506000D01*
X147127396Y-116975000D02*
X150946396Y-113156000D01*
X190310000Y-123830604D02*
X189634604Y-124506000D01*
X180850000Y-122596000D02*
X182760000Y-124506000D01*
X164635000Y-113681000D02*
X164910000Y-113956000D01*
X159848604Y-113681000D02*
X164635000Y-113681000D01*
X180850000Y-121285000D02*
X180850000Y-122596000D01*
X145600000Y-116975000D02*
X147127396Y-116975000D01*
%TO.N,Net-(J4-PadA2)*%
X171000000Y-123175000D02*
X171000000Y-121475000D01*
X171000000Y-121475000D02*
X173480000Y-118995000D01*
%TO.N,Net-(J4-PadA1)*%
X173040000Y-127825000D02*
X173480000Y-127385000D01*
X171000000Y-127825000D02*
X173040000Y-127825000D01*
%TO.N,Net-(D1-A)*%
X163580000Y-119500000D02*
X164637500Y-119500000D01*
X164637500Y-119500000D02*
X166487500Y-117650000D01*
X161250000Y-117170000D02*
X163580000Y-119500000D01*
X166487500Y-117650000D02*
X170500000Y-117650000D01*
%TD*%
%TA.AperFunction,Conductor*%
%TO.N,+3.3V*%
G36*
X154258189Y-114350407D02*
G01*
X154265648Y-114356397D01*
X154337760Y-114420283D01*
X154477635Y-114493696D01*
X154631015Y-114531500D01*
X154631016Y-114531500D01*
X154634692Y-114532406D01*
X154686667Y-114564689D01*
X154709740Y-114621357D01*
X154710000Y-114628529D01*
X154710000Y-115420351D01*
X154691093Y-115478542D01*
X154681004Y-115490355D01*
X154293183Y-115878176D01*
X154238666Y-115905953D01*
X154201078Y-115900000D01*
X153856599Y-115900000D01*
X153801598Y-115883316D01*
X153772742Y-115864035D01*
X153772740Y-115864034D01*
X153772737Y-115864033D01*
X153772736Y-115864033D01*
X153699684Y-115849501D01*
X153699674Y-115849500D01*
X151900326Y-115849500D01*
X151900325Y-115849500D01*
X151900315Y-115849501D01*
X151827263Y-115864033D01*
X151827257Y-115864035D01*
X151798402Y-115883316D01*
X151743401Y-115900000D01*
X151425001Y-115900000D01*
X151425000Y-115900001D01*
X151425000Y-115947824D01*
X151424999Y-115947824D01*
X151431401Y-116007370D01*
X151431403Y-116007381D01*
X151481646Y-116142088D01*
X151481647Y-116142090D01*
X151567807Y-116257184D01*
X151567814Y-116257191D01*
X151634828Y-116307357D01*
X151670082Y-116357366D01*
X151674500Y-116386611D01*
X151674500Y-116574679D01*
X151685641Y-116630687D01*
X151685641Y-116669313D01*
X151674500Y-116725320D01*
X151674500Y-117224679D01*
X151685641Y-117280687D01*
X151685641Y-117319313D01*
X151674500Y-117375320D01*
X151674500Y-117563387D01*
X151655593Y-117621578D01*
X151634830Y-117642640D01*
X151567812Y-117692810D01*
X151567807Y-117692815D01*
X151481647Y-117807909D01*
X151481646Y-117807911D01*
X151431403Y-117942618D01*
X151431401Y-117942629D01*
X151425000Y-118002175D01*
X151425000Y-118049999D01*
X151425001Y-118050000D01*
X151743401Y-118050000D01*
X151798401Y-118066683D01*
X151827260Y-118085966D01*
X151882808Y-118097015D01*
X151900315Y-118100498D01*
X151900320Y-118100498D01*
X151900326Y-118100500D01*
X151900327Y-118100500D01*
X153699673Y-118100500D01*
X153699674Y-118100500D01*
X153772740Y-118085966D01*
X153801598Y-118066683D01*
X153856599Y-118050000D01*
X154174999Y-118050000D01*
X154195503Y-118029496D01*
X154250020Y-118001719D01*
X154265507Y-118000500D01*
X154611000Y-118000500D01*
X154669191Y-118019407D01*
X154705155Y-118068907D01*
X154710000Y-118099500D01*
X154710000Y-119379488D01*
X154703567Y-119414593D01*
X154673763Y-119493182D01*
X154654722Y-119649998D01*
X154654722Y-119650002D01*
X154662363Y-119712937D01*
X154650607Y-119772982D01*
X154634091Y-119794870D01*
X154608462Y-119820501D01*
X154553947Y-119848281D01*
X154538456Y-119849500D01*
X154024500Y-119849500D01*
X153966309Y-119830593D01*
X153930345Y-119781093D01*
X153925500Y-119750500D01*
X153925500Y-119636611D01*
X153944407Y-119578420D01*
X153965172Y-119557357D01*
X154032185Y-119507191D01*
X154032192Y-119507184D01*
X154118352Y-119392090D01*
X154118353Y-119392088D01*
X154168596Y-119257381D01*
X154168598Y-119257370D01*
X154175000Y-119197824D01*
X154175000Y-119150001D01*
X154174999Y-119150000D01*
X153856599Y-119150000D01*
X153801598Y-119133316D01*
X153772742Y-119114035D01*
X153772740Y-119114034D01*
X153772737Y-119114033D01*
X153772736Y-119114033D01*
X153699684Y-119099501D01*
X153699674Y-119099500D01*
X151900326Y-119099500D01*
X151900325Y-119099500D01*
X151900315Y-119099501D01*
X151827263Y-119114033D01*
X151827257Y-119114035D01*
X151798402Y-119133316D01*
X151743401Y-119150000D01*
X151425001Y-119150000D01*
X151425000Y-119150001D01*
X151425000Y-119197824D01*
X151424999Y-119197824D01*
X151431401Y-119257370D01*
X151431403Y-119257381D01*
X151481646Y-119392088D01*
X151481647Y-119392090D01*
X151567807Y-119507184D01*
X151567814Y-119507191D01*
X151634828Y-119557357D01*
X151670082Y-119607366D01*
X151674500Y-119636611D01*
X151674500Y-119800934D01*
X151655593Y-119859125D01*
X151606093Y-119895089D01*
X151544907Y-119895089D01*
X151495407Y-119859125D01*
X151493687Y-119856358D01*
X151493621Y-119856405D01*
X151490220Y-119851478D01*
X151490220Y-119851477D01*
X151411708Y-119737732D01*
X151400484Y-119721471D01*
X151399708Y-119720783D01*
X151282240Y-119616717D01*
X151203659Y-119575474D01*
X151142364Y-119543303D01*
X150988987Y-119505500D01*
X150988985Y-119505500D01*
X150831015Y-119505500D01*
X150831012Y-119505500D01*
X150677635Y-119543303D01*
X150537758Y-119616718D01*
X150419515Y-119721471D01*
X150329780Y-119851476D01*
X150273763Y-119999182D01*
X150273762Y-119999183D01*
X150254722Y-120155998D01*
X150254722Y-120156001D01*
X150273762Y-120312816D01*
X150273763Y-120312818D01*
X150316264Y-120424885D01*
X150329780Y-120460523D01*
X150419515Y-120590528D01*
X150419516Y-120590529D01*
X150419517Y-120590530D01*
X150537760Y-120695283D01*
X150676957Y-120768340D01*
X150719696Y-120812125D01*
X150728536Y-120872668D01*
X150700101Y-120926845D01*
X150676957Y-120943659D01*
X150575030Y-120997156D01*
X150537758Y-121016718D01*
X150419515Y-121121471D01*
X150329780Y-121251476D01*
X150273763Y-121399182D01*
X150273762Y-121399183D01*
X150254722Y-121555998D01*
X150254722Y-121556001D01*
X150273762Y-121712816D01*
X150273763Y-121712818D01*
X150312920Y-121816066D01*
X150329780Y-121860523D01*
X150419515Y-121990528D01*
X150419516Y-121990529D01*
X150419517Y-121990530D01*
X150537760Y-122095283D01*
X150677635Y-122168696D01*
X150831015Y-122206500D01*
X150831018Y-122206500D01*
X150988982Y-122206500D01*
X150988985Y-122206500D01*
X151142365Y-122168696D01*
X151282240Y-122095283D01*
X151400483Y-121990530D01*
X151400486Y-121990524D01*
X151404452Y-121986049D01*
X151405967Y-121987391D01*
X151447568Y-121955609D01*
X151480418Y-121950000D01*
X151743401Y-121950000D01*
X151798401Y-121966683D01*
X151827260Y-121985966D01*
X151882808Y-121997015D01*
X151900315Y-122000498D01*
X151900320Y-122000498D01*
X151900326Y-122000500D01*
X151900327Y-122000500D01*
X153699673Y-122000500D01*
X153699674Y-122000500D01*
X153772740Y-121985966D01*
X153801598Y-121966683D01*
X153856599Y-121950000D01*
X154174999Y-121950000D01*
X154195503Y-121929496D01*
X154250020Y-121901719D01*
X154265507Y-121900500D01*
X154611000Y-121900500D01*
X154669191Y-121919407D01*
X154705155Y-121968907D01*
X154710000Y-121999500D01*
X154710000Y-122474559D01*
X154691093Y-122532750D01*
X154641593Y-122568714D01*
X154580407Y-122568714D01*
X154540996Y-122544563D01*
X154520959Y-122524526D01*
X154520959Y-122524525D01*
X154435337Y-122475091D01*
X154435330Y-122475088D01*
X154387581Y-122462294D01*
X154387580Y-122462294D01*
X154339834Y-122449500D01*
X154339832Y-122449500D01*
X154339831Y-122449500D01*
X154265507Y-122449500D01*
X154207316Y-122430593D01*
X154195503Y-122420504D01*
X154174999Y-122400000D01*
X153856599Y-122400000D01*
X153801598Y-122383316D01*
X153772742Y-122364035D01*
X153772740Y-122364034D01*
X153772737Y-122364033D01*
X153772736Y-122364033D01*
X153699684Y-122349501D01*
X153699674Y-122349500D01*
X151900326Y-122349500D01*
X151900325Y-122349500D01*
X151900315Y-122349501D01*
X151827263Y-122364033D01*
X151827257Y-122364035D01*
X151798402Y-122383316D01*
X151743401Y-122400000D01*
X151425001Y-122400000D01*
X151425000Y-122400001D01*
X151425000Y-122447820D01*
X151431401Y-122507370D01*
X151431403Y-122507381D01*
X151481646Y-122642088D01*
X151481647Y-122642090D01*
X151567807Y-122757184D01*
X151567814Y-122757191D01*
X151634828Y-122807357D01*
X151670082Y-122857366D01*
X151674500Y-122886611D01*
X151674500Y-123074679D01*
X151685641Y-123130687D01*
X151685641Y-123169313D01*
X151674500Y-123225320D01*
X151674500Y-123413387D01*
X151655593Y-123471578D01*
X151634830Y-123492640D01*
X151567812Y-123542810D01*
X151567807Y-123542815D01*
X151481647Y-123657909D01*
X151481646Y-123657911D01*
X151431403Y-123792618D01*
X151431401Y-123792629D01*
X151425000Y-123852175D01*
X151425000Y-123899999D01*
X151425001Y-123900000D01*
X151743401Y-123900000D01*
X151798401Y-123916683D01*
X151827260Y-123935966D01*
X151882808Y-123947015D01*
X151900315Y-123950498D01*
X151900320Y-123950498D01*
X151900326Y-123950500D01*
X151900327Y-123950500D01*
X153699673Y-123950500D01*
X153699674Y-123950500D01*
X153772740Y-123935966D01*
X153801598Y-123916683D01*
X153856599Y-123900000D01*
X154118351Y-123900000D01*
X154176542Y-123918907D01*
X154188355Y-123928996D01*
X154681004Y-124421645D01*
X154708781Y-124476162D01*
X154710000Y-124491649D01*
X154710000Y-125707000D01*
X154691093Y-125765191D01*
X154641593Y-125801155D01*
X154611000Y-125806000D01*
X150928045Y-125806000D01*
X150869854Y-125787093D01*
X150858041Y-125777004D01*
X149738996Y-124657959D01*
X149711219Y-124603442D01*
X149710000Y-124587955D01*
X149710000Y-124397824D01*
X151424999Y-124397824D01*
X151431401Y-124457370D01*
X151431403Y-124457381D01*
X151481646Y-124592088D01*
X151481647Y-124592090D01*
X151567807Y-124707184D01*
X151567815Y-124707192D01*
X151682909Y-124793352D01*
X151682911Y-124793353D01*
X151817618Y-124843596D01*
X151817629Y-124843598D01*
X151877176Y-124850000D01*
X152574999Y-124850000D01*
X152575000Y-124849999D01*
X153025000Y-124849999D01*
X153025001Y-124850000D01*
X153722824Y-124850000D01*
X153782370Y-124843598D01*
X153782381Y-124843596D01*
X153917088Y-124793353D01*
X153917090Y-124793352D01*
X154032184Y-124707192D01*
X154032192Y-124707184D01*
X154118352Y-124592090D01*
X154118353Y-124592088D01*
X154168596Y-124457381D01*
X154168598Y-124457370D01*
X154175000Y-124397824D01*
X154175000Y-124350001D01*
X154174999Y-124350000D01*
X153025001Y-124350000D01*
X153025000Y-124350001D01*
X153025000Y-124849999D01*
X152575000Y-124849999D01*
X152575000Y-124350001D01*
X152574999Y-124350000D01*
X151425001Y-124350000D01*
X151425000Y-124350001D01*
X151425000Y-124397824D01*
X151424999Y-124397824D01*
X149710000Y-124397824D01*
X149710000Y-119928044D01*
X149728907Y-119869853D01*
X149738996Y-119858040D01*
X149809961Y-119787075D01*
X150410474Y-119186563D01*
X150412491Y-119183068D01*
X150420015Y-119170039D01*
X150452349Y-119114034D01*
X150459910Y-119100938D01*
X150473503Y-119050208D01*
X150485500Y-119005436D01*
X150485500Y-118906564D01*
X150485500Y-118699999D01*
X151425000Y-118699999D01*
X151425001Y-118700000D01*
X152574999Y-118700000D01*
X152575000Y-118699999D01*
X153025000Y-118699999D01*
X153025001Y-118700000D01*
X154174999Y-118700000D01*
X154175000Y-118699999D01*
X154175000Y-118652175D01*
X154170528Y-118610584D01*
X154170528Y-118589416D01*
X154175000Y-118547824D01*
X154175000Y-118500001D01*
X154174999Y-118500000D01*
X153025001Y-118500000D01*
X153025000Y-118500001D01*
X153025000Y-118699999D01*
X152575000Y-118699999D01*
X152575000Y-118500001D01*
X152574999Y-118500000D01*
X151425001Y-118500000D01*
X151425000Y-118500001D01*
X151425000Y-118547826D01*
X151429471Y-118589419D01*
X151429471Y-118610581D01*
X151425000Y-118652173D01*
X151425000Y-118699999D01*
X150485500Y-118699999D01*
X150485500Y-118136950D01*
X150504407Y-118078759D01*
X150518845Y-118062852D01*
X150600483Y-117990530D01*
X150690220Y-117860523D01*
X150746237Y-117712818D01*
X150762303Y-117580499D01*
X150765278Y-117556001D01*
X150765278Y-117555998D01*
X150746237Y-117399183D01*
X150746237Y-117399182D01*
X150690220Y-117251477D01*
X150633901Y-117169885D01*
X150600484Y-117121471D01*
X150598753Y-117119937D01*
X150482240Y-117016717D01*
X150412302Y-116980010D01*
X150342364Y-116943303D01*
X150188987Y-116905500D01*
X150188985Y-116905500D01*
X150031015Y-116905500D01*
X150031012Y-116905500D01*
X149877635Y-116943303D01*
X149855006Y-116955180D01*
X149794693Y-116965480D01*
X149739846Y-116938362D01*
X149711413Y-116884184D01*
X149710000Y-116867519D01*
X149710000Y-115600836D01*
X149728907Y-115542645D01*
X149738996Y-115530832D01*
X149819829Y-115449999D01*
X151425000Y-115449999D01*
X151425001Y-115450000D01*
X152574999Y-115450000D01*
X152575000Y-115449999D01*
X153025000Y-115449999D01*
X153025001Y-115450000D01*
X154174999Y-115450000D01*
X154175000Y-115449999D01*
X154175000Y-115402175D01*
X154168598Y-115342629D01*
X154168596Y-115342618D01*
X154118353Y-115207911D01*
X154118352Y-115207909D01*
X154032192Y-115092815D01*
X154032184Y-115092807D01*
X153917090Y-115006647D01*
X153917088Y-115006646D01*
X153782381Y-114956403D01*
X153782370Y-114956401D01*
X153722824Y-114950000D01*
X153025001Y-114950000D01*
X153025000Y-114950001D01*
X153025000Y-115449999D01*
X152575000Y-115449999D01*
X152575000Y-114950001D01*
X152574999Y-114950000D01*
X151877176Y-114950000D01*
X151817629Y-114956401D01*
X151817618Y-114956403D01*
X151682911Y-115006646D01*
X151682909Y-115006647D01*
X151567815Y-115092807D01*
X151567807Y-115092815D01*
X151481647Y-115207909D01*
X151481646Y-115207911D01*
X151431403Y-115342618D01*
X151431401Y-115342629D01*
X151425000Y-115402175D01*
X151425000Y-115449999D01*
X149819829Y-115449999D01*
X150061918Y-115207911D01*
X150909333Y-114360496D01*
X150963850Y-114332719D01*
X150979337Y-114331500D01*
X154199998Y-114331500D01*
X154258189Y-114350407D01*
G37*
%TD.AperFunction*%
%TD*%
%TA.AperFunction,Conductor*%
%TO.N,GND*%
G36*
X151469191Y-109574907D02*
G01*
X151505155Y-109624407D01*
X151510000Y-109655000D01*
X151510000Y-110444219D01*
X151491093Y-110502410D01*
X151490004Y-110503879D01*
X151460332Y-110543171D01*
X151460323Y-110543186D01*
X151369419Y-110725747D01*
X151354833Y-110777011D01*
X151320722Y-110827806D01*
X151263269Y-110848850D01*
X151204420Y-110832106D01*
X151166652Y-110783968D01*
X151163985Y-110775541D01*
X151133429Y-110661504D01*
X151033605Y-110447432D01*
X151033601Y-110447424D01*
X150898113Y-110253926D01*
X150731073Y-110086886D01*
X150537577Y-109951399D01*
X150323489Y-109851569D01*
X150110000Y-109794364D01*
X150110000Y-110691988D01*
X150052993Y-110659075D01*
X149925826Y-110625000D01*
X149794174Y-110625000D01*
X149667007Y-110659075D01*
X149610000Y-110691988D01*
X149610000Y-109794364D01*
X149396505Y-109851570D01*
X149182432Y-109951394D01*
X149182424Y-109951398D01*
X148988926Y-110086886D01*
X148821886Y-110253926D01*
X148686398Y-110447424D01*
X148686394Y-110447432D01*
X148586570Y-110661505D01*
X148556014Y-110775541D01*
X148522689Y-110826856D01*
X148465568Y-110848782D01*
X148406467Y-110832946D01*
X148367962Y-110785396D01*
X148365172Y-110777028D01*
X148350582Y-110725750D01*
X148259673Y-110543179D01*
X148136764Y-110380421D01*
X147986041Y-110243019D01*
X147812637Y-110135652D01*
X147622456Y-110061976D01*
X147622455Y-110061975D01*
X147622453Y-110061975D01*
X147421976Y-110024500D01*
X147218024Y-110024500D01*
X147017546Y-110061975D01*
X146953243Y-110086886D01*
X146827363Y-110135652D01*
X146690359Y-110220481D01*
X146653959Y-110243019D01*
X146503237Y-110380420D01*
X146380328Y-110543177D01*
X146380323Y-110543186D01*
X146289419Y-110725747D01*
X146289418Y-110725750D01*
X146233603Y-110921917D01*
X146214785Y-111125000D01*
X146233603Y-111328083D01*
X146289418Y-111524250D01*
X146380327Y-111706821D01*
X146503236Y-111869579D01*
X146653959Y-112006981D01*
X146827363Y-112114348D01*
X147017544Y-112188024D01*
X147218024Y-112225500D01*
X147421976Y-112225500D01*
X147622456Y-112188024D01*
X147812637Y-112114348D01*
X147986041Y-112006981D01*
X148136764Y-111869579D01*
X148259673Y-111706821D01*
X148350582Y-111524250D01*
X148365167Y-111472987D01*
X148399275Y-111422194D01*
X148456728Y-111401149D01*
X148515577Y-111417892D01*
X148553346Y-111466029D01*
X148556014Y-111474458D01*
X148586569Y-111588489D01*
X148686399Y-111802577D01*
X148821886Y-111996073D01*
X148988926Y-112163113D01*
X149182422Y-112298600D01*
X149396509Y-112398430D01*
X149610000Y-112455634D01*
X149610000Y-111558012D01*
X149667007Y-111590925D01*
X149794174Y-111625000D01*
X149925826Y-111625000D01*
X150052993Y-111590925D01*
X150110000Y-111558012D01*
X150110000Y-112455633D01*
X150257626Y-112416078D01*
X150318728Y-112419281D01*
X150366277Y-112457786D01*
X150382113Y-112516886D01*
X150360186Y-112574008D01*
X150353253Y-112581709D01*
X147014459Y-115920504D01*
X146959942Y-115948281D01*
X146944455Y-115949500D01*
X146824500Y-115949500D01*
X146766309Y-115930593D01*
X146730345Y-115881093D01*
X146725500Y-115850500D01*
X146725500Y-115425327D01*
X146725498Y-115425315D01*
X146716591Y-115380539D01*
X146710966Y-115352260D01*
X146675714Y-115299500D01*
X146655602Y-115269400D01*
X146655599Y-115269397D01*
X146572742Y-115214035D01*
X146572740Y-115214034D01*
X146572737Y-115214033D01*
X146572736Y-115214033D01*
X146499684Y-115199501D01*
X146499674Y-115199500D01*
X146499673Y-115199500D01*
X144925545Y-115199500D01*
X144867354Y-115180593D01*
X144855541Y-115170504D01*
X142909563Y-113224526D01*
X142909563Y-113224525D01*
X142825534Y-113176011D01*
X142784594Y-113130541D01*
X142781594Y-113122983D01*
X142777793Y-113112118D01*
X142697150Y-113002850D01*
X142697146Y-113002847D01*
X142697144Y-113002845D01*
X142587888Y-112922211D01*
X142587885Y-112922209D01*
X142587882Y-112922207D01*
X142587877Y-112922205D01*
X142583674Y-112919984D01*
X142541060Y-112876079D01*
X142532391Y-112815511D01*
X142560978Y-112761414D01*
X142600478Y-112737936D01*
X142664398Y-112718018D01*
X142664400Y-112718017D01*
X142809872Y-112630075D01*
X142930075Y-112509872D01*
X143018017Y-112364400D01*
X143018020Y-112364392D01*
X143068589Y-112202110D01*
X143068591Y-112202104D01*
X143074999Y-112131581D01*
X143075000Y-112131568D01*
X143075000Y-112125001D01*
X143074999Y-112125000D01*
X141125002Y-112125000D01*
X141125001Y-112125001D01*
X141125001Y-112131582D01*
X141131408Y-112202103D01*
X141131410Y-112202109D01*
X141181979Y-112364392D01*
X141181982Y-112364400D01*
X141269924Y-112509872D01*
X141390127Y-112630075D01*
X141535599Y-112718017D01*
X141535607Y-112718020D01*
X141599522Y-112737937D01*
X141649453Y-112773300D01*
X141669062Y-112831258D01*
X141650859Y-112889673D01*
X141616328Y-112919982D01*
X141612114Y-112922208D01*
X141502855Y-113002845D01*
X141502845Y-113002855D01*
X141422207Y-113112116D01*
X141377355Y-113240296D01*
X141377353Y-113240305D01*
X141374500Y-113270725D01*
X141374500Y-113779274D01*
X141377353Y-113809694D01*
X141377355Y-113809703D01*
X141422207Y-113937883D01*
X141502845Y-114047144D01*
X141502847Y-114047146D01*
X141502850Y-114047150D01*
X141502853Y-114047152D01*
X141502855Y-114047154D01*
X141612116Y-114127792D01*
X141612117Y-114127792D01*
X141612118Y-114127793D01*
X141740301Y-114172646D01*
X141770725Y-114175499D01*
X141770727Y-114175500D01*
X141770734Y-114175500D01*
X142429273Y-114175500D01*
X142429273Y-114175499D01*
X142459699Y-114172646D01*
X142587882Y-114127793D01*
X142613045Y-114109221D01*
X142671091Y-114089880D01*
X142729422Y-114108351D01*
X142741836Y-114118873D01*
X143038959Y-114415996D01*
X143066736Y-114470513D01*
X143057165Y-114530945D01*
X143013900Y-114574210D01*
X142968955Y-114585000D01*
X142445001Y-114585000D01*
X142445000Y-114585001D01*
X142445000Y-115694252D01*
X142407292Y-115672482D01*
X142267409Y-115635000D01*
X142122591Y-115635000D01*
X141982708Y-115672482D01*
X141945000Y-115694252D01*
X141945000Y-114585001D01*
X141944999Y-114585000D01*
X141047176Y-114585000D01*
X140987629Y-114591401D01*
X140987618Y-114591403D01*
X140852911Y-114641646D01*
X140852909Y-114641647D01*
X140737815Y-114727807D01*
X140737807Y-114727815D01*
X140651647Y-114842909D01*
X140651646Y-114842911D01*
X140601403Y-114977618D01*
X140601401Y-114977629D01*
X140595000Y-115037175D01*
X140595000Y-115934999D01*
X140595001Y-115935000D01*
X141704252Y-115935000D01*
X141682482Y-115972708D01*
X141645000Y-116112591D01*
X141645000Y-116257409D01*
X141682482Y-116397292D01*
X141704252Y-116435000D01*
X140595001Y-116435000D01*
X140595000Y-116435001D01*
X140595000Y-117332824D01*
X140594999Y-117332824D01*
X140601401Y-117392370D01*
X140601403Y-117392381D01*
X140651646Y-117527088D01*
X140651647Y-117527090D01*
X140737807Y-117642184D01*
X140737815Y-117642192D01*
X140852909Y-117728352D01*
X140852911Y-117728353D01*
X140987618Y-117778596D01*
X140987629Y-117778598D01*
X141026867Y-117782816D01*
X141082704Y-117807834D01*
X141113172Y-117860893D01*
X141106633Y-117921728D01*
X141097384Y-117938032D01*
X141020962Y-118047175D01*
X141020959Y-118047181D01*
X140921098Y-118261332D01*
X140859935Y-118489599D01*
X140839341Y-118724995D01*
X140839341Y-118725004D01*
X140859935Y-118960400D01*
X140859936Y-118960407D01*
X140859937Y-118960408D01*
X140921097Y-119188663D01*
X140978581Y-119311937D01*
X141019878Y-119400500D01*
X141020965Y-119402830D01*
X141062819Y-119462603D01*
X141142061Y-119575774D01*
X141156505Y-119596401D01*
X141323599Y-119763495D01*
X141517170Y-119899035D01*
X141530552Y-119905275D01*
X141575300Y-119947003D01*
X141586975Y-120007064D01*
X141561117Y-120062517D01*
X141530554Y-120084724D01*
X141517173Y-120090963D01*
X141323603Y-120226501D01*
X141156501Y-120393603D01*
X141020963Y-120587173D01*
X141020959Y-120587181D01*
X140921098Y-120801332D01*
X140859935Y-121029599D01*
X140839341Y-121264995D01*
X140839341Y-121265004D01*
X140859935Y-121500400D01*
X140859936Y-121500407D01*
X140859937Y-121500408D01*
X140921097Y-121728663D01*
X141020965Y-121942830D01*
X141047071Y-121980113D01*
X141148629Y-122125154D01*
X141156505Y-122136401D01*
X141323599Y-122303495D01*
X141517170Y-122439035D01*
X141530552Y-122445275D01*
X141575300Y-122487003D01*
X141586975Y-122547064D01*
X141561117Y-122602517D01*
X141530554Y-122624724D01*
X141517173Y-122630963D01*
X141323603Y-122766501D01*
X141156501Y-122933603D01*
X141020963Y-123127173D01*
X141020959Y-123127181D01*
X140921098Y-123341332D01*
X140859935Y-123569599D01*
X140839341Y-123804995D01*
X140839341Y-123805004D01*
X140859935Y-124040400D01*
X140859936Y-124040407D01*
X140859937Y-124040408D01*
X140921097Y-124268663D01*
X141020965Y-124482830D01*
X141156505Y-124676401D01*
X141323599Y-124843495D01*
X141517170Y-124979035D01*
X141731337Y-125078903D01*
X141959592Y-125140063D01*
X141959596Y-125140063D01*
X141959599Y-125140064D01*
X142194996Y-125160659D01*
X142195000Y-125160659D01*
X142195003Y-125160659D01*
X142339702Y-125147999D01*
X142399319Y-125161762D01*
X142439461Y-125207939D01*
X142444794Y-125268892D01*
X142418335Y-125316626D01*
X141483458Y-126251504D01*
X141428941Y-126279281D01*
X141417160Y-126280212D01*
X141417168Y-126280359D01*
X141414514Y-126280501D01*
X141357888Y-126286587D01*
X141357886Y-126286588D01*
X141229774Y-126334372D01*
X141229773Y-126334372D01*
X141229772Y-126334373D01*
X141120315Y-126416311D01*
X141120311Y-126416315D01*
X141038373Y-126525771D01*
X140990587Y-126653887D01*
X140986115Y-126695485D01*
X140985938Y-126697144D01*
X140984500Y-126710518D01*
X140984500Y-127251478D01*
X140984501Y-127251484D01*
X140990587Y-127308111D01*
X140990587Y-127308112D01*
X140990588Y-127308114D01*
X141038372Y-127436226D01*
X141111358Y-127533725D01*
X141115833Y-127539702D01*
X141135569Y-127597616D01*
X141117494Y-127656071D01*
X141088552Y-127683290D01*
X141007269Y-127733426D01*
X140887425Y-127853270D01*
X140798454Y-127997512D01*
X140745143Y-128158396D01*
X140735000Y-128257676D01*
X140735000Y-128280999D01*
X140735001Y-128281000D01*
X142684998Y-128281000D01*
X142684999Y-128280999D01*
X142684999Y-128257677D01*
X142674857Y-128158402D01*
X142674854Y-128158390D01*
X142621545Y-127997512D01*
X142532574Y-127853270D01*
X142412732Y-127733428D01*
X142331447Y-127683291D01*
X142291846Y-127636649D01*
X142287223Y-127575639D01*
X142304167Y-127539702D01*
X142381628Y-127436226D01*
X142429412Y-127308114D01*
X142435500Y-127251485D01*
X142435499Y-126710516D01*
X142429412Y-126653886D01*
X142381628Y-126525774D01*
X142381625Y-126525771D01*
X142378234Y-126519559D01*
X142381233Y-126517921D01*
X142366052Y-126473505D01*
X142384074Y-126415034D01*
X142395031Y-126402004D01*
X144267541Y-124529496D01*
X144322058Y-124501719D01*
X144337545Y-124500500D01*
X144473291Y-124500500D01*
X144531482Y-124519407D01*
X144543295Y-124529496D01*
X144544396Y-124530597D01*
X144544399Y-124530601D01*
X144627260Y-124585966D01*
X144682808Y-124597015D01*
X144700315Y-124600498D01*
X144700320Y-124600498D01*
X144700326Y-124600500D01*
X144700327Y-124600500D01*
X146499673Y-124600500D01*
X146499674Y-124600500D01*
X146572740Y-124585966D01*
X146655601Y-124530601D01*
X146710966Y-124447740D01*
X146725500Y-124374674D01*
X146725500Y-124186611D01*
X146744407Y-124128420D01*
X146765172Y-124107357D01*
X146832185Y-124057191D01*
X146832192Y-124057184D01*
X146918352Y-123942090D01*
X146918353Y-123942088D01*
X146968596Y-123807381D01*
X146968598Y-123807370D01*
X146975000Y-123747821D01*
X146975000Y-123700001D01*
X146974999Y-123700000D01*
X146656599Y-123700000D01*
X146601598Y-123683316D01*
X146572742Y-123664035D01*
X146572740Y-123664034D01*
X146572737Y-123664033D01*
X146572736Y-123664033D01*
X146499684Y-123649501D01*
X146499674Y-123649500D01*
X144700326Y-123649500D01*
X144700325Y-123649500D01*
X144700315Y-123649501D01*
X144627263Y-123664033D01*
X144627257Y-123664035D01*
X144598402Y-123683316D01*
X144543401Y-123700000D01*
X144225001Y-123700000D01*
X144204497Y-123720504D01*
X144149980Y-123748281D01*
X144134493Y-123749500D01*
X144091564Y-123749500D01*
X144043813Y-123762295D01*
X144043812Y-123762294D01*
X143996062Y-123775089D01*
X143996058Y-123775091D01*
X143910436Y-123824525D01*
X143910437Y-123824526D01*
X143706626Y-124028337D01*
X143652109Y-124056114D01*
X143591677Y-124046543D01*
X143548412Y-124003278D01*
X143537999Y-123949704D01*
X143550659Y-123805003D01*
X143550659Y-123804995D01*
X143530064Y-123569599D01*
X143530063Y-123569596D01*
X143530063Y-123569592D01*
X143468903Y-123341337D01*
X143468901Y-123341332D01*
X143369040Y-123127181D01*
X143369036Y-123127173D01*
X143367365Y-123124787D01*
X143257796Y-122968305D01*
X143233498Y-122933603D01*
X143233497Y-122933602D01*
X143233495Y-122933599D01*
X143066401Y-122766505D01*
X143066397Y-122766502D01*
X143066396Y-122766501D01*
X142949103Y-122684372D01*
X142872830Y-122630965D01*
X142859447Y-122624724D01*
X142814700Y-122582997D01*
X142803025Y-122522936D01*
X142828883Y-122467483D01*
X142859448Y-122445275D01*
X142872830Y-122439035D01*
X143066401Y-122303495D01*
X143233495Y-122136401D01*
X143369035Y-121942830D01*
X143468903Y-121728663D01*
X143530063Y-121500408D01*
X143531939Y-121478971D01*
X143550659Y-121265004D01*
X143550659Y-121264995D01*
X143530064Y-121029599D01*
X143530063Y-121029596D01*
X143530063Y-121029592D01*
X143468903Y-120801337D01*
X143468279Y-120799999D01*
X143369040Y-120587181D01*
X143369036Y-120587173D01*
X143368425Y-120586301D01*
X143245838Y-120411226D01*
X143233498Y-120393603D01*
X143233497Y-120393602D01*
X143233495Y-120393599D01*
X143066401Y-120226505D01*
X143066397Y-120226502D01*
X143066396Y-120226501D01*
X142959007Y-120151307D01*
X142872830Y-120090965D01*
X142859447Y-120084724D01*
X142814700Y-120042997D01*
X142803025Y-119982936D01*
X142828883Y-119927483D01*
X142859448Y-119905275D01*
X142872830Y-119899035D01*
X143066401Y-119763495D01*
X143190342Y-119639553D01*
X143244857Y-119611777D01*
X143305289Y-119621348D01*
X143348553Y-119664613D01*
X143358622Y-119697624D01*
X143366259Y-119760515D01*
X143376416Y-119844165D01*
X143398039Y-119901179D01*
X143432433Y-119991870D01*
X143522168Y-120121875D01*
X143522169Y-120121876D01*
X143522170Y-120121877D01*
X143603802Y-120194195D01*
X143634820Y-120246933D01*
X143637153Y-120268297D01*
X143637153Y-120462090D01*
X143647302Y-120499964D01*
X143647302Y-120499966D01*
X143662743Y-120557591D01*
X143712173Y-120643206D01*
X143712180Y-120643217D01*
X144174524Y-121105562D01*
X144244438Y-121175475D01*
X144330058Y-121224908D01*
X144330062Y-121224910D01*
X144362356Y-121233564D01*
X144362357Y-121233564D01*
X144384250Y-121239429D01*
X144401122Y-121243950D01*
X144452436Y-121277273D01*
X144474364Y-121334394D01*
X144474500Y-121339577D01*
X144474500Y-121774679D01*
X144485641Y-121830687D01*
X144485641Y-121869313D01*
X144474500Y-121925320D01*
X144474500Y-122424679D01*
X144485641Y-122480687D01*
X144485641Y-122519313D01*
X144474500Y-122575320D01*
X144474500Y-122763387D01*
X144455593Y-122821578D01*
X144434830Y-122842640D01*
X144367812Y-122892810D01*
X144367807Y-122892815D01*
X144281647Y-123007909D01*
X144281646Y-123007911D01*
X144231403Y-123142618D01*
X144231401Y-123142629D01*
X144225000Y-123202175D01*
X144225000Y-123249999D01*
X144225001Y-123250000D01*
X144543401Y-123250000D01*
X144598401Y-123266683D01*
X144627260Y-123285966D01*
X144682808Y-123297015D01*
X144700315Y-123300498D01*
X144700320Y-123300498D01*
X144700326Y-123300500D01*
X144700327Y-123300500D01*
X146499673Y-123300500D01*
X146499674Y-123300500D01*
X146572740Y-123285966D01*
X146601598Y-123266683D01*
X146656599Y-123250000D01*
X146974999Y-123250000D01*
X146975000Y-123249999D01*
X146975000Y-123202185D01*
X146974888Y-123200100D01*
X146975000Y-123199679D01*
X146975000Y-123199521D01*
X146975042Y-123199521D01*
X146990648Y-123140979D01*
X147038149Y-123102412D01*
X147099246Y-123099131D01*
X147143750Y-123124787D01*
X149081004Y-125062041D01*
X149108781Y-125116558D01*
X149110000Y-125132045D01*
X149110000Y-127156000D01*
X149110001Y-127156000D01*
X151133955Y-127156000D01*
X151192146Y-127174907D01*
X151203959Y-127184996D01*
X151769438Y-127750475D01*
X151814804Y-127776667D01*
X151855744Y-127822136D01*
X151862140Y-127882986D01*
X151831547Y-127935974D01*
X151817420Y-127946574D01*
X151693963Y-128023016D01*
X151693961Y-128023017D01*
X151693959Y-128023019D01*
X151598871Y-128109703D01*
X151543237Y-128160420D01*
X151420328Y-128323177D01*
X151420323Y-128323186D01*
X151329421Y-128505743D01*
X151329418Y-128505750D01*
X151320016Y-128538796D01*
X151314833Y-128557011D01*
X151280722Y-128607806D01*
X151223269Y-128628850D01*
X151164420Y-128612106D01*
X151126652Y-128563968D01*
X151123985Y-128555541D01*
X151093429Y-128441504D01*
X150993605Y-128227432D01*
X150993601Y-128227424D01*
X150858113Y-128033926D01*
X150691073Y-127866886D01*
X150497577Y-127731399D01*
X150283489Y-127631569D01*
X150070000Y-127574364D01*
X150070000Y-128471988D01*
X150012993Y-128439075D01*
X149885826Y-128405000D01*
X149754174Y-128405000D01*
X149627007Y-128439075D01*
X149570000Y-128471988D01*
X149570000Y-127574364D01*
X149356505Y-127631570D01*
X149142432Y-127731394D01*
X149142424Y-127731398D01*
X148948926Y-127866886D01*
X148781886Y-128033926D01*
X148646398Y-128227424D01*
X148646394Y-128227432D01*
X148546570Y-128441505D01*
X148516014Y-128555541D01*
X148482689Y-128606856D01*
X148425568Y-128628782D01*
X148366467Y-128612946D01*
X148327962Y-128565396D01*
X148325172Y-128557028D01*
X148310582Y-128505750D01*
X148219673Y-128323179D01*
X148096764Y-128160421D01*
X147946041Y-128023019D01*
X147772637Y-127915652D01*
X147582456Y-127841976D01*
X147582455Y-127841975D01*
X147582453Y-127841975D01*
X147381976Y-127804500D01*
X147178024Y-127804500D01*
X146977546Y-127841975D01*
X146945226Y-127854496D01*
X146787363Y-127915652D01*
X146648428Y-128001677D01*
X146613959Y-128023019D01*
X146463237Y-128160420D01*
X146340328Y-128323177D01*
X146340323Y-128323186D01*
X146249421Y-128505743D01*
X146249418Y-128505750D01*
X146193603Y-128701917D01*
X146174785Y-128905000D01*
X146193603Y-129108083D01*
X146240872Y-129274216D01*
X146249419Y-129304252D01*
X146337427Y-129480998D01*
X146340327Y-129486821D01*
X146463236Y-129649579D01*
X146613959Y-129786981D01*
X146787363Y-129894348D01*
X146977544Y-129968024D01*
X147178024Y-130005500D01*
X147381976Y-130005500D01*
X147582456Y-129968024D01*
X147772637Y-129894348D01*
X147946041Y-129786981D01*
X148096764Y-129649579D01*
X148219673Y-129486821D01*
X148310582Y-129304250D01*
X148325167Y-129252987D01*
X148359275Y-129202194D01*
X148416728Y-129181149D01*
X148475577Y-129197892D01*
X148513346Y-129246029D01*
X148516014Y-129254458D01*
X148546569Y-129368489D01*
X148646399Y-129582577D01*
X148781886Y-129776073D01*
X148948926Y-129943113D01*
X149142422Y-130078600D01*
X149356509Y-130178430D01*
X149570000Y-130235634D01*
X149570000Y-129338012D01*
X149627007Y-129370925D01*
X149754174Y-129405000D01*
X149885826Y-129405000D01*
X150012993Y-129370925D01*
X150070000Y-129338012D01*
X150070000Y-130235633D01*
X150283490Y-130178430D01*
X150497577Y-130078600D01*
X150691073Y-129943113D01*
X150858113Y-129776073D01*
X150993600Y-129582577D01*
X151093430Y-129368490D01*
X151123985Y-129254458D01*
X151157309Y-129203144D01*
X151214430Y-129181217D01*
X151273531Y-129197052D01*
X151312036Y-129244602D01*
X151314829Y-129252978D01*
X151329418Y-129304249D01*
X151329419Y-129304252D01*
X151417427Y-129480998D01*
X151420327Y-129486821D01*
X151543236Y-129649579D01*
X151693959Y-129786981D01*
X151867363Y-129894348D01*
X152057544Y-129968024D01*
X152258024Y-130005500D01*
X152461976Y-130005500D01*
X152662456Y-129968024D01*
X152852637Y-129894348D01*
X153026041Y-129786981D01*
X153176764Y-129649579D01*
X153299673Y-129486821D01*
X153390582Y-129304250D01*
X153446397Y-129108083D01*
X153465215Y-128905000D01*
X153446397Y-128701917D01*
X153390582Y-128505750D01*
X153299673Y-128323179D01*
X153176764Y-128160421D01*
X153026041Y-128023019D01*
X153002868Y-128008671D01*
X152963347Y-127961963D01*
X152958828Y-127900945D01*
X152991037Y-127848924D01*
X153047673Y-127825770D01*
X153054985Y-127825500D01*
X153248455Y-127825500D01*
X153306646Y-127844407D01*
X153318459Y-127854496D01*
X153852389Y-128388426D01*
X153880166Y-128442943D01*
X153871011Y-128502548D01*
X153869420Y-128505743D01*
X153869419Y-128505747D01*
X153869418Y-128505750D01*
X153813603Y-128701917D01*
X153794785Y-128905000D01*
X153813603Y-129108083D01*
X153860872Y-129274216D01*
X153869419Y-129304252D01*
X153957427Y-129480998D01*
X153960327Y-129486821D01*
X154083236Y-129649579D01*
X154233959Y-129786981D01*
X154407363Y-129894348D01*
X154597544Y-129968024D01*
X154798024Y-130005500D01*
X155001976Y-130005500D01*
X155202456Y-129968024D01*
X155392637Y-129894348D01*
X155566041Y-129786981D01*
X155716764Y-129649579D01*
X155839673Y-129486821D01*
X155930582Y-129304250D01*
X155986397Y-129108083D01*
X156005215Y-128905000D01*
X155986397Y-128701917D01*
X155930582Y-128505750D01*
X155839673Y-128323179D01*
X155716764Y-128160421D01*
X155566041Y-128023019D01*
X155392637Y-127915652D01*
X155202456Y-127841976D01*
X155202455Y-127841975D01*
X155202453Y-127841975D01*
X155001976Y-127804500D01*
X154798024Y-127804500D01*
X154597544Y-127841975D01*
X154492256Y-127882764D01*
X154431165Y-127886154D01*
X154386490Y-127860453D01*
X153851041Y-127325004D01*
X153823264Y-127270487D01*
X153832835Y-127210055D01*
X153876100Y-127166790D01*
X153921045Y-127156000D01*
X157109999Y-127156000D01*
X157110000Y-127156000D01*
X157110000Y-126980499D01*
X157128907Y-126922308D01*
X157178407Y-126886344D01*
X157208999Y-126881499D01*
X157230484Y-126881499D01*
X157287114Y-126875412D01*
X157415226Y-126827628D01*
X157518703Y-126750166D01*
X157576616Y-126730430D01*
X157635071Y-126748504D01*
X157662291Y-126777447D01*
X157712428Y-126858732D01*
X157832270Y-126978574D01*
X157976512Y-127067545D01*
X158137396Y-127120856D01*
X158236676Y-127130999D01*
X158260000Y-127130998D01*
X158760000Y-127130998D01*
X158760001Y-127130999D01*
X158783322Y-127130999D01*
X158882597Y-127120857D01*
X158882609Y-127120854D01*
X159043487Y-127067545D01*
X159187729Y-126978574D01*
X159307574Y-126858729D01*
X159396545Y-126714487D01*
X159449856Y-126553603D01*
X159460000Y-126454323D01*
X159460000Y-126406001D01*
X159459999Y-126406000D01*
X158760001Y-126406000D01*
X158760000Y-126406001D01*
X158760000Y-127130998D01*
X158260000Y-127130998D01*
X158260000Y-126005000D01*
X158278907Y-125946809D01*
X158328407Y-125910845D01*
X158359000Y-125906000D01*
X159459998Y-125906000D01*
X159459999Y-125905999D01*
X159459999Y-125857677D01*
X159449857Y-125758402D01*
X159449854Y-125758390D01*
X159396545Y-125597512D01*
X159325587Y-125482473D01*
X159311130Y-125423020D01*
X159334380Y-125366424D01*
X159386455Y-125334303D01*
X159409847Y-125331500D01*
X161913455Y-125331500D01*
X161971646Y-125350407D01*
X161983458Y-125360495D01*
X163873437Y-127250475D01*
X163916247Y-127275190D01*
X163916249Y-127275192D01*
X163916250Y-127275192D01*
X163959058Y-127299908D01*
X163959062Y-127299910D01*
X163982378Y-127306157D01*
X163982379Y-127306158D01*
X164018472Y-127315829D01*
X164054564Y-127325500D01*
X164054565Y-127325500D01*
X164930333Y-127325500D01*
X164988524Y-127344407D01*
X165024488Y-127393907D01*
X165024488Y-127455093D01*
X165012649Y-127479501D01*
X164964035Y-127552257D01*
X164964033Y-127552263D01*
X164949501Y-127625315D01*
X164949500Y-127625327D01*
X164949500Y-128507500D01*
X164930593Y-128565691D01*
X164881093Y-128601655D01*
X164850500Y-128606500D01*
X164253256Y-128606500D01*
X164195065Y-128587593D01*
X164183252Y-128577504D01*
X162743566Y-127137818D01*
X162715789Y-127083301D01*
X162715404Y-127061988D01*
X162715278Y-127061988D01*
X162715278Y-127055998D01*
X162700214Y-126931937D01*
X162696237Y-126899182D01*
X162640220Y-126751477D01*
X162575241Y-126657338D01*
X162550484Y-126621471D01*
X162512570Y-126587882D01*
X162432240Y-126516717D01*
X162362302Y-126480010D01*
X162292364Y-126443303D01*
X162138987Y-126405500D01*
X162138985Y-126405500D01*
X161981015Y-126405500D01*
X161981012Y-126405500D01*
X161827635Y-126443303D01*
X161687758Y-126516718D01*
X161569515Y-126621471D01*
X161479780Y-126751476D01*
X161423763Y-126899182D01*
X161423762Y-126899183D01*
X161404722Y-127055998D01*
X161404722Y-127056001D01*
X161423762Y-127212816D01*
X161423763Y-127212818D01*
X161473668Y-127344407D01*
X161479780Y-127360523D01*
X161569515Y-127490528D01*
X161569516Y-127490529D01*
X161569517Y-127490530D01*
X161687760Y-127595283D01*
X161827635Y-127668696D01*
X161981015Y-127706500D01*
X162067744Y-127706500D01*
X162125935Y-127725407D01*
X162137748Y-127735496D01*
X163774737Y-129372485D01*
X163774739Y-129372486D01*
X163871759Y-129428501D01*
X163871757Y-129428501D01*
X163871761Y-129428502D01*
X163871763Y-129428503D01*
X163979982Y-129457500D01*
X164092018Y-129457500D01*
X164850500Y-129457500D01*
X164908691Y-129476407D01*
X164944655Y-129525907D01*
X164949500Y-129556500D01*
X164949500Y-130874672D01*
X164949501Y-130874684D01*
X164964033Y-130947736D01*
X164964035Y-130947742D01*
X165019397Y-131030599D01*
X165019399Y-131030601D01*
X165102260Y-131085966D01*
X165157808Y-131097015D01*
X165175315Y-131100498D01*
X165175320Y-131100498D01*
X165175326Y-131100500D01*
X165175327Y-131100500D01*
X166824673Y-131100500D01*
X166824674Y-131100500D01*
X166897740Y-131085966D01*
X166980601Y-131030601D01*
X167035966Y-130947740D01*
X167050500Y-130874674D01*
X167050500Y-129556500D01*
X167069407Y-129498309D01*
X167118907Y-129462345D01*
X167149500Y-129457500D01*
X176969016Y-129457500D01*
X176969018Y-129457500D01*
X177077237Y-129428503D01*
X177077239Y-129428501D01*
X177077241Y-129428501D01*
X177174258Y-129372488D01*
X177174258Y-129372487D01*
X177174263Y-129372485D01*
X177936374Y-128610371D01*
X177990889Y-128582595D01*
X178035114Y-128585638D01*
X178116024Y-128610183D01*
X178116026Y-128610183D01*
X178116028Y-128610184D01*
X178309997Y-128629288D01*
X178310000Y-128629288D01*
X178310003Y-128629288D01*
X178503971Y-128610184D01*
X178503976Y-128610183D01*
X178511812Y-128607806D01*
X178690498Y-128553602D01*
X178780023Y-128505750D01*
X178862394Y-128461722D01*
X178862395Y-128461720D01*
X178862397Y-128461720D01*
X179013068Y-128338068D01*
X179136720Y-128187397D01*
X179152222Y-128158396D01*
X179218752Y-128033926D01*
X179228602Y-128015498D01*
X179285183Y-127828976D01*
X179285184Y-127828971D01*
X179304288Y-127635003D01*
X179304288Y-127634996D01*
X179285184Y-127441028D01*
X179285183Y-127441023D01*
X179260494Y-127359635D01*
X179228602Y-127254502D01*
X179228599Y-127254496D01*
X179136722Y-127082605D01*
X179040738Y-126965648D01*
X179013068Y-126931932D01*
X178956667Y-126885645D01*
X178862394Y-126808277D01*
X178690503Y-126716400D01*
X178690498Y-126716398D01*
X178503976Y-126659816D01*
X178503971Y-126659815D01*
X178310003Y-126640712D01*
X178309997Y-126640712D01*
X178116028Y-126659815D01*
X178116023Y-126659816D01*
X177929501Y-126716398D01*
X177929496Y-126716400D01*
X177757605Y-126808277D01*
X177606937Y-126931927D01*
X177606927Y-126931937D01*
X177483277Y-127082605D01*
X177391400Y-127254496D01*
X177391398Y-127254501D01*
X177334816Y-127441023D01*
X177334815Y-127441028D01*
X177315712Y-127634996D01*
X177315712Y-127635003D01*
X177334815Y-127828971D01*
X177334816Y-127828976D01*
X177359359Y-127909883D01*
X177358158Y-127971057D01*
X177334626Y-128008625D01*
X176765748Y-128577504D01*
X176711231Y-128605281D01*
X176695744Y-128606500D01*
X173833782Y-128606500D01*
X173775591Y-128587593D01*
X173739627Y-128538093D01*
X173739627Y-128476907D01*
X173775591Y-128427407D01*
X173798016Y-128415186D01*
X173961446Y-128351873D01*
X174130910Y-128246945D01*
X174278209Y-128112664D01*
X174398326Y-127953604D01*
X174487171Y-127775180D01*
X174541717Y-127583469D01*
X174560108Y-127385000D01*
X174541717Y-127186531D01*
X174499152Y-127036929D01*
X174501413Y-126975788D01*
X174539182Y-126927651D01*
X174598031Y-126910907D01*
X174655484Y-126931951D01*
X174684097Y-126967999D01*
X174692893Y-126986861D01*
X174692902Y-126986877D01*
X174734770Y-127046672D01*
X175299283Y-126482159D01*
X175318052Y-126552203D01*
X175381903Y-126662797D01*
X175472203Y-126753097D01*
X175582797Y-126816948D01*
X175652837Y-126835715D01*
X175088326Y-127400227D01*
X175148135Y-127442105D01*
X175148143Y-127442109D01*
X175344614Y-127533725D01*
X175344613Y-127533725D01*
X175554035Y-127589839D01*
X175769997Y-127608733D01*
X175770003Y-127608733D01*
X175985964Y-127589839D01*
X176195386Y-127533725D01*
X176391858Y-127442108D01*
X176391868Y-127442103D01*
X176451672Y-127400227D01*
X175887160Y-126835715D01*
X175957203Y-126816948D01*
X176067797Y-126753097D01*
X176158097Y-126662797D01*
X176221948Y-126552203D01*
X176240715Y-126482161D01*
X176805227Y-127046672D01*
X176847103Y-126986868D01*
X176847108Y-126986858D01*
X176938725Y-126790386D01*
X176994839Y-126580964D01*
X177013733Y-126365003D01*
X179855712Y-126365003D01*
X179874815Y-126558971D01*
X179874816Y-126558976D01*
X179931398Y-126745498D01*
X179931400Y-126745503D01*
X180023277Y-126917394D01*
X180129373Y-127046672D01*
X180146932Y-127068068D01*
X180165494Y-127083301D01*
X180297605Y-127191722D01*
X180469496Y-127283599D01*
X180469502Y-127283602D01*
X180599442Y-127323018D01*
X180656023Y-127340183D01*
X180656028Y-127340184D01*
X180849997Y-127359288D01*
X180850000Y-127359288D01*
X180850003Y-127359288D01*
X181043971Y-127340184D01*
X181043976Y-127340183D01*
X181230498Y-127283602D01*
X181345360Y-127222207D01*
X181402394Y-127191722D01*
X181402395Y-127191720D01*
X181402397Y-127191720D01*
X181553068Y-127068068D01*
X181676720Y-126917397D01*
X181695908Y-126881500D01*
X181765406Y-126751477D01*
X181768602Y-126745498D01*
X181825183Y-126558976D01*
X181825184Y-126558971D01*
X181844288Y-126365003D01*
X181844288Y-126364993D01*
X181825184Y-126171028D01*
X181825183Y-126171023D01*
X181802075Y-126094848D01*
X181768602Y-125984502D01*
X181754100Y-125957370D01*
X181676722Y-125812605D01*
X181572576Y-125685703D01*
X181553068Y-125661932D01*
X181541997Y-125652846D01*
X181402394Y-125538277D01*
X181230503Y-125446400D01*
X181230498Y-125446398D01*
X181043976Y-125389816D01*
X181043971Y-125389815D01*
X180850003Y-125370712D01*
X180849997Y-125370712D01*
X180656028Y-125389815D01*
X180656023Y-125389816D01*
X180469501Y-125446398D01*
X180469496Y-125446400D01*
X180297605Y-125538277D01*
X180146937Y-125661927D01*
X180146927Y-125661937D01*
X180023277Y-125812605D01*
X179931400Y-125984496D01*
X179931398Y-125984501D01*
X179874816Y-126171023D01*
X179874815Y-126171028D01*
X179855712Y-126364993D01*
X179855712Y-126365003D01*
X177013733Y-126365003D01*
X177013733Y-126364993D01*
X176994839Y-126149035D01*
X176938725Y-125939614D01*
X176847109Y-125743144D01*
X176847105Y-125743136D01*
X176805226Y-125683326D01*
X176240715Y-126247836D01*
X176221948Y-126177797D01*
X176158097Y-126067203D01*
X176067797Y-125976903D01*
X175957203Y-125913052D01*
X175887159Y-125894284D01*
X176451673Y-125329770D01*
X176391877Y-125287902D01*
X176391858Y-125287890D01*
X176195385Y-125196274D01*
X176195386Y-125196274D01*
X175985964Y-125140160D01*
X175770003Y-125121267D01*
X175769997Y-125121267D01*
X175554035Y-125140160D01*
X175344614Y-125196274D01*
X175148143Y-125287890D01*
X175148129Y-125287898D01*
X175088326Y-125329772D01*
X175652838Y-125894284D01*
X175582797Y-125913052D01*
X175472203Y-125976903D01*
X175381903Y-126067203D01*
X175318052Y-126177797D01*
X175299284Y-126247838D01*
X174734771Y-125683325D01*
X174707596Y-125685703D01*
X174709453Y-125706918D01*
X174695009Y-125739363D01*
X174695057Y-125739391D01*
X174694794Y-125739846D01*
X174694090Y-125741428D01*
X174692897Y-125743130D01*
X174692890Y-125743143D01*
X174601274Y-125939614D01*
X174545160Y-126149035D01*
X174526267Y-126364993D01*
X174526267Y-126365003D01*
X174545160Y-126580965D01*
X174597685Y-126776994D01*
X174594482Y-126838095D01*
X174555977Y-126885645D01*
X174496876Y-126901480D01*
X174439755Y-126879553D01*
X174413438Y-126846746D01*
X174398326Y-126816396D01*
X174278209Y-126657336D01*
X174130910Y-126523055D01*
X173961446Y-126418127D01*
X173775586Y-126346124D01*
X173775585Y-126346123D01*
X173775583Y-126346123D01*
X173745569Y-126340513D01*
X173691843Y-126311236D01*
X173665587Y-126255970D01*
X173676830Y-126195827D01*
X173721277Y-126153778D01*
X173738137Y-126147572D01*
X173934907Y-126094848D01*
X174145029Y-125996867D01*
X174223421Y-125941975D01*
X173650233Y-125368787D01*
X173692292Y-125357518D01*
X173817708Y-125285110D01*
X173920110Y-125182708D01*
X173992518Y-125057292D01*
X174003787Y-125015233D01*
X174576976Y-125588422D01*
X174604152Y-125586044D01*
X174602296Y-125564830D01*
X174617665Y-125530312D01*
X174631866Y-125510030D01*
X174729848Y-125299907D01*
X174784751Y-125095003D01*
X177315712Y-125095003D01*
X177334815Y-125288971D01*
X177334816Y-125288976D01*
X177391398Y-125475498D01*
X177391400Y-125475503D01*
X177483277Y-125647394D01*
X177606927Y-125798062D01*
X177606932Y-125798068D01*
X177640648Y-125825738D01*
X177757605Y-125921722D01*
X177929496Y-126013599D01*
X177929502Y-126013602D01*
X178056192Y-126052033D01*
X178116023Y-126070183D01*
X178116028Y-126070184D01*
X178309997Y-126089288D01*
X178310000Y-126089288D01*
X178310003Y-126089288D01*
X178503971Y-126070184D01*
X178503976Y-126070183D01*
X178550424Y-126056093D01*
X178690498Y-126013602D01*
X178795701Y-125957370D01*
X178862394Y-125921722D01*
X178862395Y-125921720D01*
X178862397Y-125921720D01*
X179013068Y-125798068D01*
X179136720Y-125647397D01*
X179145754Y-125630497D01*
X179210145Y-125510029D01*
X179228602Y-125475498D01*
X179285183Y-125288976D01*
X179285184Y-125288971D01*
X179304288Y-125095003D01*
X179304288Y-125094996D01*
X179285184Y-124901028D01*
X179285183Y-124901023D01*
X179246223Y-124772591D01*
X179228602Y-124714502D01*
X179208234Y-124676396D01*
X179136722Y-124542605D01*
X179029634Y-124412118D01*
X179013068Y-124391932D01*
X178862864Y-124268663D01*
X178862394Y-124268277D01*
X178690503Y-124176400D01*
X178690498Y-124176398D01*
X178503976Y-124119816D01*
X178503971Y-124119815D01*
X178310003Y-124100712D01*
X178309997Y-124100712D01*
X178116028Y-124119815D01*
X178116023Y-124119816D01*
X177929501Y-124176398D01*
X177929496Y-124176400D01*
X177757605Y-124268277D01*
X177606937Y-124391927D01*
X177606927Y-124391937D01*
X177483277Y-124542605D01*
X177391400Y-124714496D01*
X177391398Y-124714501D01*
X177334816Y-124901023D01*
X177334815Y-124901028D01*
X177315712Y-125094996D01*
X177315712Y-125095003D01*
X174784751Y-125095003D01*
X174789855Y-125075955D01*
X174810061Y-124845004D01*
X174810061Y-124844995D01*
X174789855Y-124614044D01*
X174729847Y-124390087D01*
X174631872Y-124179980D01*
X174631868Y-124179972D01*
X174576976Y-124101577D01*
X174003787Y-124674766D01*
X173992518Y-124632708D01*
X173920110Y-124507292D01*
X173817708Y-124404890D01*
X173692292Y-124332482D01*
X173650231Y-124321211D01*
X174223421Y-123748022D01*
X174145029Y-123693132D01*
X173934907Y-123595151D01*
X173710955Y-123535144D01*
X173480004Y-123514939D01*
X173479996Y-123514939D01*
X173249044Y-123535144D01*
X173025087Y-123595152D01*
X172814978Y-123693127D01*
X172814965Y-123693135D01*
X172736577Y-123748022D01*
X173309767Y-124321212D01*
X173267708Y-124332482D01*
X173142292Y-124404890D01*
X173039890Y-124507292D01*
X172967482Y-124632708D01*
X172956212Y-124674767D01*
X172383022Y-124101577D01*
X172328135Y-124179965D01*
X172328127Y-124179978D01*
X172230152Y-124390087D01*
X172170144Y-124614044D01*
X172149939Y-124844995D01*
X172149939Y-124845004D01*
X172170144Y-125075955D01*
X172230151Y-125299907D01*
X172328132Y-125510029D01*
X172383022Y-125588421D01*
X172956211Y-125015231D01*
X172967482Y-125057292D01*
X173039890Y-125182708D01*
X173142292Y-125285110D01*
X173267708Y-125357518D01*
X173309766Y-125368787D01*
X172736577Y-125941976D01*
X172814967Y-125996866D01*
X173025092Y-126094848D01*
X173221862Y-126147572D01*
X173273176Y-126180896D01*
X173295103Y-126238017D01*
X173279268Y-126297118D01*
X173231718Y-126335623D01*
X173214430Y-126340513D01*
X173184416Y-126346123D01*
X172998553Y-126418127D01*
X172998548Y-126418130D01*
X172829094Y-126523052D01*
X172829092Y-126523053D01*
X172829090Y-126523055D01*
X172685573Y-126653888D01*
X172681789Y-126657338D01*
X172561680Y-126816387D01*
X172561670Y-126816403D01*
X172472829Y-126994819D01*
X172418283Y-127186529D01*
X172418283Y-127186531D01*
X172402242Y-127359636D01*
X172378047Y-127415833D01*
X172325440Y-127447076D01*
X172303665Y-127449500D01*
X171755359Y-127449500D01*
X171697168Y-127430593D01*
X171675708Y-127409293D01*
X171597150Y-127302850D01*
X171597146Y-127302847D01*
X171597144Y-127302845D01*
X171487883Y-127222207D01*
X171359703Y-127177355D01*
X171359694Y-127177353D01*
X171329274Y-127174500D01*
X171329266Y-127174500D01*
X170670734Y-127174500D01*
X170670725Y-127174500D01*
X170640305Y-127177353D01*
X170640296Y-127177355D01*
X170512116Y-127222207D01*
X170402855Y-127302845D01*
X170402845Y-127302855D01*
X170322207Y-127412116D01*
X170277355Y-127540296D01*
X170277353Y-127540305D01*
X170274500Y-127570725D01*
X170274500Y-128079274D01*
X170277353Y-128109694D01*
X170277355Y-128109703D01*
X170322207Y-128237883D01*
X170402845Y-128347144D01*
X170402847Y-128347146D01*
X170402850Y-128347150D01*
X170402853Y-128347152D01*
X170402854Y-128347153D01*
X170512188Y-128427845D01*
X170547781Y-128477612D01*
X170547323Y-128538796D01*
X170510990Y-128588026D01*
X170453400Y-128606500D01*
X167149500Y-128606500D01*
X167091309Y-128587593D01*
X167055345Y-128538093D01*
X167050500Y-128507500D01*
X167050500Y-127625327D01*
X167050498Y-127625315D01*
X167044524Y-127595283D01*
X167035966Y-127552260D01*
X167027575Y-127539702D01*
X166987351Y-127479501D01*
X166970743Y-127420612D01*
X166991921Y-127363209D01*
X167042795Y-127329217D01*
X167069667Y-127325500D01*
X168735831Y-127325500D01*
X168735832Y-127325500D01*
X168808016Y-127306158D01*
X168831334Y-127299910D01*
X168916958Y-127250475D01*
X168986871Y-127180562D01*
X169587937Y-126579496D01*
X169642454Y-126551719D01*
X169657941Y-126550500D01*
X170244641Y-126550500D01*
X170302832Y-126569407D01*
X170324291Y-126590706D01*
X170402850Y-126697150D01*
X170402853Y-126697152D01*
X170402855Y-126697154D01*
X170512116Y-126777792D01*
X170512117Y-126777792D01*
X170512118Y-126777793D01*
X170640301Y-126822646D01*
X170670725Y-126825499D01*
X170670727Y-126825500D01*
X170670734Y-126825500D01*
X171329273Y-126825500D01*
X171329273Y-126825499D01*
X171359699Y-126822646D01*
X171487882Y-126777793D01*
X171597150Y-126697150D01*
X171677793Y-126587882D01*
X171722646Y-126459699D01*
X171725499Y-126429273D01*
X171725500Y-126429273D01*
X171725500Y-125920727D01*
X171725499Y-125920725D01*
X171722646Y-125890301D01*
X171677793Y-125762118D01*
X171675704Y-125759288D01*
X171597154Y-125652855D01*
X171597152Y-125652853D01*
X171597150Y-125652850D01*
X171597143Y-125652845D01*
X171497974Y-125579655D01*
X171462381Y-125529888D01*
X171462839Y-125468704D01*
X171497974Y-125420345D01*
X171539339Y-125389816D01*
X171597150Y-125347150D01*
X171677793Y-125237882D01*
X171722646Y-125109699D01*
X171725499Y-125079273D01*
X171725500Y-125079273D01*
X171725500Y-124570727D01*
X171725499Y-124570725D01*
X171722646Y-124540305D01*
X171722646Y-124540301D01*
X171677793Y-124412118D01*
X171675704Y-124409288D01*
X171597154Y-124302855D01*
X171597152Y-124302853D01*
X171597150Y-124302850D01*
X171597146Y-124302847D01*
X171597144Y-124302845D01*
X171487883Y-124222207D01*
X171359703Y-124177355D01*
X171359694Y-124177353D01*
X171329274Y-124174500D01*
X171329266Y-124174500D01*
X170670734Y-124174500D01*
X170670725Y-124174500D01*
X170640305Y-124177353D01*
X170640296Y-124177355D01*
X170512116Y-124222207D01*
X170402855Y-124302845D01*
X170402850Y-124302850D01*
X170324294Y-124409290D01*
X170274529Y-124444881D01*
X170244641Y-124449500D01*
X170224436Y-124449500D01*
X170125564Y-124449500D01*
X170061896Y-124466559D01*
X170030062Y-124475089D01*
X169953302Y-124519407D01*
X169944437Y-124524525D01*
X169150258Y-125318705D01*
X168373459Y-126095504D01*
X168318942Y-126123281D01*
X168303455Y-126124500D01*
X167373851Y-126124500D01*
X167315660Y-126105593D01*
X167279696Y-126056093D01*
X167279696Y-125994907D01*
X167281093Y-125990904D01*
X167293596Y-125957381D01*
X167293598Y-125957370D01*
X167300000Y-125897824D01*
X167300000Y-124500001D01*
X167299999Y-124500000D01*
X164700001Y-124500000D01*
X164700000Y-124500001D01*
X164700000Y-125897824D01*
X164699999Y-125897824D01*
X164706401Y-125957370D01*
X164706403Y-125957381D01*
X164718907Y-125990904D01*
X164721527Y-126052033D01*
X164687716Y-126103028D01*
X164630388Y-126124409D01*
X164626149Y-126124500D01*
X164486942Y-126124500D01*
X164428751Y-126105593D01*
X164416938Y-126095504D01*
X162526959Y-124205526D01*
X162526959Y-124205525D01*
X162441337Y-124156091D01*
X162441330Y-124156088D01*
X162393581Y-124143294D01*
X162393580Y-124143294D01*
X162345834Y-124130500D01*
X162345832Y-124130500D01*
X162345831Y-124130500D01*
X159455688Y-124130500D01*
X159397497Y-124111593D01*
X159361533Y-124062093D01*
X159361533Y-124000907D01*
X159361953Y-123999999D01*
X164700000Y-123999999D01*
X164700001Y-124000000D01*
X165749999Y-124000000D01*
X165750000Y-123999999D01*
X166250000Y-123999999D01*
X166250001Y-124000000D01*
X167299999Y-124000000D01*
X167300000Y-123999999D01*
X167300000Y-122602175D01*
X167293598Y-122542629D01*
X167293596Y-122542618D01*
X167243353Y-122407911D01*
X167243352Y-122407909D01*
X167157192Y-122292815D01*
X167157184Y-122292807D01*
X167042090Y-122206647D01*
X167042088Y-122206646D01*
X166907381Y-122156403D01*
X166907370Y-122156401D01*
X166847824Y-122150000D01*
X166250001Y-122150000D01*
X166250000Y-122150001D01*
X166250000Y-123999999D01*
X165750000Y-123999999D01*
X165750000Y-122150001D01*
X165749999Y-122150000D01*
X165152176Y-122150000D01*
X165092629Y-122156401D01*
X165092618Y-122156403D01*
X164957911Y-122206646D01*
X164957909Y-122206647D01*
X164842815Y-122292807D01*
X164842807Y-122292815D01*
X164756647Y-122407909D01*
X164756646Y-122407911D01*
X164706403Y-122542618D01*
X164706401Y-122542629D01*
X164700000Y-122602175D01*
X164700000Y-123999999D01*
X159361953Y-123999999D01*
X159371428Y-123979527D01*
X159411545Y-123914487D01*
X159464856Y-123753603D01*
X159475000Y-123654323D01*
X159475000Y-123606001D01*
X159474999Y-123606000D01*
X158374000Y-123606000D01*
X158315809Y-123587093D01*
X158279845Y-123537593D01*
X158275000Y-123507000D01*
X158275000Y-123105999D01*
X158775000Y-123105999D01*
X158775001Y-123106000D01*
X159474998Y-123106000D01*
X159474999Y-123105999D01*
X159474999Y-123057677D01*
X159464857Y-122958402D01*
X159464854Y-122958390D01*
X159411545Y-122797512D01*
X159322574Y-122653270D01*
X159270308Y-122601004D01*
X159242531Y-122546487D01*
X159252102Y-122486055D01*
X159270308Y-122460996D01*
X159322573Y-122408730D01*
X159322574Y-122408729D01*
X159411545Y-122264487D01*
X159416344Y-122250003D01*
X160245362Y-122250003D01*
X160264664Y-122445990D01*
X160264665Y-122445992D01*
X160321837Y-122634461D01*
X160321838Y-122634463D01*
X160414669Y-122808139D01*
X160414672Y-122808144D01*
X160414674Y-122808147D01*
X160466774Y-122871631D01*
X160539609Y-122960381D01*
X160539618Y-122960390D01*
X160597523Y-123007911D01*
X160691853Y-123085326D01*
X160691858Y-123085328D01*
X160691860Y-123085330D01*
X160865536Y-123178161D01*
X160865542Y-123178164D01*
X161054005Y-123235334D01*
X161054007Y-123235334D01*
X161054009Y-123235335D01*
X161249997Y-123254638D01*
X161250000Y-123254638D01*
X161250003Y-123254638D01*
X161445990Y-123235335D01*
X161445991Y-123235334D01*
X161445995Y-123235334D01*
X161634458Y-123178164D01*
X161808147Y-123085326D01*
X161960386Y-122960386D01*
X162085326Y-122808147D01*
X162178164Y-122634458D01*
X162235334Y-122445995D01*
X162235334Y-122445991D01*
X162235335Y-122445990D01*
X162254638Y-122250003D01*
X162254638Y-122249996D01*
X162235335Y-122054009D01*
X162235334Y-122054007D01*
X162235334Y-122054005D01*
X162178164Y-121865542D01*
X162177679Y-121864634D01*
X162085330Y-121691860D01*
X162085328Y-121691858D01*
X162085326Y-121691853D01*
X161973834Y-121556000D01*
X161960390Y-121539618D01*
X161960381Y-121539609D01*
X161871631Y-121466774D01*
X161808147Y-121414674D01*
X161808144Y-121414672D01*
X161808139Y-121414669D01*
X161634463Y-121321838D01*
X161634461Y-121321837D01*
X161622804Y-121318301D01*
X161497830Y-121280390D01*
X161445992Y-121264665D01*
X161445990Y-121264664D01*
X161250003Y-121245362D01*
X161249997Y-121245362D01*
X161054009Y-121264664D01*
X161054007Y-121264665D01*
X160865538Y-121321837D01*
X160865536Y-121321838D01*
X160691860Y-121414669D01*
X160691854Y-121414673D01*
X160539618Y-121539609D01*
X160539609Y-121539618D01*
X160414673Y-121691854D01*
X160414669Y-121691860D01*
X160321838Y-121865536D01*
X160321837Y-121865538D01*
X160264665Y-122054007D01*
X160264664Y-122054009D01*
X160245362Y-122249996D01*
X160245362Y-122250003D01*
X159416344Y-122250003D01*
X159464856Y-122103603D01*
X159475000Y-122004323D01*
X159475000Y-121956001D01*
X159474999Y-121956000D01*
X158775001Y-121956000D01*
X158775000Y-121956001D01*
X158775000Y-123105999D01*
X158275000Y-123105999D01*
X158275000Y-121455999D01*
X158775000Y-121455999D01*
X158775001Y-121456000D01*
X159474998Y-121456000D01*
X159474999Y-121455999D01*
X159474999Y-121407677D01*
X159464857Y-121308402D01*
X159464854Y-121308390D01*
X159411545Y-121147512D01*
X159322574Y-121003270D01*
X159270308Y-120951004D01*
X159242531Y-120896487D01*
X159252102Y-120836055D01*
X159270308Y-120810996D01*
X159322573Y-120758730D01*
X159322574Y-120758729D01*
X159411545Y-120614487D01*
X159464856Y-120453603D01*
X159475000Y-120354323D01*
X159475000Y-120306001D01*
X159474999Y-120306000D01*
X158775001Y-120306000D01*
X158775000Y-120306001D01*
X158775000Y-121455999D01*
X158275000Y-121455999D01*
X158275000Y-119805999D01*
X158775000Y-119805999D01*
X158775001Y-119806000D01*
X159474998Y-119806000D01*
X159474999Y-119805999D01*
X159474999Y-119757677D01*
X159464857Y-119658402D01*
X159464854Y-119658390D01*
X159411545Y-119497512D01*
X159322574Y-119353270D01*
X159270308Y-119301004D01*
X159242531Y-119246487D01*
X159252102Y-119186055D01*
X159270308Y-119160996D01*
X159322573Y-119108730D01*
X159322574Y-119108729D01*
X159411545Y-118964487D01*
X159464856Y-118803603D01*
X159475000Y-118704323D01*
X159475000Y-118656001D01*
X159474999Y-118656000D01*
X158775001Y-118656000D01*
X158775000Y-118656001D01*
X158775000Y-119805999D01*
X158275000Y-119805999D01*
X158275000Y-117760527D01*
X158261219Y-117733480D01*
X158260000Y-117717993D01*
X158260000Y-117401472D01*
X158760000Y-117401472D01*
X158773781Y-117428520D01*
X158775000Y-117444007D01*
X158775000Y-118155999D01*
X158775001Y-118156000D01*
X159474998Y-118156000D01*
X159474999Y-118155999D01*
X159474999Y-118107677D01*
X159464857Y-118008402D01*
X159464854Y-118008390D01*
X159411545Y-117847512D01*
X159322574Y-117703270D01*
X159262808Y-117643504D01*
X159235031Y-117588987D01*
X159244602Y-117528555D01*
X159262809Y-117503496D01*
X159307570Y-117458735D01*
X159307573Y-117458731D01*
X159396545Y-117314487D01*
X159449856Y-117153603D01*
X159460000Y-117054323D01*
X159460000Y-117006001D01*
X159459999Y-117006000D01*
X158760001Y-117006000D01*
X158760000Y-117006001D01*
X158760000Y-117401472D01*
X158260000Y-117401472D01*
X158260000Y-116605000D01*
X158278907Y-116546809D01*
X158328407Y-116510845D01*
X158359000Y-116506000D01*
X159459998Y-116506000D01*
X159459999Y-116505999D01*
X159459999Y-116457677D01*
X159449857Y-116358402D01*
X159449854Y-116358390D01*
X159417795Y-116261640D01*
X159417439Y-116200456D01*
X159453114Y-116150747D01*
X159511194Y-116131502D01*
X159511770Y-116131500D01*
X160676735Y-116131500D01*
X160734926Y-116150407D01*
X160770890Y-116199907D01*
X160770890Y-116261093D01*
X160734926Y-116310593D01*
X160723410Y-116317806D01*
X160697791Y-116331500D01*
X160691853Y-116334674D01*
X160539618Y-116459609D01*
X160539609Y-116459618D01*
X160414673Y-116611854D01*
X160414669Y-116611860D01*
X160321838Y-116785536D01*
X160321837Y-116785538D01*
X160264665Y-116974007D01*
X160264664Y-116974009D01*
X160245362Y-117169996D01*
X160245362Y-117170003D01*
X160264664Y-117365990D01*
X160264665Y-117365992D01*
X160268767Y-117379515D01*
X160318452Y-117543304D01*
X160321837Y-117554461D01*
X160321838Y-117554463D01*
X160414669Y-117728139D01*
X160414672Y-117728144D01*
X160414674Y-117728147D01*
X160448870Y-117769815D01*
X160539609Y-117880381D01*
X160539618Y-117880390D01*
X160589989Y-117921728D01*
X160691853Y-118005326D01*
X160691858Y-118005328D01*
X160691860Y-118005330D01*
X160865536Y-118098161D01*
X160865542Y-118098164D01*
X161054005Y-118155334D01*
X161054007Y-118155334D01*
X161054009Y-118155335D01*
X161249997Y-118174638D01*
X161250000Y-118174638D01*
X161250003Y-118174638D01*
X161445990Y-118155335D01*
X161445990Y-118155334D01*
X161445995Y-118155334D01*
X161587396Y-118112440D01*
X161648567Y-118113641D01*
X161686136Y-118137173D01*
X162063802Y-118514839D01*
X162091579Y-118569356D01*
X162082008Y-118629788D01*
X162038743Y-118673053D01*
X161978311Y-118682624D01*
X161937014Y-118665939D01*
X161877034Y-118623941D01*
X161678916Y-118531558D01*
X161467759Y-118474978D01*
X161250003Y-118455928D01*
X161249997Y-118455928D01*
X161032240Y-118474978D01*
X160821078Y-118531559D01*
X160622972Y-118623937D01*
X160622955Y-118623947D01*
X160560931Y-118667376D01*
X160560930Y-118667377D01*
X161124427Y-119230874D01*
X161058821Y-119248454D01*
X160945879Y-119313661D01*
X160853661Y-119405879D01*
X160788454Y-119518821D01*
X160770874Y-119584429D01*
X160207376Y-119020931D01*
X160163947Y-119082955D01*
X160163937Y-119082972D01*
X160071559Y-119281078D01*
X160014978Y-119492240D01*
X159995928Y-119709996D01*
X159995928Y-119710003D01*
X160014978Y-119927759D01*
X160071558Y-120138916D01*
X160163941Y-120337034D01*
X160207376Y-120399067D01*
X160770873Y-119835569D01*
X160788454Y-119901179D01*
X160853661Y-120014121D01*
X160945879Y-120106339D01*
X161058821Y-120171546D01*
X161124427Y-120189125D01*
X160560931Y-120752622D01*
X160622965Y-120796058D01*
X160821083Y-120888441D01*
X161032240Y-120945021D01*
X161249997Y-120964072D01*
X161250003Y-120964072D01*
X161467759Y-120945021D01*
X161678916Y-120888441D01*
X161877034Y-120796058D01*
X161939067Y-120752622D01*
X161375570Y-120189125D01*
X161441179Y-120171546D01*
X161554121Y-120106339D01*
X161646339Y-120014121D01*
X161711546Y-119901179D01*
X161729125Y-119835571D01*
X162292622Y-120399067D01*
X162336058Y-120337034D01*
X162428441Y-120138916D01*
X162485021Y-119927759D01*
X162504072Y-119710003D01*
X162504072Y-119709996D01*
X162485021Y-119492240D01*
X162428441Y-119281083D01*
X162336058Y-119082965D01*
X162294060Y-119022985D01*
X162276171Y-118964473D01*
X162296091Y-118906621D01*
X162346211Y-118871527D01*
X162407387Y-118872595D01*
X162445160Y-118896197D01*
X163108004Y-119559041D01*
X163135781Y-119613558D01*
X163137000Y-119629045D01*
X163137000Y-120324672D01*
X163137001Y-120324684D01*
X163151533Y-120397736D01*
X163151535Y-120397742D01*
X163206897Y-120480599D01*
X163206900Y-120480602D01*
X163266888Y-120520684D01*
X163289760Y-120535966D01*
X163345308Y-120547015D01*
X163362815Y-120550498D01*
X163362820Y-120550498D01*
X163362826Y-120550500D01*
X163362827Y-120550500D01*
X165912173Y-120550500D01*
X165912174Y-120550500D01*
X165985240Y-120535966D01*
X166068101Y-120480601D01*
X166123466Y-120397740D01*
X166133395Y-120347824D01*
X166387499Y-120347824D01*
X166393901Y-120407370D01*
X166393903Y-120407381D01*
X166444146Y-120542088D01*
X166444147Y-120542090D01*
X166530307Y-120657184D01*
X166530315Y-120657192D01*
X166645409Y-120743352D01*
X166645411Y-120743353D01*
X166780118Y-120793596D01*
X166780129Y-120793598D01*
X166839676Y-120800000D01*
X167887499Y-120800000D01*
X167887500Y-120799999D01*
X168387500Y-120799999D01*
X168387501Y-120800000D01*
X169435324Y-120800000D01*
X169494870Y-120793598D01*
X169494881Y-120793596D01*
X169629588Y-120743353D01*
X169629590Y-120743352D01*
X169744684Y-120657192D01*
X169744692Y-120657184D01*
X169830852Y-120542090D01*
X169830853Y-120542088D01*
X169881096Y-120407381D01*
X169881098Y-120407370D01*
X169887500Y-120347824D01*
X169887500Y-119750001D01*
X169887499Y-119750000D01*
X168387501Y-119750000D01*
X168387500Y-119750001D01*
X168387500Y-120799999D01*
X167887500Y-120799999D01*
X167887500Y-119750001D01*
X167887499Y-119750000D01*
X166387501Y-119750000D01*
X166387500Y-119750001D01*
X166387500Y-120347824D01*
X166387499Y-120347824D01*
X166133395Y-120347824D01*
X166138000Y-120324674D01*
X166138000Y-118675326D01*
X166137999Y-118675320D01*
X166137999Y-118675318D01*
X166127780Y-118623947D01*
X166124301Y-118606458D01*
X166131491Y-118545700D01*
X166151391Y-118517144D01*
X166261256Y-118407279D01*
X166315771Y-118379504D01*
X166376203Y-118389075D01*
X166419468Y-118432340D01*
X166429039Y-118492772D01*
X166424017Y-118511880D01*
X166393902Y-118592623D01*
X166393901Y-118592629D01*
X166387500Y-118652175D01*
X166387500Y-119249999D01*
X166387501Y-119250000D01*
X169887499Y-119250000D01*
X169887500Y-119249999D01*
X169887500Y-118652175D01*
X169881098Y-118592629D01*
X169881096Y-118592618D01*
X169828379Y-118451276D01*
X169829691Y-118450786D01*
X169819828Y-118398269D01*
X169846038Y-118342981D01*
X169899739Y-118313658D01*
X169952606Y-118318198D01*
X170022886Y-118344412D01*
X170079515Y-118350500D01*
X170920484Y-118350499D01*
X170977114Y-118344412D01*
X171105226Y-118296628D01*
X171214687Y-118214687D01*
X171296628Y-118105226D01*
X171344412Y-117977114D01*
X171350500Y-117920485D01*
X171350499Y-117379516D01*
X171344412Y-117322886D01*
X171296628Y-117194774D01*
X171214687Y-117085313D01*
X171154825Y-117040501D01*
X171105228Y-117003373D01*
X171105226Y-117003372D01*
X170977114Y-116955588D01*
X170977113Y-116955587D01*
X170938895Y-116951479D01*
X170920485Y-116949500D01*
X170920481Y-116949500D01*
X170079521Y-116949500D01*
X170079515Y-116949501D01*
X170022888Y-116955587D01*
X170022886Y-116955588D01*
X169894774Y-117003372D01*
X169894773Y-117003372D01*
X169894772Y-117003373D01*
X169785315Y-117085311D01*
X169785311Y-117085315D01*
X169703373Y-117194771D01*
X169703371Y-117194775D01*
X169697657Y-117210097D01*
X169659606Y-117258012D01*
X169604899Y-117274500D01*
X168196456Y-117274500D01*
X168138265Y-117255593D01*
X168102301Y-117206093D01*
X168102301Y-117144907D01*
X168138265Y-117095407D01*
X168153511Y-117086299D01*
X168248739Y-117040458D01*
X168357195Y-116953988D01*
X168443688Y-116845550D01*
X168503878Y-116720583D01*
X168534748Y-116585354D01*
X168534748Y-116576966D01*
X168534749Y-116576957D01*
X168534749Y-116230500D01*
X168553656Y-116172309D01*
X168603156Y-116136345D01*
X168633749Y-116131500D01*
X172070202Y-116131500D01*
X172128393Y-116150407D01*
X172164357Y-116199907D01*
X172168825Y-116239128D01*
X172149939Y-116454995D01*
X172149939Y-116455004D01*
X172170144Y-116685955D01*
X172230151Y-116909907D01*
X172328132Y-117120029D01*
X172383023Y-117198421D01*
X172956212Y-116625233D01*
X172967482Y-116667292D01*
X173039890Y-116792708D01*
X173142292Y-116895110D01*
X173267708Y-116967518D01*
X173309766Y-116978787D01*
X172736577Y-117551976D01*
X172814967Y-117606866D01*
X173025092Y-117704848D01*
X173221862Y-117757572D01*
X173273176Y-117790896D01*
X173295103Y-117848017D01*
X173279268Y-117907118D01*
X173231718Y-117945623D01*
X173214430Y-117950513D01*
X173184416Y-117956123D01*
X172998553Y-118028127D01*
X172998548Y-118028130D01*
X172829094Y-118133052D01*
X172829092Y-118133053D01*
X172829090Y-118133055D01*
X172688377Y-118261332D01*
X172681789Y-118267338D01*
X172561680Y-118426387D01*
X172561670Y-118426403D01*
X172472829Y-118604819D01*
X172418283Y-118796529D01*
X172399892Y-118995000D01*
X172418283Y-119193470D01*
X172472828Y-119385178D01*
X172473526Y-119386978D01*
X172473570Y-119387786D01*
X172474082Y-119389583D01*
X172473676Y-119389698D01*
X172476916Y-119448069D01*
X172451215Y-119492745D01*
X170769438Y-121174525D01*
X170769437Y-121174524D01*
X170699524Y-121244438D01*
X170650091Y-121330058D01*
X170650090Y-121330060D01*
X170642753Y-121357438D01*
X170642754Y-121357439D01*
X170637903Y-121375545D01*
X170628533Y-121410515D01*
X170624500Y-121425565D01*
X170624500Y-121425566D01*
X170624500Y-122462638D01*
X170605593Y-122520829D01*
X170558198Y-122556082D01*
X170512120Y-122572205D01*
X170512114Y-122572208D01*
X170402855Y-122652845D01*
X170402845Y-122652855D01*
X170322207Y-122762116D01*
X170277355Y-122890296D01*
X170277353Y-122890305D01*
X170274500Y-122920725D01*
X170274500Y-123429274D01*
X170277353Y-123459694D01*
X170277355Y-123459703D01*
X170322207Y-123587883D01*
X170402845Y-123697144D01*
X170402847Y-123697146D01*
X170402850Y-123697150D01*
X170402853Y-123697152D01*
X170402855Y-123697154D01*
X170512116Y-123777792D01*
X170512117Y-123777792D01*
X170512118Y-123777793D01*
X170640301Y-123822646D01*
X170670725Y-123825499D01*
X170670727Y-123825500D01*
X170670734Y-123825500D01*
X171329273Y-123825500D01*
X171329273Y-123825499D01*
X171359699Y-123822646D01*
X171487882Y-123777793D01*
X171597150Y-123697150D01*
X171677793Y-123587882D01*
X171722646Y-123459699D01*
X171725499Y-123429273D01*
X171725500Y-123429273D01*
X171725500Y-122920727D01*
X171725499Y-122920725D01*
X171722646Y-122890301D01*
X171677793Y-122762118D01*
X171667205Y-122747772D01*
X171597154Y-122652855D01*
X171597152Y-122652853D01*
X171597150Y-122652850D01*
X171597146Y-122652847D01*
X171597144Y-122652845D01*
X171487885Y-122572208D01*
X171487879Y-122572205D01*
X171441802Y-122556082D01*
X171393121Y-122519016D01*
X171375500Y-122462638D01*
X171375500Y-121671544D01*
X171394407Y-121613353D01*
X171404490Y-121601546D01*
X172985815Y-120020220D01*
X173040330Y-119992445D01*
X173091578Y-119997910D01*
X173184414Y-120033876D01*
X173380340Y-120070500D01*
X173579660Y-120070500D01*
X173775586Y-120033876D01*
X173961446Y-119961873D01*
X174130910Y-119856945D01*
X174278209Y-119722664D01*
X174398326Y-119563604D01*
X174487171Y-119385180D01*
X174541717Y-119193469D01*
X174560108Y-118995000D01*
X174541717Y-118796531D01*
X174487171Y-118604820D01*
X174398326Y-118426396D01*
X174278209Y-118267336D01*
X174130910Y-118133055D01*
X174003048Y-118053886D01*
X173961451Y-118028130D01*
X173961446Y-118028127D01*
X173910499Y-118008390D01*
X173775586Y-117956124D01*
X173775585Y-117956123D01*
X173775583Y-117956123D01*
X173745569Y-117950513D01*
X173691843Y-117921236D01*
X173665587Y-117865970D01*
X173676830Y-117805827D01*
X173721277Y-117763778D01*
X173738137Y-117757572D01*
X173934907Y-117704848D01*
X174145029Y-117606867D01*
X174223421Y-117551975D01*
X173650233Y-116978787D01*
X173692292Y-116967518D01*
X173817708Y-116895110D01*
X173920110Y-116792708D01*
X173992518Y-116667292D01*
X174003787Y-116625233D01*
X174576975Y-117198421D01*
X174631867Y-117120029D01*
X174729848Y-116909907D01*
X174789855Y-116685955D01*
X174810061Y-116455004D01*
X174810061Y-116454997D01*
X174798518Y-116323068D01*
X174812281Y-116263451D01*
X174858458Y-116223309D01*
X174919411Y-116217976D01*
X174958869Y-116237040D01*
X174963113Y-116240425D01*
X174963115Y-116240426D01*
X174963120Y-116240430D01*
X175088069Y-116300617D01*
X175223278Y-116331492D01*
X175236599Y-116331493D01*
X175236697Y-116331500D01*
X175292623Y-116331500D01*
X175346612Y-116331506D01*
X175346614Y-116331505D01*
X175353781Y-116331506D01*
X175353878Y-116331500D01*
X175468660Y-116331500D01*
X175469011Y-116331476D01*
X175481858Y-116331477D01*
X175481973Y-116331478D01*
X175481973Y-116331477D01*
X175481975Y-116331478D01*
X175617206Y-116300627D01*
X175742179Y-116240457D01*
X175850629Y-116153984D01*
X175875279Y-116123077D01*
X175926343Y-116089373D01*
X175987466Y-116092120D01*
X176030081Y-116123084D01*
X176054694Y-116153951D01*
X176163120Y-116240430D01*
X176288069Y-116300617D01*
X176423278Y-116331492D01*
X176436599Y-116331493D01*
X176436697Y-116331500D01*
X176492623Y-116331500D01*
X176546612Y-116331506D01*
X176546614Y-116331505D01*
X176553781Y-116331506D01*
X176553878Y-116331500D01*
X176668660Y-116331500D01*
X176669011Y-116331476D01*
X176681858Y-116331477D01*
X176681973Y-116331478D01*
X176681973Y-116331477D01*
X176681975Y-116331478D01*
X176817206Y-116300627D01*
X176942179Y-116240457D01*
X177050629Y-116153984D01*
X177075279Y-116123077D01*
X177126343Y-116089373D01*
X177187466Y-116092120D01*
X177230081Y-116123084D01*
X177254694Y-116153951D01*
X177363120Y-116240430D01*
X177488069Y-116300617D01*
X177623278Y-116331492D01*
X177636599Y-116331493D01*
X177636697Y-116331500D01*
X177692623Y-116331500D01*
X177746612Y-116331506D01*
X177746614Y-116331505D01*
X177753781Y-116331506D01*
X177753878Y-116331500D01*
X177868660Y-116331500D01*
X177869011Y-116331476D01*
X177881858Y-116331477D01*
X177881973Y-116331478D01*
X177881973Y-116331477D01*
X177881975Y-116331478D01*
X178017206Y-116300627D01*
X178142179Y-116240457D01*
X178250629Y-116153984D01*
X178337116Y-116045545D01*
X178397302Y-115920579D01*
X178428169Y-115785352D01*
X178428169Y-115776966D01*
X178428170Y-115776957D01*
X178428170Y-115430500D01*
X178447077Y-115372309D01*
X178496577Y-115336345D01*
X178527170Y-115331500D01*
X179404455Y-115331500D01*
X179462646Y-115350407D01*
X179474459Y-115360496D01*
X179831504Y-115717541D01*
X179859281Y-115772058D01*
X179860500Y-115787545D01*
X179860500Y-116968672D01*
X179860501Y-116968684D01*
X179875033Y-117041736D01*
X179875035Y-117041742D01*
X179930397Y-117124599D01*
X179930400Y-117124602D01*
X179998349Y-117170003D01*
X180013260Y-117179966D01*
X180066368Y-117190530D01*
X180086315Y-117194498D01*
X180086320Y-117194498D01*
X180086326Y-117194500D01*
X181176455Y-117194500D01*
X181234646Y-117213407D01*
X181246459Y-117223496D01*
X184624170Y-120601207D01*
X184651947Y-120655724D01*
X184653166Y-120671211D01*
X184653166Y-120890638D01*
X184634259Y-120948829D01*
X184586864Y-120984082D01*
X184540786Y-121000205D01*
X184540780Y-121000208D01*
X184431521Y-121080845D01*
X184431511Y-121080855D01*
X184350873Y-121190116D01*
X184306021Y-121318295D01*
X184305053Y-121322730D01*
X184274164Y-121375545D01*
X184218129Y-121400118D01*
X184158353Y-121387062D01*
X184117668Y-121341364D01*
X184111613Y-121322730D01*
X184110646Y-121318305D01*
X184110646Y-121318301D01*
X184065793Y-121190118D01*
X184063704Y-121187288D01*
X183985154Y-121080855D01*
X183985152Y-121080853D01*
X183985150Y-121080850D01*
X183985146Y-121080847D01*
X183985144Y-121080845D01*
X183875883Y-121000207D01*
X183747703Y-120955355D01*
X183747694Y-120955353D01*
X183717274Y-120952500D01*
X183717266Y-120952500D01*
X183629545Y-120952500D01*
X183571354Y-120933593D01*
X183559541Y-120923504D01*
X181808915Y-119172878D01*
X181781138Y-119118361D01*
X181784181Y-119074138D01*
X181825183Y-118938976D01*
X181825183Y-118938972D01*
X181825184Y-118938971D01*
X181844288Y-118745003D01*
X181844288Y-118744996D01*
X181825184Y-118551028D01*
X181825183Y-118551023D01*
X181796336Y-118455928D01*
X181768602Y-118364502D01*
X181761118Y-118350500D01*
X181676722Y-118192605D01*
X181562878Y-118053886D01*
X181553068Y-118041932D01*
X181536250Y-118028130D01*
X181402394Y-117918277D01*
X181230503Y-117826400D01*
X181230498Y-117826398D01*
X181043976Y-117769816D01*
X181043971Y-117769815D01*
X180850003Y-117750712D01*
X180849997Y-117750712D01*
X180656028Y-117769815D01*
X180656023Y-117769816D01*
X180469501Y-117826398D01*
X180469496Y-117826400D01*
X180297605Y-117918277D01*
X180146937Y-118041927D01*
X180146927Y-118041937D01*
X180023277Y-118192605D01*
X179931400Y-118364496D01*
X179931398Y-118364501D01*
X179874816Y-118551023D01*
X179874815Y-118551028D01*
X179855712Y-118744996D01*
X179855712Y-118745004D01*
X179875096Y-118941825D01*
X179861983Y-119001589D01*
X179816247Y-119042231D01*
X179755356Y-119048228D01*
X179706569Y-119021532D01*
X179007938Y-118322901D01*
X178980161Y-118268384D01*
X178989732Y-118207952D01*
X179010399Y-118182267D01*
X179009634Y-118181502D01*
X179013062Y-118178072D01*
X179013068Y-118178068D01*
X179136720Y-118027397D01*
X179146880Y-118008390D01*
X179195046Y-117918277D01*
X179228602Y-117855498D01*
X179285183Y-117668976D01*
X179285184Y-117668971D01*
X179304288Y-117475003D01*
X179304288Y-117474996D01*
X179285184Y-117281028D01*
X179285183Y-117281023D01*
X179267732Y-117223496D01*
X179228602Y-117094502D01*
X179224217Y-117086298D01*
X179136722Y-116922605D01*
X179013072Y-116771937D01*
X179013068Y-116771932D01*
X178968066Y-116735000D01*
X178862394Y-116648277D01*
X178690503Y-116556400D01*
X178690498Y-116556398D01*
X178503976Y-116499816D01*
X178503971Y-116499815D01*
X178310003Y-116480712D01*
X178309997Y-116480712D01*
X178116028Y-116499815D01*
X178116023Y-116499816D01*
X177929501Y-116556398D01*
X177929496Y-116556400D01*
X177757605Y-116648277D01*
X177606937Y-116771927D01*
X177606927Y-116771937D01*
X177483277Y-116922605D01*
X177391400Y-117094496D01*
X177391398Y-117094501D01*
X177334816Y-117281023D01*
X177334815Y-117281028D01*
X177315712Y-117474996D01*
X177315712Y-117475003D01*
X177334815Y-117668971D01*
X177334816Y-117668976D01*
X177391398Y-117855498D01*
X177391400Y-117855503D01*
X177483277Y-118027394D01*
X177588821Y-118156000D01*
X177606932Y-118178068D01*
X177630511Y-118197419D01*
X177757605Y-118301722D01*
X177929496Y-118393599D01*
X177929502Y-118393602D01*
X178030744Y-118424313D01*
X178072008Y-118449045D01*
X178484481Y-118861518D01*
X178512258Y-118916035D01*
X178502687Y-118976467D01*
X178459422Y-119019732D01*
X178404774Y-119030045D01*
X178310005Y-119020712D01*
X178309997Y-119020712D01*
X178116028Y-119039815D01*
X178116023Y-119039816D01*
X177929501Y-119096398D01*
X177929496Y-119096400D01*
X177757605Y-119188277D01*
X177606937Y-119311927D01*
X177606927Y-119311937D01*
X177483277Y-119462605D01*
X177391400Y-119634496D01*
X177391398Y-119634501D01*
X177334816Y-119821023D01*
X177334815Y-119821028D01*
X177315712Y-120014996D01*
X177315712Y-120015003D01*
X177334815Y-120208971D01*
X177334816Y-120208976D01*
X177391398Y-120395498D01*
X177391400Y-120395503D01*
X177483277Y-120567394D01*
X177602889Y-120713142D01*
X177606932Y-120718068D01*
X177637741Y-120743352D01*
X177757605Y-120841722D01*
X177929485Y-120933593D01*
X177929502Y-120933602D01*
X177952009Y-120940429D01*
X178002205Y-120975413D01*
X178008997Y-120985648D01*
X178009524Y-120986561D01*
X182209525Y-125186562D01*
X182209524Y-125186562D01*
X182279438Y-125256475D01*
X182365058Y-125305908D01*
X182365062Y-125305910D01*
X182412812Y-125318705D01*
X182412813Y-125318705D01*
X182460564Y-125331500D01*
X182460565Y-125331500D01*
X190256436Y-125331500D01*
X190304186Y-125318705D01*
X190304187Y-125318705D01*
X190351934Y-125305911D01*
X190351933Y-125305911D01*
X190351938Y-125305910D01*
X190437562Y-125256475D01*
X190507475Y-125186562D01*
X190507474Y-125186562D01*
X191761542Y-123932496D01*
X191816059Y-123904719D01*
X191831546Y-123903500D01*
X192239273Y-123903500D01*
X192239273Y-123903499D01*
X192269699Y-123900646D01*
X192397882Y-123855793D01*
X192507150Y-123775150D01*
X192587793Y-123665882D01*
X192632646Y-123537699D01*
X192635499Y-123507273D01*
X192635500Y-123507273D01*
X192635500Y-122998727D01*
X192635499Y-122998725D01*
X192634549Y-122988594D01*
X192632646Y-122968301D01*
X192587793Y-122840118D01*
X192585704Y-122837288D01*
X192507154Y-122730855D01*
X192507152Y-122730853D01*
X192507150Y-122730850D01*
X192507146Y-122730847D01*
X192507144Y-122730845D01*
X192397883Y-122650207D01*
X192269703Y-122605355D01*
X192269694Y-122605353D01*
X192239274Y-122602500D01*
X192239266Y-122602500D01*
X191580734Y-122602500D01*
X191580725Y-122602500D01*
X191550305Y-122605353D01*
X191550296Y-122605355D01*
X191422116Y-122650207D01*
X191312855Y-122730845D01*
X191312845Y-122730855D01*
X191232207Y-122840116D01*
X191203444Y-122922317D01*
X191166379Y-122970997D01*
X191107778Y-122988594D01*
X191050027Y-122968386D01*
X191016556Y-122922317D01*
X190987792Y-122840116D01*
X190907154Y-122730855D01*
X190907152Y-122730853D01*
X190907150Y-122730850D01*
X190907146Y-122730847D01*
X190907144Y-122730845D01*
X190797883Y-122650207D01*
X190669703Y-122605355D01*
X190669694Y-122605353D01*
X190639274Y-122602500D01*
X190639266Y-122602500D01*
X189980734Y-122602500D01*
X189980725Y-122602500D01*
X189950305Y-122605353D01*
X189950296Y-122605355D01*
X189822116Y-122650207D01*
X189712855Y-122730845D01*
X189712845Y-122730855D01*
X189632207Y-122840116D01*
X189587355Y-122968296D01*
X189587353Y-122968305D01*
X189584500Y-122998725D01*
X189584500Y-123507274D01*
X189587353Y-123537694D01*
X189587355Y-123537703D01*
X189632206Y-123665881D01*
X189713880Y-123776546D01*
X189733221Y-123834594D01*
X189714749Y-123892925D01*
X189704228Y-123905337D01*
X189508064Y-124101503D01*
X189453548Y-124129281D01*
X189438060Y-124130500D01*
X182956545Y-124130500D01*
X182898354Y-124111593D01*
X182886541Y-124101504D01*
X182807971Y-124022934D01*
X182780194Y-123968417D01*
X182789765Y-123907985D01*
X182833030Y-123864720D01*
X182893462Y-123855149D01*
X182910669Y-123859485D01*
X183028301Y-123900646D01*
X183058725Y-123903499D01*
X183058727Y-123903500D01*
X183058734Y-123903500D01*
X183717273Y-123903500D01*
X183717273Y-123903499D01*
X183747699Y-123900646D01*
X183875882Y-123855793D01*
X183985150Y-123775150D01*
X184063705Y-123668709D01*
X184113471Y-123633119D01*
X184143359Y-123628500D01*
X184273307Y-123628500D01*
X184331498Y-123647407D01*
X184352957Y-123668706D01*
X184431516Y-123775150D01*
X184431519Y-123775152D01*
X184431521Y-123775154D01*
X184540782Y-123855792D01*
X184540783Y-123855792D01*
X184540784Y-123855793D01*
X184668967Y-123900646D01*
X184699391Y-123903499D01*
X184699393Y-123903500D01*
X184699400Y-123903500D01*
X185357939Y-123903500D01*
X185357939Y-123903499D01*
X185388365Y-123900646D01*
X185516548Y-123855793D01*
X185625816Y-123775150D01*
X185704371Y-123668709D01*
X185754137Y-123633119D01*
X185784025Y-123628500D01*
X185925895Y-123628500D01*
X185984086Y-123647407D01*
X186005148Y-123668171D01*
X186078974Y-123766791D01*
X186079645Y-123767687D01*
X186189106Y-123849628D01*
X186317218Y-123897412D01*
X186373847Y-123903500D01*
X186964816Y-123903499D01*
X187021446Y-123897412D01*
X187149558Y-123849628D01*
X187259019Y-123767687D01*
X187303615Y-123708114D01*
X187333516Y-123668171D01*
X187383524Y-123632918D01*
X187412769Y-123628500D01*
X187566563Y-123628500D01*
X187624754Y-123647407D01*
X187645816Y-123668171D01*
X187719642Y-123766791D01*
X187720313Y-123767687D01*
X187829774Y-123849628D01*
X187957886Y-123897412D01*
X188014515Y-123903500D01*
X188605484Y-123903499D01*
X188662114Y-123897412D01*
X188790226Y-123849628D01*
X188899687Y-123767687D01*
X188981628Y-123658226D01*
X189029412Y-123530114D01*
X189035500Y-123473485D01*
X189035499Y-122932516D01*
X189029412Y-122875886D01*
X188981628Y-122747774D01*
X188904166Y-122644297D01*
X188884431Y-122586384D01*
X188902506Y-122527929D01*
X188931448Y-122500710D01*
X189012730Y-122450573D01*
X189132574Y-122330729D01*
X189221545Y-122186487D01*
X189274856Y-122025603D01*
X189285000Y-121926323D01*
X189285000Y-121903001D01*
X189284999Y-121903000D01*
X188159000Y-121903000D01*
X188100809Y-121884093D01*
X188081324Y-121857274D01*
X189584500Y-121857274D01*
X189587353Y-121887694D01*
X189587355Y-121887703D01*
X189632207Y-122015883D01*
X189712845Y-122125144D01*
X189712847Y-122125146D01*
X189712850Y-122125150D01*
X189712853Y-122125152D01*
X189712855Y-122125154D01*
X189822116Y-122205792D01*
X189822117Y-122205792D01*
X189822118Y-122205793D01*
X189950301Y-122250646D01*
X189980725Y-122253499D01*
X189980727Y-122253500D01*
X189980734Y-122253500D01*
X190639273Y-122253500D01*
X190639273Y-122253499D01*
X190669699Y-122250646D01*
X190797882Y-122205793D01*
X190907150Y-122125150D01*
X190985705Y-122018709D01*
X191035471Y-121983119D01*
X191065359Y-121978500D01*
X191154641Y-121978500D01*
X191212832Y-121997407D01*
X191234291Y-122018706D01*
X191312850Y-122125150D01*
X191312853Y-122125152D01*
X191312855Y-122125154D01*
X191422116Y-122205792D01*
X191422117Y-122205792D01*
X191422118Y-122205793D01*
X191550301Y-122250646D01*
X191580725Y-122253499D01*
X191580727Y-122253500D01*
X191580734Y-122253500D01*
X192239273Y-122253500D01*
X192239273Y-122253499D01*
X192269699Y-122250646D01*
X192397882Y-122205793D01*
X192507150Y-122125150D01*
X192587793Y-122015882D01*
X192632646Y-121887699D01*
X192635499Y-121857273D01*
X192635500Y-121857273D01*
X192635500Y-121348727D01*
X192635499Y-121348725D01*
X192634155Y-121334394D01*
X192632646Y-121318301D01*
X192587793Y-121190118D01*
X192585704Y-121187288D01*
X192507154Y-121080855D01*
X192507152Y-121080853D01*
X192507150Y-121080850D01*
X192507146Y-121080847D01*
X192507144Y-121080845D01*
X192397885Y-121000208D01*
X192397879Y-121000205D01*
X192351802Y-120984082D01*
X192303121Y-120947016D01*
X192285500Y-120890638D01*
X192285500Y-120710425D01*
X192304407Y-120652234D01*
X192349902Y-120617668D01*
X192390226Y-120602628D01*
X192499687Y-120520687D01*
X192581628Y-120411226D01*
X192629412Y-120283114D01*
X192635500Y-120226485D01*
X192635499Y-119685516D01*
X192629412Y-119628886D01*
X192581628Y-119500774D01*
X192504166Y-119397297D01*
X192484431Y-119339384D01*
X192502506Y-119280929D01*
X192531448Y-119253710D01*
X192612730Y-119203573D01*
X192732574Y-119083729D01*
X192821545Y-118939487D01*
X192874856Y-118778603D01*
X192885000Y-118679323D01*
X192885000Y-118656001D01*
X192884999Y-118656000D01*
X190935002Y-118656000D01*
X190935001Y-118656001D01*
X190935001Y-118679322D01*
X190945142Y-118778597D01*
X190945145Y-118778609D01*
X190998454Y-118939487D01*
X191087425Y-119083729D01*
X191207269Y-119203573D01*
X191288551Y-119253709D01*
X191328152Y-119300350D01*
X191332775Y-119361360D01*
X191315832Y-119397297D01*
X191238373Y-119500771D01*
X191190587Y-119628887D01*
X191184500Y-119685518D01*
X191184500Y-120226478D01*
X191184501Y-120226484D01*
X191190587Y-120283111D01*
X191190587Y-120283112D01*
X191190588Y-120283114D01*
X191238372Y-120411226D01*
X191320313Y-120520687D01*
X191429774Y-120602628D01*
X191470097Y-120617667D01*
X191518010Y-120655716D01*
X191534500Y-120710425D01*
X191534500Y-120890638D01*
X191515593Y-120948829D01*
X191468198Y-120984082D01*
X191422120Y-121000205D01*
X191422114Y-121000208D01*
X191312855Y-121080845D01*
X191312850Y-121080850D01*
X191234294Y-121187290D01*
X191184529Y-121222881D01*
X191154641Y-121227500D01*
X191065359Y-121227500D01*
X191007168Y-121208593D01*
X190985708Y-121187293D01*
X190907150Y-121080850D01*
X190907146Y-121080847D01*
X190907144Y-121080845D01*
X190797883Y-121000207D01*
X190669703Y-120955355D01*
X190669694Y-120955353D01*
X190639274Y-120952500D01*
X190639266Y-120952500D01*
X189980734Y-120952500D01*
X189980725Y-120952500D01*
X189950305Y-120955353D01*
X189950296Y-120955355D01*
X189822116Y-121000207D01*
X189712855Y-121080845D01*
X189712845Y-121080855D01*
X189632207Y-121190116D01*
X189587355Y-121318296D01*
X189587353Y-121318305D01*
X189584500Y-121348725D01*
X189584500Y-121857274D01*
X188081324Y-121857274D01*
X188064845Y-121834593D01*
X188060000Y-121804000D01*
X188060000Y-121402999D01*
X188560000Y-121402999D01*
X188560001Y-121403000D01*
X189284998Y-121403000D01*
X189284999Y-121402999D01*
X189284999Y-121379677D01*
X189274857Y-121280402D01*
X189274854Y-121280390D01*
X189221545Y-121119512D01*
X189132574Y-120975270D01*
X189012729Y-120855425D01*
X188868487Y-120766454D01*
X188707603Y-120713143D01*
X188608323Y-120703000D01*
X188560001Y-120703000D01*
X188560000Y-120703001D01*
X188560000Y-121402999D01*
X188060000Y-121402999D01*
X188060000Y-120702999D01*
X188011679Y-120703000D01*
X188011676Y-120703001D01*
X187912402Y-120713142D01*
X187912390Y-120713145D01*
X187751512Y-120766454D01*
X187607270Y-120855425D01*
X187487427Y-120975268D01*
X187422369Y-121080741D01*
X187375727Y-121120341D01*
X187314717Y-121124964D01*
X187262641Y-121092842D01*
X187259071Y-121088366D01*
X187259020Y-121088315D01*
X187259019Y-121088313D01*
X187222808Y-121061206D01*
X187149560Y-121006373D01*
X187149556Y-121006371D01*
X187109232Y-120991330D01*
X187061319Y-120953278D01*
X187044832Y-120898573D01*
X187044832Y-120265897D01*
X187042479Y-120257116D01*
X187019243Y-120170395D01*
X187019241Y-120170392D01*
X187019241Y-120170390D01*
X186969810Y-120084774D01*
X186969806Y-120084769D01*
X186585909Y-119700871D01*
X186558132Y-119646355D01*
X186557635Y-119618940D01*
X186565278Y-119556000D01*
X186563736Y-119543304D01*
X186546237Y-119399183D01*
X186546237Y-119399182D01*
X186490220Y-119251477D01*
X186446862Y-119188662D01*
X186419305Y-119148738D01*
X186401810Y-119090107D01*
X186422118Y-119032390D01*
X186472473Y-118997633D01*
X186500781Y-118993500D01*
X188771436Y-118993500D01*
X188819186Y-118980705D01*
X188819187Y-118980705D01*
X188866934Y-118967911D01*
X188866933Y-118967911D01*
X188866938Y-118967910D01*
X188952562Y-118918475D01*
X189022475Y-118848562D01*
X189022474Y-118848562D01*
X189715038Y-118155999D01*
X190935000Y-118155999D01*
X190935001Y-118156000D01*
X191659999Y-118156000D01*
X191660000Y-118155999D01*
X192160000Y-118155999D01*
X192160001Y-118156000D01*
X192884998Y-118156000D01*
X192884999Y-118155999D01*
X192884999Y-118132677D01*
X192874857Y-118033402D01*
X192874854Y-118033390D01*
X192821545Y-117872512D01*
X192732574Y-117728270D01*
X192612729Y-117608425D01*
X192468487Y-117519454D01*
X192307603Y-117466143D01*
X192208323Y-117456000D01*
X192160001Y-117456000D01*
X192160000Y-117456001D01*
X192160000Y-118155999D01*
X191660000Y-118155999D01*
X191660000Y-117455999D01*
X191611679Y-117456000D01*
X191611676Y-117456001D01*
X191512402Y-117466142D01*
X191512390Y-117466145D01*
X191351512Y-117519454D01*
X191207270Y-117608425D01*
X191087425Y-117728270D01*
X190998454Y-117872512D01*
X190945143Y-118033396D01*
X190935000Y-118132676D01*
X190935000Y-118155999D01*
X189715038Y-118155999D01*
X190800475Y-117070563D01*
X190849911Y-116984937D01*
X190875500Y-116889436D01*
X190875500Y-116790564D01*
X190875500Y-112227543D01*
X190894407Y-112169352D01*
X190938738Y-112135228D01*
X190948186Y-112131568D01*
X190992637Y-112114348D01*
X191166041Y-112006981D01*
X191316764Y-111869579D01*
X191439673Y-111706821D01*
X191530582Y-111524250D01*
X191586397Y-111328083D01*
X191605215Y-111125000D01*
X191586397Y-110921917D01*
X191530582Y-110725750D01*
X191439673Y-110543179D01*
X191316764Y-110380421D01*
X191166041Y-110243019D01*
X190992637Y-110135652D01*
X190802456Y-110061976D01*
X190802455Y-110061975D01*
X190802453Y-110061975D01*
X190601976Y-110024500D01*
X190398024Y-110024500D01*
X190197546Y-110061975D01*
X190133243Y-110086886D01*
X190007363Y-110135652D01*
X189870359Y-110220481D01*
X189833959Y-110243019D01*
X189683237Y-110380420D01*
X189560328Y-110543177D01*
X189560323Y-110543186D01*
X189469419Y-110725747D01*
X189454833Y-110777011D01*
X189420722Y-110827806D01*
X189363269Y-110848850D01*
X189304420Y-110832106D01*
X189266652Y-110783968D01*
X189263985Y-110775541D01*
X189233429Y-110661504D01*
X189133605Y-110447432D01*
X189133601Y-110447424D01*
X188998113Y-110253926D01*
X188831073Y-110086886D01*
X188637577Y-109951399D01*
X188423489Y-109851569D01*
X188210000Y-109794364D01*
X188210000Y-110691988D01*
X188152993Y-110659075D01*
X188025826Y-110625000D01*
X187894174Y-110625000D01*
X187767007Y-110659075D01*
X187710000Y-110691988D01*
X187710000Y-109794364D01*
X187496505Y-109851570D01*
X187282432Y-109951394D01*
X187282424Y-109951398D01*
X187088926Y-110086886D01*
X186921886Y-110253926D01*
X186786398Y-110447424D01*
X186786394Y-110447432D01*
X186686570Y-110661505D01*
X186656014Y-110775541D01*
X186622689Y-110826856D01*
X186565568Y-110848782D01*
X186506467Y-110832946D01*
X186467962Y-110785396D01*
X186465172Y-110777028D01*
X186450582Y-110725750D01*
X186359673Y-110543179D01*
X186236764Y-110380421D01*
X186086041Y-110243019D01*
X185912637Y-110135652D01*
X185722456Y-110061976D01*
X185722455Y-110061975D01*
X185722453Y-110061975D01*
X185521976Y-110024500D01*
X185318024Y-110024500D01*
X185117546Y-110061975D01*
X185053243Y-110086886D01*
X184927363Y-110135652D01*
X184790359Y-110220481D01*
X184753959Y-110243019D01*
X184603237Y-110380420D01*
X184480328Y-110543177D01*
X184480323Y-110543186D01*
X184389419Y-110725747D01*
X184389418Y-110725750D01*
X184333603Y-110921917D01*
X184314785Y-111125000D01*
X184333603Y-111328083D01*
X184389418Y-111524250D01*
X184480327Y-111706821D01*
X184603236Y-111869579D01*
X184753959Y-112006981D01*
X184927363Y-112114348D01*
X185117544Y-112188024D01*
X185318024Y-112225500D01*
X185521976Y-112225500D01*
X185722456Y-112188024D01*
X185912637Y-112114348D01*
X186086041Y-112006981D01*
X186236764Y-111869579D01*
X186359673Y-111706821D01*
X186450582Y-111524250D01*
X186465167Y-111472987D01*
X186499275Y-111422194D01*
X186556728Y-111401149D01*
X186615577Y-111417892D01*
X186653346Y-111466029D01*
X186656014Y-111474458D01*
X186686569Y-111588489D01*
X186786399Y-111802577D01*
X186921886Y-111996073D01*
X187088926Y-112163113D01*
X187282422Y-112298600D01*
X187496509Y-112398430D01*
X187710000Y-112455634D01*
X187710000Y-111558012D01*
X187767007Y-111590925D01*
X187894174Y-111625000D01*
X188025826Y-111625000D01*
X188152993Y-111590925D01*
X188210000Y-111558012D01*
X188210000Y-112455633D01*
X188423490Y-112398430D01*
X188637577Y-112298600D01*
X188831073Y-112163113D01*
X188998113Y-111996073D01*
X189133600Y-111802577D01*
X189233430Y-111588490D01*
X189263985Y-111474458D01*
X189297309Y-111423144D01*
X189354430Y-111401217D01*
X189413531Y-111417052D01*
X189452036Y-111464602D01*
X189454829Y-111472978D01*
X189469418Y-111524250D01*
X189560327Y-111706821D01*
X189683236Y-111869579D01*
X189833959Y-112006981D01*
X190007363Y-112114348D01*
X190007367Y-112114349D01*
X190007368Y-112114350D01*
X190061262Y-112135228D01*
X190108693Y-112173878D01*
X190124500Y-112227543D01*
X190124500Y-116643454D01*
X190105593Y-116701645D01*
X190095504Y-116713458D01*
X188595459Y-118213504D01*
X188540942Y-118241281D01*
X188525455Y-118242500D01*
X187594298Y-118242500D01*
X187536107Y-118223593D01*
X187500143Y-118174093D01*
X187500143Y-118112907D01*
X187536107Y-118063407D01*
X187568671Y-118047874D01*
X187804153Y-117984778D01*
X188031292Y-117890694D01*
X188244208Y-117767767D01*
X188439256Y-117618101D01*
X188613101Y-117444256D01*
X188762767Y-117249208D01*
X188885694Y-117036292D01*
X188979778Y-116809153D01*
X189043409Y-116571677D01*
X189075500Y-116327927D01*
X189075500Y-116082073D01*
X189043409Y-115838323D01*
X188979778Y-115600847D01*
X188901297Y-115411378D01*
X188885697Y-115373715D01*
X188885696Y-115373714D01*
X188885694Y-115373708D01*
X188762767Y-115160792D01*
X188678135Y-115050498D01*
X188613106Y-114965750D01*
X188613104Y-114965748D01*
X188613101Y-114965744D01*
X188439256Y-114791899D01*
X188439251Y-114791895D01*
X188439249Y-114791893D01*
X188244211Y-114642235D01*
X188213372Y-114624430D01*
X188031292Y-114519306D01*
X188031288Y-114519304D01*
X188031284Y-114519302D01*
X187804154Y-114425222D01*
X187699440Y-114397164D01*
X187566677Y-114361591D01*
X187566674Y-114361590D01*
X187566672Y-114361590D01*
X187322927Y-114329500D01*
X187077073Y-114329500D01*
X187077072Y-114329500D01*
X186833330Y-114361590D01*
X186833325Y-114361590D01*
X186595845Y-114425222D01*
X186368715Y-114519302D01*
X186155788Y-114642235D01*
X185973322Y-114782246D01*
X185915646Y-114802670D01*
X185856981Y-114785292D01*
X185819733Y-114736751D01*
X185816537Y-114681674D01*
X185872910Y-114434688D01*
X185872911Y-114434681D01*
X185892372Y-114175002D01*
X185892372Y-114174997D01*
X185872911Y-113915318D01*
X185872909Y-113915308D01*
X185814964Y-113661433D01*
X185719820Y-113419008D01*
X185719816Y-113419000D01*
X185589618Y-113193493D01*
X185589608Y-113193478D01*
X185543230Y-113135322D01*
X184884980Y-113793571D01*
X184881106Y-113784216D01*
X184790819Y-113649093D01*
X184675907Y-113534181D01*
X184540784Y-113443894D01*
X184531426Y-113440017D01*
X185190171Y-112781273D01*
X185021182Y-112666059D01*
X184786560Y-112553072D01*
X184537718Y-112476314D01*
X184537708Y-112476312D01*
X184280211Y-112437500D01*
X184019788Y-112437500D01*
X183762291Y-112476312D01*
X183762281Y-112476314D01*
X183513439Y-112553072D01*
X183278812Y-112666062D01*
X183109827Y-112781273D01*
X183768572Y-113440018D01*
X183759216Y-113443894D01*
X183624093Y-113534181D01*
X183509181Y-113649093D01*
X183418894Y-113784216D01*
X183415018Y-113793572D01*
X182756768Y-113135322D01*
X182710390Y-113193479D01*
X182710381Y-113193493D01*
X182580183Y-113419000D01*
X182580179Y-113419008D01*
X182485035Y-113661433D01*
X182427090Y-113915308D01*
X182427088Y-113915318D01*
X182407628Y-114174997D01*
X182407628Y-114175002D01*
X182419412Y-114332246D01*
X182404906Y-114391687D01*
X182358232Y-114431249D01*
X182297218Y-114435822D01*
X182250685Y-114409648D01*
X181890563Y-114049526D01*
X181890563Y-114049525D01*
X181804941Y-114000091D01*
X181804937Y-114000089D01*
X181735465Y-113981474D01*
X181735464Y-113981474D01*
X181709438Y-113974500D01*
X181709436Y-113974500D01*
X181709435Y-113974500D01*
X171395101Y-113974500D01*
X171336910Y-113955593D01*
X171302343Y-113910097D01*
X171296628Y-113894774D01*
X171214687Y-113785313D01*
X171133025Y-113724182D01*
X171105228Y-113703373D01*
X171105226Y-113703372D01*
X170977114Y-113655588D01*
X170977113Y-113655587D01*
X170938895Y-113651479D01*
X170920485Y-113649500D01*
X170920481Y-113649500D01*
X170079521Y-113649500D01*
X170079515Y-113649501D01*
X170022888Y-113655587D01*
X170022886Y-113655588D01*
X169894774Y-113703372D01*
X169894773Y-113703372D01*
X169894772Y-113703373D01*
X169785315Y-113785311D01*
X169785311Y-113785315D01*
X169703373Y-113894771D01*
X169655587Y-114022887D01*
X169649500Y-114079518D01*
X169649500Y-114620478D01*
X169649501Y-114620484D01*
X169655587Y-114677111D01*
X169655587Y-114677112D01*
X169655588Y-114677114D01*
X169703372Y-114805226D01*
X169785313Y-114914687D01*
X169894774Y-114996628D01*
X170022886Y-115044412D01*
X170079515Y-115050500D01*
X170920484Y-115050499D01*
X170977114Y-115044412D01*
X171105226Y-114996628D01*
X171214687Y-114914687D01*
X171296628Y-114805226D01*
X171302343Y-114789902D01*
X171340394Y-114741988D01*
X171395101Y-114725500D01*
X172370454Y-114725500D01*
X172428645Y-114744407D01*
X172464609Y-114793907D01*
X172464609Y-114855093D01*
X172440458Y-114894503D01*
X171983459Y-115351503D01*
X171928942Y-115379281D01*
X171913455Y-115380500D01*
X168343756Y-115380500D01*
X168343163Y-115380537D01*
X168329974Y-115380535D01*
X168194733Y-115411379D01*
X168069760Y-115471540D01*
X168069750Y-115471546D01*
X167961301Y-115558012D01*
X167961297Y-115558016D01*
X167936675Y-115588885D01*
X167885608Y-115622586D01*
X167824484Y-115619834D01*
X167781884Y-115588882D01*
X167759970Y-115561407D01*
X167738467Y-115504125D01*
X167754740Y-115445143D01*
X167767364Y-115429672D01*
X167961541Y-115235496D01*
X168016057Y-115207719D01*
X168031544Y-115206500D01*
X168188982Y-115206500D01*
X168188985Y-115206500D01*
X168342365Y-115168696D01*
X168482240Y-115095283D01*
X168600483Y-114990530D01*
X168690220Y-114860523D01*
X168746237Y-114712818D01*
X168763067Y-114574210D01*
X168765278Y-114556001D01*
X168765278Y-114555998D01*
X168750131Y-114431249D01*
X168746237Y-114399182D01*
X168690220Y-114251477D01*
X168604848Y-114127794D01*
X168600484Y-114121471D01*
X168597552Y-114118873D01*
X168482240Y-114016717D01*
X168401803Y-113974500D01*
X168342364Y-113943303D01*
X168188987Y-113905500D01*
X168188985Y-113905500D01*
X168031015Y-113905500D01*
X168031012Y-113905500D01*
X167877635Y-113943303D01*
X167737758Y-114016718D01*
X167619515Y-114121471D01*
X167529780Y-114251476D01*
X167473763Y-114399182D01*
X167473762Y-114399183D01*
X167454722Y-114555998D01*
X167454722Y-114556002D01*
X167462363Y-114618937D01*
X167450607Y-114678982D01*
X167434089Y-114700872D01*
X167233460Y-114901503D01*
X167178943Y-114929281D01*
X167163456Y-114930500D01*
X159383812Y-114930500D01*
X159325621Y-114911593D01*
X159289657Y-114862093D01*
X159289657Y-114800907D01*
X159313808Y-114761496D01*
X159322573Y-114752730D01*
X159322574Y-114752729D01*
X159411545Y-114608487D01*
X159464856Y-114447603D01*
X159475000Y-114348323D01*
X159475000Y-114300001D01*
X159474999Y-114300000D01*
X158374000Y-114300000D01*
X158315809Y-114281093D01*
X158279845Y-114231593D01*
X158275000Y-114201000D01*
X158275000Y-113899000D01*
X158293907Y-113840809D01*
X158343407Y-113804845D01*
X158374000Y-113800000D01*
X159395559Y-113800000D01*
X159453750Y-113818907D01*
X159465563Y-113828996D01*
X159548129Y-113911562D01*
X159548128Y-113911562D01*
X159618042Y-113981475D01*
X159703662Y-114030908D01*
X159703666Y-114030910D01*
X159729446Y-114037818D01*
X159729447Y-114037818D01*
X159799168Y-114056500D01*
X159799169Y-114056500D01*
X164184070Y-114056500D01*
X164242261Y-114075407D01*
X164276635Y-114120391D01*
X164328161Y-114256255D01*
X164329780Y-114260523D01*
X164419515Y-114390528D01*
X164419516Y-114390529D01*
X164419517Y-114390530D01*
X164537760Y-114495283D01*
X164677635Y-114568696D01*
X164831015Y-114606500D01*
X164831018Y-114606500D01*
X164988982Y-114606500D01*
X164988985Y-114606500D01*
X165142365Y-114568696D01*
X165282240Y-114495283D01*
X165400483Y-114390530D01*
X165435428Y-114339902D01*
X165484041Y-114302755D01*
X165545208Y-114301275D01*
X165562902Y-114308478D01*
X165677635Y-114368696D01*
X165831015Y-114406500D01*
X165831018Y-114406500D01*
X165988982Y-114406500D01*
X165988985Y-114406500D01*
X166142365Y-114368696D01*
X166282240Y-114295283D01*
X166400483Y-114190530D01*
X166490220Y-114060523D01*
X166546237Y-113912818D01*
X166565278Y-113756000D01*
X166546237Y-113599182D01*
X166490220Y-113451477D01*
X166400483Y-113321470D01*
X166282240Y-113216717D01*
X166204682Y-113176011D01*
X166142364Y-113143303D01*
X165988987Y-113105500D01*
X165988985Y-113105500D01*
X165831545Y-113105500D01*
X165773354Y-113086593D01*
X165761541Y-113076504D01*
X165615563Y-112930526D01*
X165615563Y-112930525D01*
X165529941Y-112881091D01*
X165529934Y-112881088D01*
X165482185Y-112868294D01*
X165482184Y-112868294D01*
X165434438Y-112855500D01*
X165434436Y-112855500D01*
X165434435Y-112855500D01*
X160231545Y-112855500D01*
X160173354Y-112836593D01*
X160161541Y-112826504D01*
X159704410Y-112369373D01*
X159676633Y-112314856D01*
X159686204Y-112254424D01*
X159729469Y-112211159D01*
X159789901Y-112201588D01*
X159792587Y-112202051D01*
X159918024Y-112225500D01*
X160121976Y-112225500D01*
X160322456Y-112188024D01*
X160512637Y-112114348D01*
X160686041Y-112006981D01*
X160836764Y-111869579D01*
X160959673Y-111706821D01*
X161050582Y-111524250D01*
X161065167Y-111472987D01*
X161099275Y-111422194D01*
X161156728Y-111401149D01*
X161215577Y-111417892D01*
X161253346Y-111466029D01*
X161256014Y-111474458D01*
X161286569Y-111588489D01*
X161386399Y-111802577D01*
X161521886Y-111996073D01*
X161688926Y-112163113D01*
X161882422Y-112298600D01*
X162096509Y-112398430D01*
X162310000Y-112455634D01*
X162310000Y-111558012D01*
X162367007Y-111590925D01*
X162494174Y-111625000D01*
X162625826Y-111625000D01*
X162752993Y-111590925D01*
X162810000Y-111558012D01*
X162810000Y-112455633D01*
X163023490Y-112398430D01*
X163237577Y-112298600D01*
X163431073Y-112163113D01*
X163598113Y-111996073D01*
X163733600Y-111802577D01*
X163833430Y-111588490D01*
X163863985Y-111474458D01*
X163897309Y-111423144D01*
X163954430Y-111401217D01*
X164013531Y-111417052D01*
X164052036Y-111464602D01*
X164054829Y-111472978D01*
X164069418Y-111524250D01*
X164160327Y-111706821D01*
X164283236Y-111869579D01*
X164433959Y-112006981D01*
X164607363Y-112114348D01*
X164797544Y-112188024D01*
X164998024Y-112225500D01*
X165201976Y-112225500D01*
X165402456Y-112188024D01*
X165592637Y-112114348D01*
X165766041Y-112006981D01*
X165916764Y-111869579D01*
X166039673Y-111706821D01*
X166130582Y-111524250D01*
X166186397Y-111328083D01*
X166205215Y-111125000D01*
X166534785Y-111125000D01*
X166553603Y-111328083D01*
X166609418Y-111524250D01*
X166700327Y-111706821D01*
X166823236Y-111869579D01*
X166973959Y-112006981D01*
X167147363Y-112114348D01*
X167337544Y-112188024D01*
X167538024Y-112225500D01*
X167741976Y-112225500D01*
X167942456Y-112188024D01*
X168132637Y-112114348D01*
X168306041Y-112006981D01*
X168456764Y-111869579D01*
X168579673Y-111706821D01*
X168670582Y-111524250D01*
X168726397Y-111328083D01*
X168745215Y-111125000D01*
X169074785Y-111125000D01*
X169093603Y-111328083D01*
X169149418Y-111524250D01*
X169240327Y-111706821D01*
X169363236Y-111869579D01*
X169513959Y-112006981D01*
X169687363Y-112114348D01*
X169877544Y-112188024D01*
X170078024Y-112225500D01*
X170281976Y-112225500D01*
X170482456Y-112188024D01*
X170672637Y-112114348D01*
X170846041Y-112006981D01*
X170996764Y-111869579D01*
X171119673Y-111706821D01*
X171210582Y-111524250D01*
X171266397Y-111328083D01*
X171285215Y-111125000D01*
X171614785Y-111125000D01*
X171633603Y-111328083D01*
X171689418Y-111524250D01*
X171780327Y-111706821D01*
X171903236Y-111869579D01*
X172053959Y-112006981D01*
X172227363Y-112114348D01*
X172417544Y-112188024D01*
X172618024Y-112225500D01*
X172821976Y-112225500D01*
X173022456Y-112188024D01*
X173212637Y-112114348D01*
X173386041Y-112006981D01*
X173536764Y-111869579D01*
X173659673Y-111706821D01*
X173750582Y-111524250D01*
X173806397Y-111328083D01*
X173825215Y-111125000D01*
X174154785Y-111125000D01*
X174173603Y-111328083D01*
X174229418Y-111524250D01*
X174320327Y-111706821D01*
X174443236Y-111869579D01*
X174593959Y-112006981D01*
X174767363Y-112114348D01*
X174957544Y-112188024D01*
X175158024Y-112225500D01*
X175361976Y-112225500D01*
X175562456Y-112188024D01*
X175752637Y-112114348D01*
X175926041Y-112006981D01*
X176076764Y-111869579D01*
X176199673Y-111706821D01*
X176290582Y-111524250D01*
X176346397Y-111328083D01*
X176365215Y-111125000D01*
X176694785Y-111125000D01*
X176713603Y-111328083D01*
X176769418Y-111524250D01*
X176860327Y-111706821D01*
X176983236Y-111869579D01*
X177133959Y-112006981D01*
X177307363Y-112114348D01*
X177497544Y-112188024D01*
X177698024Y-112225500D01*
X177901976Y-112225500D01*
X178102456Y-112188024D01*
X178292637Y-112114348D01*
X178466041Y-112006981D01*
X178616764Y-111869579D01*
X178739673Y-111706821D01*
X178830582Y-111524250D01*
X178886397Y-111328083D01*
X178905215Y-111125000D01*
X179234785Y-111125000D01*
X179253603Y-111328083D01*
X179309418Y-111524250D01*
X179400327Y-111706821D01*
X179523236Y-111869579D01*
X179673959Y-112006981D01*
X179847363Y-112114348D01*
X180037544Y-112188024D01*
X180238024Y-112225500D01*
X180441976Y-112225500D01*
X180642456Y-112188024D01*
X180832637Y-112114348D01*
X181006041Y-112006981D01*
X181156764Y-111869579D01*
X181279673Y-111706821D01*
X181370582Y-111524250D01*
X181426397Y-111328083D01*
X181445215Y-111125000D01*
X181774785Y-111125000D01*
X181793603Y-111328083D01*
X181849418Y-111524250D01*
X181940327Y-111706821D01*
X182063236Y-111869579D01*
X182213959Y-112006981D01*
X182387363Y-112114348D01*
X182577544Y-112188024D01*
X182778024Y-112225500D01*
X182981976Y-112225500D01*
X183182456Y-112188024D01*
X183372637Y-112114348D01*
X183546041Y-112006981D01*
X183696764Y-111869579D01*
X183819673Y-111706821D01*
X183910582Y-111524250D01*
X183966397Y-111328083D01*
X183985215Y-111125000D01*
X183966397Y-110921917D01*
X183910582Y-110725750D01*
X183819673Y-110543179D01*
X183696764Y-110380421D01*
X183546041Y-110243019D01*
X183372637Y-110135652D01*
X183182456Y-110061976D01*
X183182455Y-110061975D01*
X183182453Y-110061975D01*
X182981976Y-110024500D01*
X182778024Y-110024500D01*
X182577546Y-110061975D01*
X182513243Y-110086886D01*
X182387363Y-110135652D01*
X182250359Y-110220481D01*
X182213959Y-110243019D01*
X182063237Y-110380420D01*
X181940328Y-110543177D01*
X181940323Y-110543186D01*
X181849419Y-110725747D01*
X181849418Y-110725750D01*
X181793603Y-110921917D01*
X181774785Y-111125000D01*
X181445215Y-111125000D01*
X181426397Y-110921917D01*
X181370582Y-110725750D01*
X181279673Y-110543179D01*
X181156764Y-110380421D01*
X181006041Y-110243019D01*
X180832637Y-110135652D01*
X180642456Y-110061976D01*
X180642455Y-110061975D01*
X180642453Y-110061975D01*
X180441976Y-110024500D01*
X180238024Y-110024500D01*
X180037546Y-110061975D01*
X179973243Y-110086886D01*
X179847363Y-110135652D01*
X179710359Y-110220481D01*
X179673959Y-110243019D01*
X179523237Y-110380420D01*
X179400328Y-110543177D01*
X179400323Y-110543186D01*
X179309419Y-110725747D01*
X179309418Y-110725750D01*
X179253603Y-110921917D01*
X179234785Y-111125000D01*
X178905215Y-111125000D01*
X178886397Y-110921917D01*
X178830582Y-110725750D01*
X178739673Y-110543179D01*
X178616764Y-110380421D01*
X178466041Y-110243019D01*
X178292637Y-110135652D01*
X178102456Y-110061976D01*
X178102455Y-110061975D01*
X178102453Y-110061975D01*
X177901976Y-110024500D01*
X177698024Y-110024500D01*
X177497546Y-110061975D01*
X177433243Y-110086886D01*
X177307363Y-110135652D01*
X177170359Y-110220481D01*
X177133959Y-110243019D01*
X176983237Y-110380420D01*
X176860328Y-110543177D01*
X176860323Y-110543186D01*
X176769419Y-110725747D01*
X176769418Y-110725750D01*
X176713603Y-110921917D01*
X176694785Y-111125000D01*
X176365215Y-111125000D01*
X176346397Y-110921917D01*
X176290582Y-110725750D01*
X176199673Y-110543179D01*
X176076764Y-110380421D01*
X175926041Y-110243019D01*
X175752637Y-110135652D01*
X175562456Y-110061976D01*
X175562455Y-110061975D01*
X175562453Y-110061975D01*
X175361976Y-110024500D01*
X175158024Y-110024500D01*
X174957546Y-110061975D01*
X174893243Y-110086886D01*
X174767363Y-110135652D01*
X174630359Y-110220481D01*
X174593959Y-110243019D01*
X174443237Y-110380420D01*
X174320328Y-110543177D01*
X174320323Y-110543186D01*
X174229419Y-110725747D01*
X174229418Y-110725750D01*
X174173603Y-110921917D01*
X174154785Y-111125000D01*
X173825215Y-111125000D01*
X173806397Y-110921917D01*
X173750582Y-110725750D01*
X173659673Y-110543179D01*
X173536764Y-110380421D01*
X173386041Y-110243019D01*
X173212637Y-110135652D01*
X173022456Y-110061976D01*
X173022455Y-110061975D01*
X173022453Y-110061975D01*
X172821976Y-110024500D01*
X172618024Y-110024500D01*
X172417546Y-110061975D01*
X172353243Y-110086886D01*
X172227363Y-110135652D01*
X172090359Y-110220481D01*
X172053959Y-110243019D01*
X171903237Y-110380420D01*
X171780328Y-110543177D01*
X171780323Y-110543186D01*
X171689419Y-110725747D01*
X171689418Y-110725750D01*
X171633603Y-110921917D01*
X171614785Y-111125000D01*
X171285215Y-111125000D01*
X171266397Y-110921917D01*
X171210582Y-110725750D01*
X171119673Y-110543179D01*
X170996764Y-110380421D01*
X170846041Y-110243019D01*
X170672637Y-110135652D01*
X170482456Y-110061976D01*
X170482455Y-110061975D01*
X170482453Y-110061975D01*
X170281976Y-110024500D01*
X170078024Y-110024500D01*
X169877546Y-110061975D01*
X169813243Y-110086886D01*
X169687363Y-110135652D01*
X169550359Y-110220481D01*
X169513959Y-110243019D01*
X169363237Y-110380420D01*
X169240328Y-110543177D01*
X169240323Y-110543186D01*
X169149419Y-110725747D01*
X169149418Y-110725750D01*
X169093603Y-110921917D01*
X169074785Y-111125000D01*
X168745215Y-111125000D01*
X168726397Y-110921917D01*
X168670582Y-110725750D01*
X168579673Y-110543179D01*
X168456764Y-110380421D01*
X168306041Y-110243019D01*
X168132637Y-110135652D01*
X167942456Y-110061976D01*
X167942455Y-110061975D01*
X167942453Y-110061975D01*
X167741976Y-110024500D01*
X167538024Y-110024500D01*
X167337546Y-110061975D01*
X167273243Y-110086886D01*
X167147363Y-110135652D01*
X167010359Y-110220481D01*
X166973959Y-110243019D01*
X166823237Y-110380420D01*
X166700328Y-110543177D01*
X166700323Y-110543186D01*
X166609419Y-110725747D01*
X166609418Y-110725750D01*
X166553603Y-110921917D01*
X166534785Y-111125000D01*
X166205215Y-111125000D01*
X166186397Y-110921917D01*
X166130582Y-110725750D01*
X166039673Y-110543179D01*
X165916764Y-110380421D01*
X165766041Y-110243019D01*
X165592637Y-110135652D01*
X165402456Y-110061976D01*
X165402455Y-110061975D01*
X165402453Y-110061975D01*
X165201976Y-110024500D01*
X164998024Y-110024500D01*
X164797546Y-110061975D01*
X164733243Y-110086886D01*
X164607363Y-110135652D01*
X164470359Y-110220481D01*
X164433959Y-110243019D01*
X164283237Y-110380420D01*
X164160328Y-110543177D01*
X164160323Y-110543186D01*
X164069419Y-110725747D01*
X164054833Y-110777011D01*
X164020722Y-110827806D01*
X163963269Y-110848850D01*
X163904420Y-110832106D01*
X163866652Y-110783968D01*
X163863985Y-110775541D01*
X163833429Y-110661504D01*
X163733605Y-110447432D01*
X163733601Y-110447424D01*
X163598113Y-110253926D01*
X163431073Y-110086886D01*
X163237577Y-109951399D01*
X163023489Y-109851569D01*
X162810000Y-109794364D01*
X162810000Y-110691988D01*
X162752993Y-110659075D01*
X162625826Y-110625000D01*
X162494174Y-110625000D01*
X162367007Y-110659075D01*
X162310000Y-110691988D01*
X162310000Y-109794364D01*
X162096505Y-109851570D01*
X161882432Y-109951394D01*
X161882424Y-109951398D01*
X161688926Y-110086886D01*
X161521886Y-110253926D01*
X161386398Y-110447424D01*
X161386394Y-110447432D01*
X161286570Y-110661505D01*
X161256014Y-110775541D01*
X161222689Y-110826856D01*
X161165568Y-110848782D01*
X161106467Y-110832946D01*
X161067962Y-110785396D01*
X161065172Y-110777028D01*
X161050582Y-110725750D01*
X160959673Y-110543179D01*
X160836764Y-110380421D01*
X160686041Y-110243019D01*
X160512637Y-110135652D01*
X160322456Y-110061976D01*
X160322455Y-110061975D01*
X160322453Y-110061975D01*
X160121976Y-110024500D01*
X159918024Y-110024500D01*
X159717546Y-110061975D01*
X159653243Y-110086886D01*
X159527363Y-110135652D01*
X159390359Y-110220481D01*
X159353959Y-110243019D01*
X159203237Y-110380420D01*
X159080328Y-110543177D01*
X159080323Y-110543186D01*
X158989419Y-110725747D01*
X158989418Y-110725750D01*
X158933603Y-110921917D01*
X158914785Y-111125000D01*
X158933603Y-111328083D01*
X158989418Y-111524250D01*
X159080327Y-111706821D01*
X159203236Y-111869579D01*
X159353959Y-112006981D01*
X159353963Y-112006983D01*
X159355449Y-112008338D01*
X159385715Y-112061513D01*
X159378944Y-112122323D01*
X159337724Y-112167540D01*
X159288753Y-112180500D01*
X158211247Y-112180500D01*
X158153056Y-112161593D01*
X158117092Y-112112093D01*
X158117092Y-112050907D01*
X158144551Y-112008338D01*
X158146036Y-112006983D01*
X158146041Y-112006981D01*
X158296764Y-111869579D01*
X158419673Y-111706821D01*
X158510582Y-111524250D01*
X158566397Y-111328083D01*
X158585215Y-111125000D01*
X158566397Y-110921917D01*
X158510582Y-110725750D01*
X158419673Y-110543179D01*
X158296764Y-110380421D01*
X158146041Y-110243019D01*
X157972637Y-110135652D01*
X157782456Y-110061976D01*
X157782455Y-110061975D01*
X157782453Y-110061975D01*
X157581976Y-110024500D01*
X157378024Y-110024500D01*
X157227191Y-110052695D01*
X157166517Y-110044802D01*
X157122070Y-110002753D01*
X157110000Y-109955381D01*
X157110000Y-109655000D01*
X157128907Y-109596809D01*
X157178407Y-109560845D01*
X157209000Y-109556000D01*
X194211000Y-109556000D01*
X194269191Y-109574907D01*
X194305155Y-109624407D01*
X194310000Y-109655000D01*
X194310000Y-110126326D01*
X194291093Y-110184517D01*
X194241593Y-110220481D01*
X194180407Y-110220481D01*
X194130907Y-110184517D01*
X194128684Y-110181327D01*
X194070602Y-110094400D01*
X194070599Y-110094397D01*
X193987742Y-110039035D01*
X193987740Y-110039034D01*
X193987737Y-110039033D01*
X193987736Y-110039033D01*
X193914684Y-110024501D01*
X193914674Y-110024500D01*
X192165326Y-110024500D01*
X192165325Y-110024500D01*
X192165315Y-110024501D01*
X192092263Y-110039033D01*
X192092257Y-110039035D01*
X192009400Y-110094397D01*
X192009397Y-110094400D01*
X191954035Y-110177257D01*
X191954033Y-110177263D01*
X191939501Y-110250315D01*
X191939500Y-110250327D01*
X191939500Y-111999672D01*
X191939501Y-111999684D01*
X191954033Y-112072736D01*
X191954035Y-112072742D01*
X192009397Y-112155599D01*
X192009400Y-112155602D01*
X192078995Y-112202103D01*
X192092260Y-112210966D01*
X192147808Y-112222015D01*
X192165315Y-112225498D01*
X192165320Y-112225498D01*
X192165326Y-112225500D01*
X192165327Y-112225500D01*
X193914673Y-112225500D01*
X193914674Y-112225500D01*
X193987740Y-112210966D01*
X194070601Y-112155601D01*
X194086650Y-112131582D01*
X194128684Y-112068673D01*
X194176733Y-112030792D01*
X194237871Y-112028390D01*
X194288746Y-112062382D01*
X194309924Y-112119785D01*
X194310000Y-112123673D01*
X194310000Y-131457000D01*
X194291093Y-131515191D01*
X194241593Y-131551155D01*
X194211000Y-131556000D01*
X184571074Y-131556000D01*
X184512883Y-131537093D01*
X184476919Y-131487593D01*
X184476919Y-131426407D01*
X184512883Y-131376907D01*
X184541893Y-131362398D01*
X184786560Y-131286927D01*
X185021178Y-131173941D01*
X185190170Y-131058724D01*
X184531427Y-130399981D01*
X184540784Y-130396106D01*
X184675907Y-130305819D01*
X184790819Y-130190907D01*
X184881106Y-130055784D01*
X184884981Y-130046427D01*
X185543230Y-130704676D01*
X185589614Y-130646514D01*
X185719816Y-130420999D01*
X185719820Y-130420991D01*
X185814964Y-130178566D01*
X185872909Y-129924691D01*
X185872911Y-129924681D01*
X185892372Y-129665002D01*
X185892372Y-129664997D01*
X185872911Y-129405318D01*
X185872910Y-129405311D01*
X185816537Y-129158325D01*
X185822022Y-129097386D01*
X185862278Y-129051309D01*
X185921929Y-129037694D01*
X185973322Y-129057753D01*
X186104390Y-129158325D01*
X186155792Y-129197767D01*
X186368708Y-129320694D01*
X186595847Y-129414778D01*
X186833323Y-129478409D01*
X187077073Y-129510500D01*
X187077074Y-129510500D01*
X187322926Y-129510500D01*
X187322927Y-129510500D01*
X187566677Y-129478409D01*
X187804153Y-129414778D01*
X188031292Y-129320694D01*
X188244208Y-129197767D01*
X188439256Y-129048101D01*
X188613101Y-128874256D01*
X188762767Y-128679208D01*
X188885694Y-128466292D01*
X188979778Y-128239153D01*
X189043409Y-128001677D01*
X189075500Y-127757927D01*
X189075500Y-127512073D01*
X189043409Y-127268323D01*
X188979778Y-127030847D01*
X188891178Y-126816948D01*
X188885697Y-126803715D01*
X188885696Y-126803714D01*
X188885694Y-126803708D01*
X188762767Y-126590792D01*
X188760534Y-126587882D01*
X188613106Y-126395750D01*
X188613104Y-126395748D01*
X188613101Y-126395744D01*
X188439256Y-126221899D01*
X188439251Y-126221895D01*
X188439249Y-126221893D01*
X188244211Y-126072235D01*
X188240657Y-126070183D01*
X188031292Y-125949306D01*
X188031288Y-125949304D01*
X188031284Y-125949302D01*
X187804154Y-125855222D01*
X187699440Y-125827164D01*
X187566677Y-125791591D01*
X187566674Y-125791590D01*
X187566672Y-125791590D01*
X187322927Y-125759500D01*
X187077073Y-125759500D01*
X187077072Y-125759500D01*
X186833330Y-125791590D01*
X186833325Y-125791590D01*
X186595845Y-125855222D01*
X186368715Y-125949302D01*
X186155788Y-126072235D01*
X185960750Y-126221893D01*
X185786893Y-126395750D01*
X185637235Y-126590788D01*
X185514302Y-126803715D01*
X185420222Y-127030845D01*
X185356590Y-127268325D01*
X185356590Y-127268330D01*
X185324500Y-127512072D01*
X185324500Y-127757927D01*
X185356590Y-128001669D01*
X185356590Y-128001674D01*
X185364264Y-128030315D01*
X185406353Y-128187394D01*
X185414805Y-128218935D01*
X185411602Y-128280037D01*
X185373097Y-128327587D01*
X185313996Y-128343422D01*
X185256875Y-128321495D01*
X185251843Y-128317132D01*
X185236357Y-128302764D01*
X185021178Y-128156058D01*
X184786560Y-128043072D01*
X184537718Y-127966314D01*
X184537708Y-127966312D01*
X184280211Y-127927500D01*
X184019788Y-127927500D01*
X183762291Y-127966312D01*
X183762281Y-127966314D01*
X183513439Y-128043072D01*
X183278812Y-128156062D01*
X183109827Y-128271273D01*
X183768571Y-128930018D01*
X183759216Y-128933894D01*
X183624093Y-129024181D01*
X183509181Y-129139093D01*
X183418894Y-129274216D01*
X183415018Y-129283572D01*
X182756768Y-128625322D01*
X182710390Y-128683479D01*
X182710381Y-128683493D01*
X182580183Y-128909000D01*
X182580179Y-128909008D01*
X182485035Y-129151433D01*
X182427090Y-129405308D01*
X182427088Y-129405318D01*
X182407628Y-129664997D01*
X182407628Y-129665002D01*
X182427088Y-129924681D01*
X182427090Y-129924691D01*
X182485035Y-130178566D01*
X182580179Y-130420991D01*
X182580183Y-130420999D01*
X182710381Y-130646506D01*
X182710391Y-130646521D01*
X182756768Y-130704676D01*
X183415017Y-130046426D01*
X183418894Y-130055784D01*
X183509181Y-130190907D01*
X183624093Y-130305819D01*
X183759216Y-130396106D01*
X183768571Y-130399980D01*
X183109828Y-131058724D01*
X183278821Y-131173941D01*
X183513439Y-131286927D01*
X183758107Y-131362398D01*
X183808139Y-131397618D01*
X183827915Y-131455519D01*
X183809880Y-131513986D01*
X183760924Y-131550686D01*
X183728926Y-131556000D01*
X139409000Y-131556000D01*
X139350809Y-131537093D01*
X139314845Y-131487593D01*
X139310000Y-131457000D01*
X139310000Y-129779672D01*
X143639500Y-129779672D01*
X143639501Y-129779684D01*
X143654033Y-129852736D01*
X143654035Y-129852742D01*
X143709397Y-129935599D01*
X143709400Y-129935602D01*
X143757924Y-129968024D01*
X143792260Y-129990966D01*
X143847808Y-130002015D01*
X143865315Y-130005498D01*
X143865320Y-130005498D01*
X143865326Y-130005500D01*
X143865327Y-130005500D01*
X145614673Y-130005500D01*
X145614674Y-130005500D01*
X145687740Y-129990966D01*
X145770601Y-129935601D01*
X145825966Y-129852740D01*
X145840500Y-129779674D01*
X145840500Y-128030326D01*
X145837550Y-128015498D01*
X145827837Y-127966667D01*
X145825966Y-127957260D01*
X145788338Y-127900945D01*
X145770602Y-127874400D01*
X145770599Y-127874397D01*
X145687742Y-127819035D01*
X145687740Y-127819034D01*
X145687737Y-127819033D01*
X145687736Y-127819033D01*
X145614684Y-127804501D01*
X145614674Y-127804500D01*
X143865326Y-127804500D01*
X143865325Y-127804500D01*
X143865315Y-127804501D01*
X143792263Y-127819033D01*
X143792257Y-127819035D01*
X143709400Y-127874397D01*
X143709397Y-127874400D01*
X143654035Y-127957257D01*
X143654033Y-127957263D01*
X143639501Y-128030315D01*
X143639500Y-128030327D01*
X143639500Y-129779672D01*
X139310000Y-129779672D01*
X139310000Y-128804322D01*
X140735001Y-128804322D01*
X140745142Y-128903597D01*
X140745145Y-128903609D01*
X140798454Y-129064487D01*
X140887425Y-129208729D01*
X141007270Y-129328574D01*
X141151512Y-129417545D01*
X141312396Y-129470856D01*
X141411677Y-129480999D01*
X141460000Y-129480998D01*
X141960000Y-129480998D01*
X141960001Y-129480999D01*
X142008322Y-129480999D01*
X142107597Y-129470857D01*
X142107609Y-129470854D01*
X142268487Y-129417545D01*
X142412729Y-129328574D01*
X142532574Y-129208729D01*
X142621545Y-129064487D01*
X142674856Y-128903603D01*
X142685000Y-128804323D01*
X142685000Y-128781001D01*
X142684999Y-128781000D01*
X141960001Y-128781000D01*
X141960000Y-128781001D01*
X141960000Y-129480998D01*
X141460000Y-129480998D01*
X141460000Y-128781001D01*
X141459999Y-128781000D01*
X140735002Y-128781000D01*
X140735001Y-128781001D01*
X140735001Y-128804322D01*
X139310000Y-128804322D01*
X139310000Y-111624999D01*
X141125000Y-111624999D01*
X141125001Y-111625000D01*
X141849999Y-111625000D01*
X141850000Y-111624999D01*
X142350000Y-111624999D01*
X142350001Y-111625000D01*
X143074998Y-111625000D01*
X143074999Y-111624999D01*
X143074999Y-111618433D01*
X143074998Y-111618417D01*
X143068591Y-111547896D01*
X143068589Y-111547890D01*
X143018020Y-111385607D01*
X143018017Y-111385599D01*
X142930075Y-111240127D01*
X142814948Y-111125000D01*
X143674785Y-111125000D01*
X143693603Y-111328083D01*
X143749418Y-111524250D01*
X143840327Y-111706821D01*
X143963236Y-111869579D01*
X144113959Y-112006981D01*
X144287363Y-112114348D01*
X144477544Y-112188024D01*
X144678024Y-112225500D01*
X144881976Y-112225500D01*
X145082456Y-112188024D01*
X145272637Y-112114348D01*
X145446041Y-112006981D01*
X145596764Y-111869579D01*
X145719673Y-111706821D01*
X145810582Y-111524250D01*
X145866397Y-111328083D01*
X145885215Y-111125000D01*
X145866397Y-110921917D01*
X145810582Y-110725750D01*
X145719673Y-110543179D01*
X145596764Y-110380421D01*
X145446041Y-110243019D01*
X145272637Y-110135652D01*
X145082456Y-110061976D01*
X145082455Y-110061975D01*
X145082453Y-110061975D01*
X144881976Y-110024500D01*
X144678024Y-110024500D01*
X144477546Y-110061975D01*
X144413243Y-110086886D01*
X144287363Y-110135652D01*
X144150359Y-110220481D01*
X144113959Y-110243019D01*
X143963237Y-110380420D01*
X143840328Y-110543177D01*
X143840323Y-110543186D01*
X143749419Y-110725747D01*
X143749418Y-110725750D01*
X143693603Y-110921917D01*
X143674785Y-111125000D01*
X142814948Y-111125000D01*
X142809872Y-111119924D01*
X142664400Y-111031982D01*
X142664392Y-111031979D01*
X142502110Y-110981410D01*
X142502104Y-110981408D01*
X142431581Y-110975000D01*
X142350001Y-110975000D01*
X142350000Y-110975001D01*
X142350000Y-111624999D01*
X141850000Y-111624999D01*
X141850000Y-110975001D01*
X141849998Y-110974999D01*
X141768434Y-110975000D01*
X141768417Y-110975001D01*
X141697896Y-110981408D01*
X141697890Y-110981410D01*
X141535607Y-111031979D01*
X141535599Y-111031982D01*
X141390127Y-111119924D01*
X141269924Y-111240127D01*
X141181982Y-111385599D01*
X141181979Y-111385607D01*
X141131410Y-111547889D01*
X141131408Y-111547895D01*
X141125000Y-111618418D01*
X141125000Y-111624999D01*
X139310000Y-111624999D01*
X139310000Y-109655000D01*
X139328907Y-109596809D01*
X139378407Y-109560845D01*
X139409000Y-109556000D01*
X151411000Y-109556000D01*
X151469191Y-109574907D01*
G37*
%TD.AperFunction*%
%TA.AperFunction,Conductor*%
G36*
X143964004Y-115341041D02*
G01*
X144445504Y-115822541D01*
X144473281Y-115877058D01*
X144474500Y-115892545D01*
X144474500Y-115924679D01*
X144485641Y-115980687D01*
X144485641Y-116019313D01*
X144474500Y-116075320D01*
X144474500Y-116574679D01*
X144485641Y-116630687D01*
X144485641Y-116669313D01*
X144474500Y-116725320D01*
X144474500Y-116913387D01*
X144455593Y-116971578D01*
X144434830Y-116992640D01*
X144367812Y-117042810D01*
X144367807Y-117042815D01*
X144281647Y-117157909D01*
X144281646Y-117157911D01*
X144231403Y-117292618D01*
X144231401Y-117292629D01*
X144225000Y-117352175D01*
X144225000Y-117399999D01*
X144225001Y-117400000D01*
X144543401Y-117400000D01*
X144598401Y-117416683D01*
X144627260Y-117435966D01*
X144682808Y-117447015D01*
X144700315Y-117450498D01*
X144700320Y-117450498D01*
X144700326Y-117450500D01*
X144700327Y-117450500D01*
X146499673Y-117450500D01*
X146499674Y-117450500D01*
X146572740Y-117435966D01*
X146601598Y-117416683D01*
X146656599Y-117400000D01*
X146974999Y-117400000D01*
X146995503Y-117379496D01*
X147050020Y-117351719D01*
X147065507Y-117350500D01*
X147176832Y-117350500D01*
X147224582Y-117337705D01*
X147224583Y-117337705D01*
X147272330Y-117324911D01*
X147272329Y-117324911D01*
X147272334Y-117324910D01*
X147357958Y-117275475D01*
X147427871Y-117205562D01*
X147496496Y-117136937D01*
X147551013Y-117109160D01*
X147611445Y-117118731D01*
X147654710Y-117161996D01*
X147665500Y-117206941D01*
X147665500Y-117228455D01*
X147646593Y-117286646D01*
X147636504Y-117298459D01*
X147099985Y-117834978D01*
X147045468Y-117862755D01*
X146985036Y-117853184D01*
X146980653Y-117850000D01*
X146656599Y-117850000D01*
X146601598Y-117833316D01*
X146572742Y-117814035D01*
X146572740Y-117814034D01*
X146572737Y-117814033D01*
X146572736Y-117814033D01*
X146499684Y-117799501D01*
X146499674Y-117799500D01*
X144700326Y-117799500D01*
X144700325Y-117799500D01*
X144700315Y-117799501D01*
X144627263Y-117814033D01*
X144627257Y-117814035D01*
X144598402Y-117833316D01*
X144543401Y-117850000D01*
X144225001Y-117850000D01*
X144225000Y-117850001D01*
X144225000Y-117897824D01*
X144224999Y-117897824D01*
X144231401Y-117957370D01*
X144231403Y-117957381D01*
X144281646Y-118092088D01*
X144281647Y-118092090D01*
X144367807Y-118207184D01*
X144367814Y-118207191D01*
X144434828Y-118257357D01*
X144470082Y-118307366D01*
X144474500Y-118336611D01*
X144474500Y-118524679D01*
X144485641Y-118580687D01*
X144485641Y-118619313D01*
X144474500Y-118675320D01*
X144474500Y-119031327D01*
X144455593Y-119089518D01*
X144406093Y-119125482D01*
X144344907Y-119125482D01*
X144329492Y-119118987D01*
X144245017Y-119074650D01*
X144091640Y-119036847D01*
X144091638Y-119036847D01*
X143933668Y-119036847D01*
X143933665Y-119036847D01*
X143780288Y-119074650D01*
X143653627Y-119141128D01*
X143593315Y-119151429D01*
X143538466Y-119124312D01*
X143510032Y-119070135D01*
X143511992Y-119027847D01*
X143530063Y-118960408D01*
X143530063Y-118960407D01*
X143530064Y-118960404D01*
X143550659Y-118725004D01*
X143550659Y-118724995D01*
X143530064Y-118489599D01*
X143530063Y-118489596D01*
X143530063Y-118489592D01*
X143468903Y-118261337D01*
X143447150Y-118214687D01*
X143369040Y-118047181D01*
X143369036Y-118047173D01*
X143365366Y-118041932D01*
X143292615Y-117938032D01*
X143274727Y-117879521D01*
X143294647Y-117821669D01*
X143344768Y-117786575D01*
X143363132Y-117782816D01*
X143402370Y-117778598D01*
X143402381Y-117778596D01*
X143537088Y-117728353D01*
X143537090Y-117728352D01*
X143652184Y-117642192D01*
X143652192Y-117642184D01*
X143738352Y-117527090D01*
X143738353Y-117527088D01*
X143788596Y-117392381D01*
X143788598Y-117392370D01*
X143795000Y-117332824D01*
X143795000Y-116435001D01*
X143794999Y-116435000D01*
X142685748Y-116435000D01*
X142707518Y-116397292D01*
X142745000Y-116257409D01*
X142745000Y-116112591D01*
X142707518Y-115972708D01*
X142685748Y-115935000D01*
X143794999Y-115935000D01*
X143795000Y-115934999D01*
X143795000Y-115411045D01*
X143813907Y-115352854D01*
X143863407Y-115316890D01*
X143924593Y-115316890D01*
X143964004Y-115341041D01*
G37*
%TD.AperFunction*%
%TA.AperFunction,Conductor*%
G36*
X174636361Y-115350407D02*
G01*
X174672325Y-115399907D01*
X174677170Y-115430500D01*
X174677170Y-115612303D01*
X174658263Y-115670494D01*
X174608763Y-115706458D01*
X174578667Y-115709886D01*
X174003787Y-116284766D01*
X173992518Y-116242708D01*
X173920110Y-116117292D01*
X173817708Y-116014890D01*
X173692292Y-115942482D01*
X173650234Y-115931212D01*
X174220948Y-115360497D01*
X174275465Y-115332719D01*
X174290952Y-115331500D01*
X174578170Y-115331500D01*
X174636361Y-115350407D01*
G37*
%TD.AperFunction*%
%TD*%
M02*
