%TF.GenerationSoftware,KiCad,Pcbnew,8.0.0*%
%TF.CreationDate,2024-03-13T21:01:22-04:00*%
%TF.ProjectId,pico-ethernet,7069636f-2d65-4746-9865-726e65742e6b,rev?*%
%TF.SameCoordinates,Original*%
%TF.FileFunction,Legend,Top*%
%TF.FilePolarity,Positive*%
%FSLAX46Y46*%
G04 Gerber Fmt 4.6, Leading zero omitted, Abs format (unit mm)*
G04 Created by KiCad (PCBNEW 8.0.0) date 2024-03-13 21:01:22*
%MOMM*%
%LPD*%
G01*
G04 APERTURE LIST*
%ADD10C,0.150000*%
%ADD11C,0.120000*%
%ADD12C,0.127000*%
%ADD13C,0.200000*%
%ADD14C,0.000000*%
%ADD15C,0.152400*%
%ADD16C,0.508000*%
G04 APERTURE END LIST*
D10*
X140204819Y-113833333D02*
X140919104Y-113833333D01*
X140919104Y-113833333D02*
X141061961Y-113880952D01*
X141061961Y-113880952D02*
X141157200Y-113976190D01*
X141157200Y-113976190D02*
X141204819Y-114119047D01*
X141204819Y-114119047D02*
X141204819Y-114214285D01*
X140204819Y-112880952D02*
X140204819Y-113357142D01*
X140204819Y-113357142D02*
X140681009Y-113404761D01*
X140681009Y-113404761D02*
X140633390Y-113357142D01*
X140633390Y-113357142D02*
X140585771Y-113261904D01*
X140585771Y-113261904D02*
X140585771Y-113023809D01*
X140585771Y-113023809D02*
X140633390Y-112928571D01*
X140633390Y-112928571D02*
X140681009Y-112880952D01*
X140681009Y-112880952D02*
X140776247Y-112833333D01*
X140776247Y-112833333D02*
X141014342Y-112833333D01*
X141014342Y-112833333D02*
X141109580Y-112880952D01*
X141109580Y-112880952D02*
X141157200Y-112928571D01*
X141157200Y-112928571D02*
X141204819Y-113023809D01*
X141204819Y-113023809D02*
X141204819Y-113261904D01*
X141204819Y-113261904D02*
X141157200Y-113357142D01*
X141157200Y-113357142D02*
X141109580Y-113404761D01*
X150888628Y-123632190D02*
X151364819Y-123632190D01*
X150364819Y-123965523D02*
X150888628Y-123632190D01*
X150888628Y-123632190D02*
X150364819Y-123298857D01*
X151364819Y-122441714D02*
X151364819Y-123013142D01*
X151364819Y-122727428D02*
X150364819Y-122727428D01*
X150364819Y-122727428D02*
X150507676Y-122822666D01*
X150507676Y-122822666D02*
X150602914Y-122917904D01*
X150602914Y-122917904D02*
X150650533Y-123013142D01*
X170764819Y-119889333D02*
X171479104Y-119889333D01*
X171479104Y-119889333D02*
X171621961Y-119936952D01*
X171621961Y-119936952D02*
X171717200Y-120032190D01*
X171717200Y-120032190D02*
X171764819Y-120175047D01*
X171764819Y-120175047D02*
X171764819Y-120270285D01*
X171098152Y-118984571D02*
X171764819Y-118984571D01*
X170717200Y-119222666D02*
X171431485Y-119460761D01*
X171431485Y-119460761D02*
X171431485Y-118841714D01*
X158454819Y-127333333D02*
X159169104Y-127333333D01*
X159169104Y-127333333D02*
X159311961Y-127380952D01*
X159311961Y-127380952D02*
X159407200Y-127476190D01*
X159407200Y-127476190D02*
X159454819Y-127619047D01*
X159454819Y-127619047D02*
X159454819Y-127714285D01*
X158454819Y-126952380D02*
X158454819Y-126333333D01*
X158454819Y-126333333D02*
X158835771Y-126666666D01*
X158835771Y-126666666D02*
X158835771Y-126523809D01*
X158835771Y-126523809D02*
X158883390Y-126428571D01*
X158883390Y-126428571D02*
X158931009Y-126380952D01*
X158931009Y-126380952D02*
X159026247Y-126333333D01*
X159026247Y-126333333D02*
X159264342Y-126333333D01*
X159264342Y-126333333D02*
X159359580Y-126380952D01*
X159359580Y-126380952D02*
X159407200Y-126428571D01*
X159407200Y-126428571D02*
X159454819Y-126523809D01*
X159454819Y-126523809D02*
X159454819Y-126809523D01*
X159454819Y-126809523D02*
X159407200Y-126904761D01*
X159407200Y-126904761D02*
X159359580Y-126952380D01*
D11*
%TO.C,J5*%
X138795000Y-114385000D02*
X138795000Y-114885000D01*
X139035000Y-114625000D02*
X139035000Y-125365000D01*
X139535000Y-114385000D02*
X138795000Y-114385000D01*
X139595000Y-114625000D02*
X139595000Y-125365000D01*
X144895000Y-114625000D02*
X144895000Y-125365000D01*
X145355000Y-114625000D02*
X139035000Y-114625000D01*
X145355000Y-114625000D02*
X145355000Y-125365000D01*
X145355000Y-125365000D02*
X139035000Y-125365000D01*
%TO.C,Y1*%
X146310000Y-119656000D02*
X146310000Y-125406000D01*
X146310000Y-125406000D02*
X149910000Y-125406000D01*
X149910000Y-125406000D02*
X149910000Y-119656000D01*
D12*
%TO.C,J4*%
X172590000Y-113855000D02*
X182090000Y-113855000D01*
X172590000Y-115120000D02*
X172590000Y-113855000D01*
X172590000Y-122920000D02*
X172590000Y-120920000D01*
X172590000Y-129985000D02*
X172590000Y-128720000D01*
X172590000Y-129985000D02*
X182090000Y-129985000D01*
X186190000Y-113855000D02*
X197990000Y-113855000D01*
X186190000Y-129985000D02*
X197990000Y-129985000D01*
X197990000Y-113855000D02*
X197990000Y-129985000D01*
D13*
X180750000Y-112920000D02*
G75*
G02*
X180550000Y-112920000I-100000J0D01*
G01*
X180550000Y-112920000D02*
G75*
G02*
X180750000Y-112920000I100000J0D01*
G01*
D14*
%TO.C,G\u002A\u002A\u002A*%
G36*
X165813780Y-124833355D02*
G01*
X165865671Y-124859683D01*
X165905743Y-124900842D01*
X165935729Y-124955955D01*
X165942393Y-125012658D01*
X165925811Y-125071897D01*
X165920327Y-125082972D01*
X165881396Y-125134288D01*
X165830232Y-125168825D01*
X165771721Y-125185100D01*
X165710746Y-125181631D01*
X165660366Y-125161898D01*
X165613131Y-125123410D01*
X165583964Y-125075647D01*
X165571770Y-125022753D01*
X165575453Y-124968873D01*
X165593919Y-124918151D01*
X165626072Y-124874733D01*
X165670816Y-124842763D01*
X165727057Y-124826386D01*
X165749371Y-124825104D01*
X165813780Y-124833355D01*
G37*
G36*
X169462029Y-128231753D02*
G01*
X169512569Y-128252885D01*
X169551211Y-128287366D01*
X169577256Y-128331395D01*
X169590008Y-128381165D01*
X169588767Y-128432874D01*
X169572835Y-128482717D01*
X169541515Y-128526890D01*
X169494107Y-128561589D01*
X169463880Y-128574288D01*
X169425633Y-128584845D01*
X169395049Y-128585351D01*
X169361856Y-128574777D01*
X169333587Y-128561260D01*
X169281468Y-128523862D01*
X169249287Y-128474298D01*
X169236653Y-128411907D01*
X169236451Y-128396880D01*
X169247870Y-128335034D01*
X169278417Y-128284748D01*
X169325545Y-128248651D01*
X169386707Y-128229373D01*
X169400289Y-128227776D01*
X169462029Y-128231753D01*
G37*
G36*
X166917060Y-123374271D02*
G01*
X167077420Y-123377527D01*
X167077420Y-123711583D01*
X167077420Y-124045640D01*
X167046005Y-124112666D01*
X167022092Y-124159463D01*
X166994783Y-124206905D01*
X166979137Y-124231221D01*
X166943685Y-124282749D01*
X167017342Y-124428194D01*
X167085177Y-124582195D01*
X167131567Y-124735836D01*
X167157798Y-124894481D01*
X167165233Y-125044878D01*
X167165330Y-125118136D01*
X167388824Y-125118136D01*
X167466418Y-125118274D01*
X167523545Y-125118873D01*
X167563181Y-125120216D01*
X167588301Y-125122582D01*
X167601881Y-125126252D01*
X167606894Y-125131506D01*
X167606318Y-125138626D01*
X167606311Y-125138648D01*
X167599836Y-125166662D01*
X167590770Y-125214135D01*
X167579697Y-125277298D01*
X167567200Y-125352383D01*
X167553861Y-125435623D01*
X167540264Y-125523248D01*
X167526992Y-125611491D01*
X167514628Y-125696583D01*
X167503754Y-125774757D01*
X167494954Y-125842244D01*
X167488811Y-125895276D01*
X167487987Y-125903462D01*
X167483100Y-125948867D01*
X167477948Y-125989350D01*
X167474395Y-126011883D01*
X167468220Y-126044117D01*
X166332457Y-126044117D01*
X165196694Y-126044117D01*
X165245064Y-125906392D01*
X165264533Y-125852335D01*
X165282212Y-125805746D01*
X165296207Y-125771458D01*
X165304619Y-125754307D01*
X165304837Y-125754015D01*
X165319744Y-125747042D01*
X165353021Y-125742254D01*
X165406461Y-125739478D01*
X165413897Y-125739364D01*
X165976664Y-125739364D01*
X166172474Y-125739364D01*
X166237262Y-125739062D01*
X166293001Y-125738225D01*
X166335852Y-125736958D01*
X166361977Y-125735366D01*
X166368283Y-125734024D01*
X166362291Y-125721970D01*
X166347179Y-125697800D01*
X166338945Y-125685451D01*
X166316491Y-125646213D01*
X166298511Y-125604539D01*
X166296091Y-125597108D01*
X166282575Y-125551997D01*
X166229297Y-125595655D01*
X166193738Y-125621252D01*
X166145523Y-125651334D01*
X166093299Y-125680601D01*
X166076342Y-125689338D01*
X165976664Y-125739364D01*
X165413897Y-125739364D01*
X165464250Y-125738592D01*
X165612261Y-125737821D01*
X165547794Y-125720965D01*
X165472506Y-125695107D01*
X165390341Y-125656643D01*
X165310286Y-125610229D01*
X165246932Y-125565079D01*
X165208465Y-125529983D01*
X165164523Y-125483420D01*
X165122563Y-125433475D01*
X165108246Y-125414692D01*
X165037918Y-125319141D01*
X164907823Y-125318269D01*
X164842806Y-125318641D01*
X164775070Y-125320354D01*
X164714821Y-125323099D01*
X164688049Y-125324978D01*
X164598371Y-125332559D01*
X164598525Y-125386515D01*
X164601134Y-125421298D01*
X164607954Y-125471562D01*
X164617684Y-125530002D01*
X164629020Y-125589315D01*
X164640663Y-125642197D01*
X164650764Y-125679647D01*
X164653430Y-125695884D01*
X164646382Y-125702521D01*
X164626931Y-125699086D01*
X164592390Y-125685110D01*
X164540639Y-125660405D01*
X164442123Y-125599265D01*
X164353690Y-125519445D01*
X164278522Y-125424669D01*
X164219802Y-125318660D01*
X164195614Y-125256747D01*
X164170629Y-125152329D01*
X164160373Y-125037729D01*
X164162730Y-124968779D01*
X164530012Y-124968779D01*
X164530486Y-124999187D01*
X164532051Y-125006183D01*
X164537706Y-125012937D01*
X164550844Y-125017824D01*
X164574687Y-125021127D01*
X164612455Y-125023129D01*
X164667369Y-125024114D01*
X164738658Y-125024366D01*
X164938288Y-125024366D01*
X164938288Y-125006538D01*
X165307508Y-125006538D01*
X165308600Y-125062628D01*
X165312912Y-125103882D01*
X165321999Y-125138846D01*
X165337414Y-125176065D01*
X165338921Y-125179299D01*
X165392573Y-125268235D01*
X165461004Y-125340915D01*
X165541354Y-125396145D01*
X165630763Y-125432734D01*
X165726371Y-125449489D01*
X165825317Y-125445219D01*
X165918802Y-125420973D01*
X166007430Y-125376061D01*
X166083017Y-125312880D01*
X166143564Y-125233839D01*
X166187070Y-125141349D01*
X166205083Y-125076032D01*
X166211614Y-124988720D01*
X166197267Y-124899176D01*
X166163598Y-124811965D01*
X166112165Y-124731655D01*
X166072883Y-124688152D01*
X165994370Y-124627745D01*
X165903945Y-124586477D01*
X165827752Y-124568844D01*
X165720659Y-124564610D01*
X165621127Y-124582169D01*
X165530835Y-124620632D01*
X165451461Y-124679111D01*
X165384683Y-124756718D01*
X165345170Y-124824297D01*
X165326574Y-124864483D01*
X165315324Y-124897946D01*
X165309617Y-124933407D01*
X165307652Y-124979589D01*
X165307508Y-125006538D01*
X164938288Y-125006538D01*
X164938288Y-124825104D01*
X164938123Y-124758916D01*
X164937667Y-124700977D01*
X164936976Y-124655320D01*
X164936108Y-124625979D01*
X164935357Y-124617052D01*
X164922400Y-124611495D01*
X164892559Y-124609145D01*
X164852136Y-124609747D01*
X164807433Y-124613045D01*
X164764753Y-124618786D01*
X164735742Y-124625121D01*
X164683818Y-124647658D01*
X164632182Y-124683311D01*
X164589181Y-124725542D01*
X164568297Y-124756267D01*
X164558534Y-124783975D01*
X164548829Y-124825937D01*
X164540178Y-124875297D01*
X164533574Y-124925196D01*
X164530012Y-124968779D01*
X164162730Y-124968779D01*
X164164413Y-124919537D01*
X164182318Y-124804340D01*
X164213655Y-124698727D01*
X164235515Y-124648983D01*
X164293609Y-124556664D01*
X164369254Y-124472624D01*
X164457441Y-124401321D01*
X164553162Y-124347211D01*
X164592510Y-124331354D01*
X164646445Y-124317190D01*
X164718689Y-124305600D01*
X164804212Y-124296961D01*
X164897983Y-124291652D01*
X164994971Y-124290052D01*
X165090146Y-124292538D01*
X165100940Y-124293114D01*
X165234290Y-124300643D01*
X165227791Y-124363612D01*
X165225060Y-124398350D01*
X165224901Y-124421220D01*
X165226407Y-124426581D01*
X165238021Y-124420299D01*
X165262005Y-124404265D01*
X165278891Y-124392268D01*
X165339024Y-124356172D01*
X165415321Y-124321704D01*
X165500536Y-124291727D01*
X165587423Y-124269104D01*
X165594267Y-124267690D01*
X165700257Y-124254654D01*
X165814380Y-124255097D01*
X165925840Y-124268676D01*
X165975620Y-124279863D01*
X166093004Y-124321630D01*
X166204490Y-124381775D01*
X166306308Y-124457277D01*
X166394686Y-124545114D01*
X166465855Y-124642265D01*
X166495150Y-124696170D01*
X166517786Y-124746676D01*
X166535276Y-124794943D01*
X166548253Y-124845100D01*
X166557347Y-124901279D01*
X166563190Y-124967607D01*
X166566413Y-125048215D01*
X166567648Y-125147232D01*
X166567713Y-125170882D01*
X166568446Y-125260538D01*
X166570864Y-125330438D01*
X166575767Y-125384255D01*
X166583955Y-125425659D01*
X166596228Y-125458320D01*
X166613384Y-125485911D01*
X166636225Y-125512101D01*
X166643683Y-125519619D01*
X166669837Y-125541321D01*
X166701120Y-125558031D01*
X166740718Y-125570326D01*
X166791821Y-125578785D01*
X166857614Y-125583986D01*
X166941287Y-125586507D01*
X167015080Y-125586987D01*
X167235657Y-125586987D01*
X167235657Y-125503172D01*
X167235657Y-125419358D01*
X167054044Y-125425986D01*
X166983494Y-125428269D01*
X166932502Y-125428999D01*
X166897223Y-125427934D01*
X166873809Y-125424832D01*
X166858413Y-125419452D01*
X166848988Y-125413101D01*
X166841340Y-125405286D01*
X166835400Y-125394141D01*
X166830835Y-125376604D01*
X166827313Y-125349616D01*
X166824502Y-125310116D01*
X166822069Y-125255042D01*
X166819681Y-125181334D01*
X166818214Y-125129857D01*
X166813961Y-125013000D01*
X166807658Y-124915504D01*
X166798327Y-124833313D01*
X166784989Y-124762369D01*
X166766665Y-124698617D01*
X166742376Y-124637999D01*
X166711142Y-124576459D01*
X166671986Y-124509939D01*
X166666458Y-124501029D01*
X166620662Y-124437984D01*
X166560332Y-124369895D01*
X166491634Y-124302726D01*
X166420732Y-124242439D01*
X166353791Y-124194997D01*
X166343870Y-124189002D01*
X166213885Y-124123407D01*
X166079116Y-124077344D01*
X165935714Y-124049822D01*
X165779831Y-124039850D01*
X165764637Y-124039779D01*
X165639276Y-124044354D01*
X165528082Y-124058942D01*
X165423458Y-124084842D01*
X165349152Y-124110750D01*
X165308310Y-124126181D01*
X165277150Y-124137223D01*
X165260986Y-124142015D01*
X165259872Y-124141983D01*
X165260011Y-124130021D01*
X165261847Y-124099289D01*
X165265072Y-124054375D01*
X165269377Y-123999867D01*
X165269604Y-123997096D01*
X165281328Y-123854783D01*
X165335442Y-123830750D01*
X165377972Y-123813174D01*
X165420355Y-123797647D01*
X165433238Y-123793495D01*
X165476920Y-123780273D01*
X165480123Y-123578900D01*
X165483327Y-123377527D01*
X165641564Y-123377527D01*
X165799801Y-123377527D01*
X165803037Y-123556276D01*
X165806272Y-123735026D01*
X165852547Y-123735026D01*
X165898821Y-123735026D01*
X165902057Y-123556276D01*
X165905293Y-123377527D01*
X166057669Y-123377527D01*
X166210046Y-123377527D01*
X166213235Y-123582835D01*
X166216425Y-123788143D01*
X166268664Y-123806928D01*
X166320902Y-123825713D01*
X166324080Y-123601620D01*
X166327258Y-123377527D01*
X166485496Y-123377527D01*
X166643733Y-123377527D01*
X166639630Y-123682280D01*
X166635527Y-123987033D01*
X166682236Y-124032050D01*
X166710970Y-124057529D01*
X166728603Y-124066769D01*
X166738863Y-124061691D01*
X166739085Y-124061354D01*
X166741815Y-124045969D01*
X166744527Y-124010252D01*
X166747098Y-123957312D01*
X166749407Y-123890259D01*
X166751332Y-123812202D01*
X166752749Y-123726251D01*
X166752962Y-123708328D01*
X166756699Y-123371015D01*
X166917060Y-123374271D01*
G37*
G36*
X170872535Y-123811427D02*
G01*
X170865763Y-123885250D01*
X170850743Y-123976478D01*
X170828430Y-124080957D01*
X170799780Y-124194533D01*
X170765747Y-124313051D01*
X170735077Y-124409264D01*
X170634993Y-124675280D01*
X170515339Y-124933186D01*
X170377687Y-125180145D01*
X170223606Y-125413320D01*
X170069317Y-125612480D01*
X169995646Y-125697900D01*
X169929210Y-125768478D01*
X169864746Y-125829204D01*
X169796991Y-125885068D01*
X169729182Y-125935080D01*
X169687784Y-125965970D01*
X169653053Y-125994868D01*
X169630139Y-126017352D01*
X169624779Y-126024703D01*
X169613532Y-126043644D01*
X169592201Y-126077646D01*
X169563639Y-126122223D01*
X169530701Y-126172889D01*
X169523630Y-126183677D01*
X169424609Y-126323876D01*
X169312862Y-126463505D01*
X169193670Y-126596554D01*
X169072313Y-126717011D01*
X168994753Y-126785724D01*
X168967770Y-126809735D01*
X168950967Y-126827307D01*
X168947868Y-126833636D01*
X168960516Y-126838951D01*
X168990159Y-126849502D01*
X169031453Y-126863415D01*
X169052455Y-126870288D01*
X169183508Y-126919435D01*
X169322750Y-126983629D01*
X169463878Y-127059487D01*
X169600591Y-127143625D01*
X169724377Y-127230979D01*
X169761302Y-127260651D01*
X169804425Y-127297832D01*
X169850645Y-127339534D01*
X169896863Y-127382770D01*
X169939979Y-127424554D01*
X169976893Y-127461899D01*
X170004504Y-127491817D01*
X170019713Y-127511322D01*
X170021367Y-127517136D01*
X170008439Y-127515941D01*
X169983514Y-127505921D01*
X169976893Y-127502618D01*
X169935237Y-127484141D01*
X169876864Y-127462347D01*
X169807896Y-127439201D01*
X169734457Y-127416668D01*
X169662668Y-127396713D01*
X169599283Y-127381435D01*
X169384187Y-127346997D01*
X169165116Y-127335614D01*
X169070037Y-127337781D01*
X169009806Y-127341552D01*
X168943384Y-127347483D01*
X168875138Y-127354977D01*
X168809433Y-127363438D01*
X168750635Y-127372270D01*
X168703111Y-127380878D01*
X168671226Y-127388666D01*
X168660081Y-127393728D01*
X168659073Y-127405840D01*
X168658037Y-127437852D01*
X168657006Y-127486221D01*
X168656012Y-127547403D01*
X168655091Y-127617857D01*
X168654275Y-127694038D01*
X168653598Y-127772405D01*
X168653094Y-127849414D01*
X168652796Y-127921523D01*
X168652739Y-127985188D01*
X168652955Y-128036867D01*
X168653479Y-128073017D01*
X168653592Y-128077068D01*
X168659157Y-128073532D01*
X168673489Y-128053871D01*
X168693586Y-128022236D01*
X168695359Y-128019303D01*
X168768747Y-127915598D01*
X168855547Y-127823899D01*
X168951832Y-127747639D01*
X169053674Y-127690257D01*
X169087618Y-127676130D01*
X169151224Y-127652776D01*
X169201417Y-127637091D01*
X169246352Y-127627564D01*
X169294186Y-127622685D01*
X169353077Y-127620944D01*
X169386511Y-127620780D01*
X169482926Y-127623527D01*
X169563154Y-127633340D01*
X169633900Y-127652230D01*
X169701869Y-127682209D01*
X169773765Y-127725289D01*
X169804491Y-127746197D01*
X169870833Y-127792503D01*
X169990835Y-127762241D01*
X170046133Y-127749380D01*
X170097929Y-127739235D01*
X170138946Y-127733140D01*
X170155870Y-127731980D01*
X170176831Y-127732660D01*
X170192258Y-127737282D01*
X170205791Y-127749716D01*
X170221069Y-127773834D01*
X170241732Y-127813508D01*
X170252291Y-127834541D01*
X170329998Y-128010882D01*
X170392077Y-128196624D01*
X170436319Y-128384491D01*
X170453574Y-128496793D01*
X170459205Y-128532943D01*
X170465444Y-128557404D01*
X170469784Y-128564191D01*
X170483422Y-128558305D01*
X170509674Y-128543209D01*
X170529971Y-128530462D01*
X170603236Y-128472395D01*
X170672668Y-128397819D01*
X170732953Y-128313619D01*
X170778777Y-128226681D01*
X170792799Y-128189907D01*
X170816923Y-128085340D01*
X170824667Y-127971564D01*
X170816261Y-127855914D01*
X170791933Y-127745727D01*
X170777636Y-127704416D01*
X170755303Y-127652215D01*
X170728989Y-127602234D01*
X170696549Y-127551711D01*
X170655838Y-127497882D01*
X170604710Y-127437984D01*
X170541019Y-127369254D01*
X170462621Y-127288927D01*
X170428569Y-127254829D01*
X170367173Y-127192733D01*
X170308647Y-127131840D01*
X170255949Y-127075362D01*
X170212038Y-127026506D01*
X170179873Y-126988483D01*
X170165733Y-126969740D01*
X170095339Y-126850942D01*
X170046735Y-126732611D01*
X170018671Y-126610894D01*
X170009900Y-126489525D01*
X170012985Y-126398788D01*
X170024539Y-126319945D01*
X170046722Y-126243184D01*
X170081692Y-126158694D01*
X170083590Y-126154577D01*
X170145361Y-126048519D01*
X170225976Y-125955077D01*
X170323602Y-125875820D01*
X170436406Y-125812317D01*
X170523474Y-125778059D01*
X170570213Y-125763823D01*
X170612420Y-125754551D01*
X170657815Y-125749193D01*
X170714118Y-125746697D01*
X170757900Y-125746125D01*
X170867960Y-125750575D01*
X170961099Y-125766517D01*
X171041639Y-125795532D01*
X171113903Y-125839202D01*
X171182216Y-125899109D01*
X171185697Y-125902653D01*
X171253225Y-125987329D01*
X171299869Y-126080118D01*
X171325198Y-126178375D01*
X171328779Y-126279457D01*
X171310180Y-126380721D01*
X171277402Y-126463385D01*
X171225250Y-126543247D01*
X171158249Y-126608243D01*
X171079901Y-126657369D01*
X170993704Y-126689624D01*
X170903161Y-126704004D01*
X170811772Y-126699508D01*
X170723038Y-126675133D01*
X170656939Y-126641048D01*
X170590789Y-126586734D01*
X170536016Y-126518302D01*
X170494818Y-126440634D01*
X170469395Y-126358613D01*
X170461944Y-126277119D01*
X170468630Y-126222866D01*
X170474206Y-126188810D01*
X170470126Y-126175523D01*
X170455549Y-126182758D01*
X170429636Y-126210267D01*
X170428892Y-126211145D01*
X170382024Y-126284173D01*
X170353368Y-126368530D01*
X170343667Y-126459910D01*
X170353666Y-126554008D01*
X170363253Y-126591132D01*
X170381032Y-126641549D01*
X170403956Y-126689845D01*
X170434195Y-126738923D01*
X170473919Y-126791688D01*
X170525297Y-126851041D01*
X170590499Y-126919888D01*
X170663985Y-126993540D01*
X170723945Y-127053888D01*
X170783386Y-127115945D01*
X170838353Y-127175420D01*
X170884892Y-127228019D01*
X170919047Y-127269451D01*
X170923169Y-127274851D01*
X170985754Y-127367154D01*
X171043594Y-127469445D01*
X171092234Y-127573154D01*
X171125586Y-127664269D01*
X171159416Y-127813748D01*
X171170775Y-127963191D01*
X171160548Y-128110556D01*
X171129622Y-128253800D01*
X171078882Y-128390881D01*
X171009212Y-128519756D01*
X170921500Y-128638384D01*
X170816630Y-128744722D01*
X170695488Y-128836727D01*
X170591174Y-128896774D01*
X170556729Y-128915349D01*
X170539244Y-128929715D01*
X170534190Y-128945028D01*
X170535756Y-128959828D01*
X170539233Y-128981191D01*
X170545459Y-129021567D01*
X170553803Y-129076768D01*
X170563631Y-129142609D01*
X170574313Y-129214906D01*
X170575147Y-129220582D01*
X170601456Y-129399547D01*
X170624548Y-129556304D01*
X170644570Y-129691847D01*
X170661673Y-129807168D01*
X170676004Y-129903260D01*
X170687713Y-129981116D01*
X170696948Y-130041727D01*
X170703858Y-130086086D01*
X170708593Y-130115187D01*
X170711299Y-130130021D01*
X170711760Y-130131911D01*
X170719661Y-130137500D01*
X170741121Y-130141597D01*
X170778508Y-130144363D01*
X170834186Y-130145960D01*
X170910524Y-130146551D01*
X170925757Y-130146563D01*
X171001162Y-130146721D01*
X171056979Y-130147471D01*
X171097063Y-130149223D01*
X171125267Y-130152388D01*
X171145447Y-130157378D01*
X171161457Y-130164604D01*
X171175202Y-130173169D01*
X171219986Y-130215116D01*
X171245669Y-130265174D01*
X171252475Y-130318717D01*
X171240632Y-130371119D01*
X171210366Y-130417754D01*
X171161903Y-130453996D01*
X171161451Y-130454228D01*
X171156602Y-130456264D01*
X171149781Y-130458160D01*
X171140181Y-130459923D01*
X171126993Y-130461557D01*
X171109410Y-130463066D01*
X171086623Y-130464455D01*
X171057826Y-130465730D01*
X171022210Y-130466896D01*
X170978967Y-130467957D01*
X170927290Y-130468918D01*
X170866371Y-130469783D01*
X170795401Y-130470559D01*
X170713574Y-130471250D01*
X170620081Y-130471860D01*
X170514114Y-130472396D01*
X170394866Y-130472860D01*
X170261529Y-130473259D01*
X170113296Y-130473597D01*
X169949357Y-130473880D01*
X169768906Y-130474112D01*
X169571134Y-130474297D01*
X169355234Y-130474442D01*
X169120399Y-130474550D01*
X168865819Y-130474628D01*
X168590688Y-130474678D01*
X168294197Y-130474708D01*
X167975539Y-130474720D01*
X167780696Y-130474722D01*
X167448842Y-130474717D01*
X167139622Y-130474698D01*
X166852229Y-130474660D01*
X166585855Y-130474599D01*
X166339692Y-130474509D01*
X166112933Y-130474386D01*
X165904770Y-130474224D01*
X165714394Y-130474020D01*
X165540999Y-130473767D01*
X165383775Y-130473462D01*
X165241916Y-130473099D01*
X165114614Y-130472673D01*
X165001060Y-130472179D01*
X164900447Y-130471613D01*
X164811968Y-130470969D01*
X164734814Y-130470243D01*
X164668177Y-130469430D01*
X164611250Y-130468525D01*
X164563225Y-130467522D01*
X164523294Y-130466418D01*
X164490649Y-130465207D01*
X164464483Y-130463884D01*
X164443987Y-130462445D01*
X164428354Y-130460884D01*
X164416776Y-130459197D01*
X164408446Y-130457378D01*
X164402554Y-130455423D01*
X164399942Y-130454228D01*
X164350379Y-130417238D01*
X164319156Y-130368608D01*
X164307720Y-130312737D01*
X164317520Y-130254024D01*
X164326925Y-130232250D01*
X164342329Y-130205417D01*
X164359811Y-130184812D01*
X164382528Y-130169625D01*
X164413636Y-130159045D01*
X164456291Y-130152262D01*
X164513650Y-130148464D01*
X164588867Y-130146841D01*
X164660459Y-130146563D01*
X164888963Y-130146563D01*
X165204493Y-130146563D01*
X165315932Y-130146563D01*
X165427372Y-130146563D01*
X165433407Y-130071375D01*
X165448604Y-129991239D01*
X165480159Y-129927868D01*
X165528362Y-129880958D01*
X165593502Y-129850206D01*
X165656216Y-129837244D01*
X165711892Y-129830537D01*
X165711892Y-129988550D01*
X165711892Y-130146563D01*
X165758777Y-130146563D01*
X165805662Y-130146563D01*
X165805662Y-129988325D01*
X165805662Y-129830088D01*
X165952178Y-129830088D01*
X166098694Y-129830088D01*
X166098694Y-129988325D01*
X166098694Y-130146563D01*
X166139718Y-130146563D01*
X166180743Y-130146563D01*
X166438611Y-130146563D01*
X166585127Y-130146563D01*
X166731642Y-130146563D01*
X166731642Y-129891105D01*
X167096502Y-129891105D01*
X167096595Y-129970161D01*
X167097029Y-130036489D01*
X167097788Y-130087298D01*
X167098854Y-130119795D01*
X167099970Y-130130882D01*
X167105466Y-130135018D01*
X167119787Y-130138394D01*
X167144907Y-130141080D01*
X167182800Y-130143143D01*
X167235441Y-130144652D01*
X167304803Y-130145676D01*
X167392862Y-130146283D01*
X167501591Y-130146541D01*
X167551764Y-130146563D01*
X167997540Y-130146563D01*
X168311002Y-130146563D01*
X168429721Y-130146563D01*
X168548440Y-130146563D01*
X168548505Y-130090887D01*
X168556799Y-130009889D01*
X168581972Y-129943589D01*
X168608272Y-129906672D01*
X168646938Y-129872473D01*
X168694113Y-129851213D01*
X168755797Y-129840486D01*
X168777005Y-129839015D01*
X168835611Y-129835949D01*
X168838882Y-129991256D01*
X168842152Y-130146563D01*
X168889959Y-130146563D01*
X168937767Y-130146563D01*
X168933574Y-129991256D01*
X168929381Y-129835949D01*
X169072967Y-129832658D01*
X169216552Y-129829367D01*
X169216552Y-129987965D01*
X169216552Y-130146563D01*
X169263438Y-130146563D01*
X169310323Y-130146563D01*
X169310323Y-129988325D01*
X169310323Y-129830088D01*
X169456839Y-129830088D01*
X169603354Y-129830088D01*
X169603354Y-129988325D01*
X169603354Y-130146563D01*
X169667821Y-130146563D01*
X169703133Y-130145283D01*
X169726549Y-130141982D01*
X169732288Y-130138781D01*
X169730677Y-130116708D01*
X169726290Y-130076429D01*
X169719798Y-130022924D01*
X169711870Y-129961173D01*
X169703177Y-129896159D01*
X169694388Y-129832862D01*
X169686174Y-129776262D01*
X169679205Y-129731342D01*
X169674150Y-129703082D01*
X169673038Y-129698338D01*
X169657368Y-129663161D01*
X169634451Y-129647811D01*
X169617288Y-129646463D01*
X169579284Y-129645377D01*
X169523041Y-129644569D01*
X169451161Y-129644054D01*
X169366243Y-129643848D01*
X169270889Y-129643966D01*
X169167701Y-129644423D01*
X169116221Y-129644767D01*
X168995935Y-129645687D01*
X168896746Y-129646583D01*
X168816309Y-129647587D01*
X168752281Y-129648827D01*
X168702315Y-129650434D01*
X168664067Y-129652539D01*
X168635193Y-129655271D01*
X168613348Y-129658761D01*
X168596186Y-129663139D01*
X168581364Y-129668535D01*
X168566536Y-129675080D01*
X168566022Y-129675315D01*
X168485872Y-129724596D01*
X168418497Y-129791344D01*
X168366198Y-129872055D01*
X168331275Y-129963225D01*
X168316323Y-130055723D01*
X168311002Y-130146563D01*
X167997540Y-130146563D01*
X167997540Y-130071405D01*
X168008444Y-129940127D01*
X168040209Y-129813622D01*
X168091417Y-129695136D01*
X168160650Y-129587912D01*
X168246488Y-129495194D01*
X168251431Y-129490785D01*
X168346685Y-129419250D01*
X168451263Y-129365615D01*
X168567848Y-129328879D01*
X168699128Y-129308046D01*
X168753562Y-129304085D01*
X168831706Y-129300021D01*
X169328609Y-129300021D01*
X169337304Y-129303057D01*
X169341999Y-129303263D01*
X169368233Y-129306628D01*
X169409421Y-129315035D01*
X169458031Y-129326889D01*
X169474420Y-129331287D01*
X169530975Y-129346685D01*
X169568461Y-129355743D01*
X169590437Y-129358247D01*
X169600461Y-129353980D01*
X169602093Y-129342727D01*
X169598892Y-129324274D01*
X169598790Y-129323762D01*
X169592948Y-129289578D01*
X169586660Y-129245524D01*
X169583989Y-129224131D01*
X169578022Y-129189585D01*
X169570466Y-129167018D01*
X169565456Y-129161976D01*
X169548874Y-129168241D01*
X169524141Y-129183405D01*
X169522908Y-129184277D01*
X169498008Y-129200077D01*
X169459390Y-129222443D01*
X169414205Y-129247270D01*
X169400398Y-129254605D01*
X169358079Y-129277526D01*
X169334842Y-129292088D01*
X169328609Y-129300021D01*
X168831706Y-129300021D01*
X168894217Y-129296770D01*
X168836736Y-129256871D01*
X168769681Y-129203583D01*
X168700378Y-129136935D01*
X168636523Y-129064795D01*
X168596178Y-129010855D01*
X168579586Y-128984650D01*
X169850702Y-128984650D01*
X169851599Y-129010022D01*
X169852640Y-129018390D01*
X169855817Y-129039824D01*
X169862109Y-129081441D01*
X169871059Y-129140252D01*
X169882206Y-129213273D01*
X169895094Y-129297515D01*
X169909263Y-129389994D01*
X169924253Y-129487721D01*
X169939608Y-129587711D01*
X169954867Y-129686978D01*
X169969572Y-129782533D01*
X169983264Y-129871392D01*
X169995485Y-129950568D01*
X170005776Y-130017073D01*
X170013678Y-130067922D01*
X170018733Y-130100127D01*
X170020075Y-130108468D01*
X170026383Y-130146563D01*
X170172367Y-130146563D01*
X170227769Y-130145901D01*
X170273521Y-130144096D01*
X170305176Y-130141415D01*
X170318286Y-130138125D01*
X170318406Y-130137772D01*
X170316720Y-130124240D01*
X170311933Y-130090504D01*
X170304491Y-130039532D01*
X170294840Y-129974292D01*
X170283427Y-129897752D01*
X170270700Y-129812882D01*
X170257104Y-129722648D01*
X170243087Y-129630019D01*
X170229097Y-129537963D01*
X170215578Y-129449449D01*
X170202979Y-129367444D01*
X170191746Y-129294918D01*
X170185781Y-129256761D01*
X170159249Y-129087817D01*
X170060051Y-129056619D01*
X170007755Y-129039000D01*
X169957556Y-129020105D01*
X169918521Y-129003392D01*
X169911505Y-128999928D01*
X169880817Y-128984866D01*
X169859221Y-128975715D01*
X169854285Y-128974435D01*
X169850702Y-128984650D01*
X168579586Y-128984650D01*
X168569811Y-128969211D01*
X168541843Y-128920454D01*
X168514911Y-128869781D01*
X168491650Y-128822389D01*
X168474698Y-128783476D01*
X168466691Y-128758238D01*
X168466391Y-128754992D01*
X168462186Y-128751570D01*
X168448503Y-128748680D01*
X168423737Y-128746283D01*
X168386284Y-128744339D01*
X168334541Y-128742811D01*
X168266903Y-128741657D01*
X168181766Y-128740840D01*
X168077526Y-128740321D01*
X167952580Y-128740060D01*
X167851162Y-128740010D01*
X167715212Y-128740046D01*
X167600854Y-128740197D01*
X167506238Y-128740525D01*
X167429514Y-128741090D01*
X167368831Y-128741955D01*
X167322338Y-128743182D01*
X167288187Y-128744833D01*
X167264526Y-128746970D01*
X167249504Y-128749654D01*
X167241273Y-128752947D01*
X167237981Y-128756911D01*
X167237653Y-128760522D01*
X167238077Y-128777929D01*
X167238292Y-128815038D01*
X167238302Y-128868108D01*
X167238107Y-128933398D01*
X167237709Y-129007169D01*
X167237514Y-129035387D01*
X167235657Y-129289740D01*
X167168260Y-129293255D01*
X167100863Y-129296770D01*
X167097408Y-129705986D01*
X167096767Y-129802116D01*
X167096502Y-129891105D01*
X166731642Y-129891105D01*
X166731642Y-129718736D01*
X166731642Y-129290910D01*
X166585127Y-129290910D01*
X166438611Y-129290910D01*
X166438611Y-129718736D01*
X166438611Y-130146563D01*
X166180743Y-130146563D01*
X166180743Y-129930271D01*
X166180174Y-129842258D01*
X166178105Y-129774827D01*
X166173997Y-129725136D01*
X166167306Y-129690344D01*
X166157491Y-129667609D01*
X166144012Y-129654089D01*
X166126770Y-129647053D01*
X166107938Y-129645353D01*
X166069254Y-129644143D01*
X166014304Y-129643455D01*
X165946673Y-129643317D01*
X165869947Y-129643762D01*
X165814954Y-129644404D01*
X165529648Y-129648408D01*
X165451280Y-129687007D01*
X165366883Y-129740737D01*
X165299995Y-129809831D01*
X165251095Y-129893544D01*
X165220660Y-129991129D01*
X165211011Y-130061583D01*
X165204493Y-130146563D01*
X164888963Y-130146563D01*
X164896852Y-130049862D01*
X164918706Y-129907480D01*
X164959548Y-129777020D01*
X165018509Y-129659655D01*
X165094720Y-129556561D01*
X165187313Y-129468909D01*
X165295417Y-129397875D01*
X165418166Y-129344631D01*
X165419141Y-129344301D01*
X165473714Y-129327625D01*
X165524960Y-129316549D01*
X165581662Y-129309627D01*
X165652603Y-129305412D01*
X165656216Y-129305265D01*
X165793941Y-129299742D01*
X165793941Y-129290910D01*
X165793941Y-129137088D01*
X165793941Y-128974435D01*
X166356562Y-128974435D01*
X166919183Y-128974435D01*
X166919183Y-128857222D01*
X166919183Y-128740010D01*
X166356562Y-128740010D01*
X165793941Y-128740010D01*
X165793941Y-128564742D01*
X165793941Y-128389475D01*
X165690429Y-128336014D01*
X165593750Y-128278299D01*
X165499253Y-128207649D01*
X165415159Y-128130562D01*
X165376230Y-128087667D01*
X165269588Y-127946022D01*
X165177191Y-127793798D01*
X165101254Y-127635473D01*
X165043989Y-127475530D01*
X165014135Y-127354716D01*
X164995265Y-127220644D01*
X164987572Y-127073462D01*
X164988098Y-127046286D01*
X165325228Y-127046286D01*
X165334788Y-127192706D01*
X165362432Y-127337654D01*
X165406609Y-127478523D01*
X165465766Y-127612705D01*
X165538350Y-127737592D01*
X165622810Y-127850578D01*
X165717593Y-127949054D01*
X165821146Y-128030414D01*
X165931918Y-128092049D01*
X165953241Y-128101147D01*
X165990193Y-128114761D01*
X166018460Y-128122587D01*
X166030792Y-128123144D01*
X166034663Y-128109734D01*
X166037746Y-128078095D01*
X166039654Y-128033435D01*
X166040087Y-127996899D01*
X166039791Y-127942502D01*
X166038260Y-127906868D01*
X166034527Y-127885318D01*
X166029984Y-127877322D01*
X166370310Y-127877322D01*
X166370625Y-127977861D01*
X166391282Y-128077192D01*
X166431317Y-128171055D01*
X166489764Y-128255189D01*
X166502033Y-128268830D01*
X166576477Y-128333050D01*
X166662309Y-128380976D01*
X166754744Y-128410883D01*
X166848994Y-128421046D01*
X166910392Y-128416012D01*
X166954347Y-128408747D01*
X166954347Y-128405953D01*
X168976343Y-128405953D01*
X168977396Y-128466076D01*
X168981170Y-128509884D01*
X168988729Y-128544450D01*
X169001134Y-128576843D01*
X169002469Y-128579774D01*
X169056147Y-128669423D01*
X169126766Y-128743557D01*
X169212326Y-128800336D01*
X169269298Y-128825058D01*
X169331790Y-128839212D01*
X169406028Y-128843511D01*
X169482667Y-128838335D01*
X169552363Y-128824063D01*
X169584839Y-128812255D01*
X169671612Y-128761465D01*
X169744258Y-128694667D01*
X169800800Y-128615127D01*
X169839257Y-128526115D01*
X169857648Y-128430898D01*
X169857510Y-128362137D01*
X169838067Y-128263370D01*
X169797775Y-128174470D01*
X169737745Y-128097105D01*
X169659089Y-128032939D01*
X169623891Y-128012007D01*
X169591210Y-127994846D01*
X169564467Y-127983506D01*
X169537356Y-127976783D01*
X169503572Y-127973472D01*
X169456810Y-127972369D01*
X169415814Y-127972266D01*
X169357044Y-127972572D01*
X169315410Y-127974291D01*
X169284607Y-127978629D01*
X169258329Y-127986789D01*
X169230271Y-127999976D01*
X169207737Y-128012007D01*
X169122030Y-128071189D01*
X169052669Y-128146186D01*
X169007450Y-128222221D01*
X168992552Y-128256963D01*
X168983273Y-128288832D01*
X168978345Y-128325310D01*
X168976503Y-128373878D01*
X168976343Y-128405953D01*
X166954347Y-128405953D01*
X166954347Y-128400093D01*
X167552132Y-128400093D01*
X167675205Y-128400093D01*
X167798278Y-128400093D01*
X168103031Y-128400093D01*
X168226105Y-128400093D01*
X168349178Y-128400093D01*
X168349178Y-127902630D01*
X168348936Y-127766008D01*
X168348198Y-127652088D01*
X168346944Y-127560134D01*
X168345157Y-127489412D01*
X168342817Y-127439185D01*
X168339908Y-127408719D01*
X168336444Y-127397298D01*
X168319797Y-127394700D01*
X168285702Y-127394259D01*
X168240053Y-127395955D01*
X168213370Y-127397700D01*
X168103031Y-127405972D01*
X168103031Y-127903033D01*
X168103031Y-128400093D01*
X167798278Y-128400093D01*
X167798278Y-127894358D01*
X167798278Y-127388623D01*
X167708600Y-127396204D01*
X167660185Y-127399930D01*
X167616756Y-127402635D01*
X167587119Y-127403777D01*
X167585527Y-127403785D01*
X167552132Y-127403785D01*
X167552132Y-127901939D01*
X167552132Y-128400093D01*
X166954347Y-128400093D01*
X166954347Y-128282519D01*
X166954347Y-128156290D01*
X166884280Y-128156290D01*
X166806148Y-128146731D01*
X166740208Y-128119617D01*
X166688573Y-128077292D01*
X166653358Y-128022103D01*
X166636679Y-127956393D01*
X166640087Y-127885486D01*
X166662717Y-127820790D01*
X166703043Y-127770225D01*
X166758923Y-127735436D01*
X166828214Y-127718065D01*
X166860627Y-127716358D01*
X166907318Y-127718915D01*
X166944884Y-127728787D01*
X166979791Y-127749260D01*
X167018504Y-127783621D01*
X167043449Y-127809301D01*
X167077189Y-127843183D01*
X167102342Y-127862511D01*
X167124951Y-127871047D01*
X167145111Y-127872636D01*
X167194262Y-127862526D01*
X167232323Y-127834952D01*
X167257318Y-127794050D01*
X167267271Y-127743954D01*
X167260206Y-127688798D01*
X167248059Y-127657197D01*
X167200837Y-127585676D01*
X167136115Y-127526593D01*
X167057219Y-127481625D01*
X166967476Y-127452451D01*
X166870214Y-127440751D01*
X166821258Y-127441874D01*
X166715850Y-127460279D01*
X166620518Y-127499193D01*
X166537088Y-127557180D01*
X166467382Y-127632807D01*
X166413227Y-127724639D01*
X166391302Y-127779837D01*
X166370310Y-127877322D01*
X166029984Y-127877322D01*
X166027627Y-127873173D01*
X166016595Y-127865756D01*
X166012634Y-127863890D01*
X165984707Y-127845973D01*
X165946359Y-127814455D01*
X165902191Y-127773733D01*
X165856804Y-127728204D01*
X165814801Y-127682264D01*
X165786338Y-127647668D01*
X165732818Y-127569414D01*
X165681342Y-127478504D01*
X165636917Y-127384576D01*
X165604862Y-127298293D01*
X165590617Y-127234659D01*
X165581160Y-127156366D01*
X165576529Y-127069996D01*
X165576758Y-126982128D01*
X165578786Y-126949373D01*
X165873228Y-126949373D01*
X165881221Y-127030485D01*
X165899806Y-127148149D01*
X165932545Y-127255292D01*
X165964499Y-127327596D01*
X165986235Y-127367349D01*
X166013635Y-127411494D01*
X166043470Y-127455541D01*
X166072509Y-127494997D01*
X166097524Y-127525369D01*
X166115284Y-127542166D01*
X166120156Y-127544096D01*
X166128951Y-127534380D01*
X166145809Y-127508694D01*
X166167729Y-127471738D01*
X166178129Y-127453256D01*
X166262680Y-127324177D01*
X166366608Y-127205763D01*
X166487300Y-127100564D01*
X166569922Y-127045764D01*
X167985819Y-127045764D01*
X167986677Y-127060206D01*
X167992346Y-127069020D01*
X168007468Y-127073595D01*
X168036684Y-127075322D01*
X168084637Y-127075589D01*
X168085450Y-127075589D01*
X168130474Y-127074849D01*
X168164909Y-127072874D01*
X168183371Y-127070032D01*
X168185080Y-127068776D01*
X168178509Y-127055823D01*
X168161185Y-127029688D01*
X168136695Y-126995178D01*
X168108627Y-126957100D01*
X168080567Y-126920263D01*
X168056102Y-126889474D01*
X168038819Y-126869541D01*
X168032762Y-126864606D01*
X168025561Y-126875053D01*
X168015860Y-126902053D01*
X168005348Y-126939091D01*
X167995712Y-126979654D01*
X167988640Y-127017229D01*
X167985820Y-127045302D01*
X167985819Y-127045764D01*
X166569922Y-127045764D01*
X166622139Y-127011131D01*
X166644085Y-126998873D01*
X166729187Y-126956701D01*
X166822800Y-126917401D01*
X166916906Y-126883957D01*
X167003488Y-126859355D01*
X167039609Y-126851637D01*
X167078830Y-126844963D01*
X167106369Y-126843698D01*
X167130987Y-126849454D01*
X167161447Y-126863842D01*
X167189749Y-126879260D01*
X167302780Y-126931913D01*
X167433745Y-126975715D01*
X167458361Y-126982393D01*
X167499793Y-126992280D01*
X167549128Y-127002588D01*
X167601359Y-127012464D01*
X167651483Y-127021057D01*
X167694491Y-127027518D01*
X167725380Y-127030996D01*
X167739143Y-127030638D01*
X167739422Y-127030163D01*
X167729235Y-127017950D01*
X167700404Y-126995731D01*
X167654827Y-126964795D01*
X167594404Y-126926429D01*
X167521033Y-126881921D01*
X167519778Y-126881175D01*
X167398922Y-126809279D01*
X167455015Y-126794522D01*
X167569896Y-126762228D01*
X167667316Y-126729755D01*
X167703478Y-126714946D01*
X168325922Y-126714946D01*
X168326831Y-126756197D01*
X168329022Y-126789390D01*
X168332523Y-126808231D01*
X168333550Y-126809907D01*
X168347892Y-126813146D01*
X168380286Y-126815616D01*
X168425348Y-126817007D01*
X168459554Y-126817181D01*
X168577743Y-126816642D01*
X168460530Y-126706065D01*
X168417260Y-126665800D01*
X168379877Y-126632058D01*
X168351737Y-126607788D01*
X168336194Y-126595943D01*
X168334527Y-126595253D01*
X168330597Y-126605790D01*
X168327834Y-126633448D01*
X168326266Y-126671931D01*
X168325922Y-126714946D01*
X167703478Y-126714946D01*
X167753141Y-126694608D01*
X167833238Y-126654291D01*
X167913473Y-126606308D01*
X167943331Y-126586803D01*
X168092347Y-126473743D01*
X168225126Y-126344290D01*
X168273844Y-126283388D01*
X168574851Y-126283388D01*
X168576757Y-126295105D01*
X168584192Y-126324628D01*
X168595930Y-126367316D01*
X168608704Y-126411604D01*
X168645527Y-126536850D01*
X168687823Y-126529779D01*
X168720453Y-126523202D01*
X168766053Y-126512630D01*
X168814991Y-126500300D01*
X168817015Y-126499766D01*
X168865769Y-126486733D01*
X168899088Y-126476021D01*
X168916131Y-126465707D01*
X168916058Y-126453867D01*
X168898027Y-126438577D01*
X168861198Y-126417913D01*
X168804730Y-126389951D01*
X168759462Y-126368094D01*
X168699987Y-126339628D01*
X168648335Y-126315369D01*
X168607977Y-126296908D01*
X168582383Y-126285838D01*
X168574851Y-126283388D01*
X168273844Y-126283388D01*
X168340633Y-126199897D01*
X168437831Y-126042015D01*
X168459154Y-125995478D01*
X168743939Y-125995478D01*
X168744002Y-125998221D01*
X168756941Y-126006231D01*
X168786593Y-126022442D01*
X168828847Y-126044759D01*
X168879594Y-126071089D01*
X168934723Y-126099340D01*
X168990125Y-126127418D01*
X169041689Y-126153230D01*
X169085306Y-126174682D01*
X169116866Y-126189683D01*
X169132258Y-126196138D01*
X169132817Y-126196238D01*
X169142140Y-126188264D01*
X169159465Y-126168408D01*
X169162120Y-126165124D01*
X169184742Y-126135229D01*
X169210615Y-126098599D01*
X169236137Y-126060677D01*
X169257708Y-126026908D01*
X169271726Y-126002732D01*
X169275122Y-125994301D01*
X169263954Y-125991811D01*
X169232603Y-125989595D01*
X169184323Y-125987758D01*
X169122374Y-125986405D01*
X169050012Y-125985642D01*
X169003225Y-125985510D01*
X168910018Y-125985864D01*
X168838865Y-125986970D01*
X168788386Y-125988896D01*
X168757204Y-125991709D01*
X168743939Y-125995478D01*
X168459154Y-125995478D01*
X168515686Y-125872097D01*
X168565993Y-125717362D01*
X168923521Y-125717362D01*
X169225343Y-125713711D01*
X169318979Y-125712426D01*
X169392204Y-125710955D01*
X169448053Y-125709072D01*
X169489557Y-125706550D01*
X169519750Y-125703163D01*
X169541663Y-125698684D01*
X169558331Y-125692887D01*
X169568191Y-125688089D01*
X169601630Y-125667742D01*
X169637721Y-125642070D01*
X169671125Y-125615384D01*
X169696502Y-125591997D01*
X169708515Y-125576221D01*
X169708846Y-125574481D01*
X169697691Y-125571849D01*
X169666484Y-125569552D01*
X169618615Y-125567605D01*
X169557472Y-125566023D01*
X169486445Y-125564823D01*
X169408923Y-125564020D01*
X169328295Y-125563629D01*
X169247949Y-125563666D01*
X169171275Y-125564147D01*
X169101661Y-125565087D01*
X169042497Y-125566503D01*
X168997172Y-125568408D01*
X168969075Y-125570820D01*
X168967475Y-125571068D01*
X168923521Y-125578333D01*
X168923521Y-125647848D01*
X168923521Y-125717362D01*
X168565993Y-125717362D01*
X168568367Y-125710061D01*
X168573802Y-125684797D01*
X168578388Y-125651746D01*
X168582256Y-125608477D01*
X168585535Y-125552562D01*
X168588356Y-125481570D01*
X168590850Y-125393072D01*
X168593146Y-125284640D01*
X168594135Y-125229488D01*
X168596049Y-125118136D01*
X168923521Y-125118136D01*
X168923521Y-125193465D01*
X168924647Y-125235842D01*
X168928921Y-125260133D01*
X168937687Y-125271626D01*
X168944033Y-125274187D01*
X168960111Y-125275373D01*
X168996885Y-125276382D01*
X169051612Y-125277193D01*
X169121546Y-125277782D01*
X169203943Y-125278126D01*
X169296057Y-125278202D01*
X169395143Y-125277988D01*
X169398232Y-125277977D01*
X169831919Y-125276373D01*
X169898823Y-125243519D01*
X169946915Y-125214437D01*
X169988719Y-125179554D01*
X170002369Y-125164401D01*
X170039011Y-125118136D01*
X169481266Y-125118136D01*
X168923521Y-125118136D01*
X168596049Y-125118136D01*
X168601186Y-124819244D01*
X169406867Y-124813383D01*
X170212548Y-124807522D01*
X170252287Y-124724595D01*
X170272286Y-124681918D01*
X170288716Y-124645137D01*
X170298457Y-124621267D01*
X170299190Y-124619104D01*
X170300000Y-124615102D01*
X170298745Y-124611610D01*
X170293958Y-124608598D01*
X170284175Y-124606037D01*
X170267929Y-124603898D01*
X170243756Y-124602152D01*
X170210188Y-124600770D01*
X170165761Y-124599721D01*
X170109009Y-124598977D01*
X170038466Y-124598509D01*
X169952667Y-124598288D01*
X169850146Y-124598283D01*
X169729437Y-124598466D01*
X169589075Y-124598807D01*
X169427594Y-124599278D01*
X169322700Y-124599602D01*
X168339047Y-124602664D01*
X168334781Y-125097756D01*
X168330515Y-125592848D01*
X168298043Y-125698275D01*
X168240473Y-125856029D01*
X168169405Y-125997105D01*
X168082638Y-126125367D01*
X167999552Y-126222291D01*
X167897800Y-126320394D01*
X167794175Y-126399405D01*
X167682707Y-126463310D01*
X167562428Y-126514277D01*
X167510605Y-126532513D01*
X167462789Y-126547259D01*
X167415651Y-126558879D01*
X167365864Y-126567737D01*
X167310097Y-126574194D01*
X167245025Y-126578614D01*
X167167318Y-126581359D01*
X167073648Y-126582793D01*
X166960687Y-126583280D01*
X166929583Y-126583295D01*
X166566964Y-126583295D01*
X166554926Y-126615529D01*
X166504158Y-126721062D01*
X166436848Y-126809993D01*
X166352916Y-126882410D01*
X166269813Y-126930401D01*
X166173590Y-126964921D01*
X166074083Y-126980040D01*
X165976979Y-126975145D01*
X165936146Y-126966402D01*
X165873228Y-126949373D01*
X165578786Y-126949373D01*
X165581884Y-126899343D01*
X165591943Y-126828220D01*
X165602074Y-126788486D01*
X165625337Y-126718227D01*
X165595519Y-126650761D01*
X165565701Y-126583295D01*
X165493638Y-126583295D01*
X165421576Y-126583295D01*
X165390264Y-126667771D01*
X165368595Y-126738752D01*
X165349733Y-126823898D01*
X165335266Y-126913961D01*
X165326784Y-126999695D01*
X165325228Y-127046286D01*
X164988098Y-127046286D01*
X164990561Y-126918992D01*
X165003735Y-126763057D01*
X165026597Y-126611478D01*
X165049013Y-126512590D01*
X165888967Y-126512590D01*
X165898617Y-126568151D01*
X165925330Y-126618100D01*
X165963899Y-126653769D01*
X166009577Y-126671962D01*
X166064694Y-126676990D01*
X166119278Y-126668835D01*
X166153733Y-126654139D01*
X166199702Y-126615433D01*
X166225247Y-126566519D01*
X166232136Y-126512716D01*
X166221651Y-126455797D01*
X166193267Y-126403658D01*
X166151585Y-126364184D01*
X166142172Y-126358565D01*
X166107752Y-126348708D01*
X166061376Y-126346038D01*
X166013257Y-126350120D01*
X165973609Y-126360520D01*
X165962631Y-126366205D01*
X165920950Y-126406221D01*
X165896403Y-126456815D01*
X165888967Y-126512590D01*
X165049013Y-126512590D01*
X165058650Y-126470077D01*
X165099399Y-126344678D01*
X165100510Y-126341838D01*
X165123067Y-126284403D01*
X166223317Y-126278387D01*
X167323567Y-126272370D01*
X167399755Y-126245191D01*
X167530162Y-126187220D01*
X167645659Y-126111472D01*
X167708745Y-126056752D01*
X167806841Y-125951069D01*
X167884700Y-125840207D01*
X167945529Y-125719145D01*
X167975117Y-125639733D01*
X168002310Y-125557684D01*
X168008716Y-124649285D01*
X168012849Y-124063222D01*
X168337457Y-124063222D01*
X168337457Y-124174574D01*
X168337457Y-124285926D01*
X169378120Y-124285926D01*
X170418783Y-124285926D01*
X170449827Y-124206132D01*
X170466518Y-124161701D01*
X170480502Y-124121749D01*
X170488766Y-124094883D01*
X170488792Y-124094780D01*
X170496713Y-124063222D01*
X169417085Y-124063222D01*
X168337457Y-124063222D01*
X168012849Y-124063222D01*
X168015122Y-123740887D01*
X169445117Y-123740887D01*
X170875113Y-123740887D01*
X170872535Y-123811427D01*
G37*
D15*
%TO.C,J3*%
X155723001Y-113779100D02*
X155723001Y-125640900D01*
X155723001Y-125640900D02*
X163520801Y-125640900D01*
X163520801Y-113779100D02*
X155723001Y-113779100D01*
X163520801Y-125640900D02*
X163520801Y-113779100D01*
D16*
X161631000Y-127418900D02*
G75*
G02*
X160869000Y-127418900I-381000J0D01*
G01*
X160869000Y-127418900D02*
G75*
G02*
X161631000Y-127418900I381000J0D01*
G01*
%TD*%
M02*
