%TF.GenerationSoftware,KiCad,Pcbnew,8.0.0*%
%TF.CreationDate,2024-03-13T21:01:22-04:00*%
%TF.ProjectId,pico-ethernet,7069636f-2d65-4746-9865-726e65742e6b,rev?*%
%TF.SameCoordinates,Original*%
%TF.FileFunction,Copper,L1,Top*%
%TF.FilePolarity,Positive*%
%FSLAX46Y46*%
G04 Gerber Fmt 4.6, Leading zero omitted, Abs format (unit mm)*
G04 Created by KiCad (PCBNEW 8.0.0) date 2024-03-13 21:01:22*
%MOMM*%
%LPD*%
G01*
G04 APERTURE LIST*
%TA.AperFunction,ComponentPad*%
%ADD10R,2.200000X2.200000*%
%TD*%
%TA.AperFunction,ComponentPad*%
%ADD11C,2.200000*%
%TD*%
%TA.AperFunction,SMDPad,CuDef*%
%ADD12R,2.400000X2.000000*%
%TD*%
%TA.AperFunction,ComponentPad*%
%ADD13R,1.478000X1.478000*%
%TD*%
%TA.AperFunction,ComponentPad*%
%ADD14C,1.478000*%
%TD*%
%TA.AperFunction,ComponentPad*%
%ADD15C,1.650000*%
%TD*%
%TA.AperFunction,ComponentPad*%
%ADD16C,2.475000*%
%TD*%
%TA.AperFunction,ComponentPad*%
%ADD17C,1.498600*%
%TD*%
%TA.AperFunction,ComponentPad*%
%ADD18R,1.700000X1.700000*%
%TD*%
%TA.AperFunction,ComponentPad*%
%ADD19O,1.700000X1.700000*%
%TD*%
%TA.AperFunction,ViaPad*%
%ADD20C,0.800000*%
%TD*%
%TA.AperFunction,Conductor*%
%ADD21C,0.350000*%
%TD*%
%TA.AperFunction,Conductor*%
%ADD22C,0.250000*%
%TD*%
G04 APERTURE END LIST*
D10*
%TO.P,J5,1,Pin_1*%
%TO.N,GND*%
X142195000Y-116185000D03*
D11*
%TO.P,J5,2,Pin_2*%
%TO.N,Net-(J2-Pin_4)*%
X142195000Y-118725000D03*
%TO.P,J5,3,Pin_3*%
%TO.N,Net-(J2-Pin_2)*%
X142195000Y-121265000D03*
%TO.P,J5,4,Pin_4*%
%TO.N,Net-(J2-Pin_1)*%
X142195000Y-123805000D03*
%TD*%
D12*
%TO.P,Y1,1,1*%
%TO.N,Net-(U1-OSC2)*%
X148110000Y-124206000D03*
%TO.P,Y1,2,2*%
%TO.N,Net-(U1-OSC1)*%
X148110000Y-120506000D03*
%TD*%
D13*
%TO.P,J4,1,TD+*%
%TO.N,Net-(J4-TD+)*%
X180850000Y-116205000D03*
D14*
%TO.P,J4,2,CT*%
%TO.N,Net-(J4-CT)*%
X178310000Y-117475000D03*
%TO.P,J4,3,TD-*%
%TO.N,Net-(J4-TD-)*%
X180850000Y-118745000D03*
%TO.P,J4,4,RD+*%
%TO.N,Net-(J4-RD+)*%
X178310000Y-120015000D03*
%TO.P,J4,5,RD-*%
%TO.N,Net-(J4-RD-)*%
X180850000Y-121285000D03*
%TO.P,J4,8,VC+_P8*%
%TO.N,unconnected-(J4-VC+_P8-Pad8)*%
X178310000Y-125095000D03*
%TO.P,J4,9,VC-_P9*%
%TO.N,unconnected-(J4-VC-_P9-Pad9)*%
X180850000Y-126365000D03*
%TO.P,J4,10,VC+_P10*%
%TO.N,+24V*%
X178310000Y-127635000D03*
%TO.P,J4,11,VC-_P11*%
%TO.N,GND*%
X175770000Y-126365000D03*
D15*
%TO.P,J4,A1*%
%TO.N,Net-(J4-PadA1)*%
X173480000Y-127385000D03*
%TO.P,J4,A2*%
%TO.N,Net-(J4-PadA2)*%
X173480000Y-118995000D03*
%TO.P,J4,C1*%
%TO.N,GND*%
X173480000Y-124845000D03*
%TO.P,J4,C2*%
X173480000Y-116455000D03*
D16*
%TO.P,J4,S1,SHIELD*%
X184150000Y-129665000D03*
%TO.P,J4,S2,SHIELD__1*%
X184150000Y-114175000D03*
%TD*%
D17*
%TO.P,J3,1,Vin*%
%TO.N,+24V*%
X161250000Y-122250000D03*
%TO.P,J3,2,Ground*%
%TO.N,GND*%
X161250000Y-119710000D03*
%TO.P,J3,3,+Vout*%
%TO.N,Net-(D1-A)*%
X161250000Y-117170000D03*
%TD*%
D18*
%TO.P,J2,1,Pin_1*%
%TO.N,Net-(J2-Pin_1)*%
X144740000Y-128905000D03*
D19*
%TO.P,J2,2,Pin_2*%
%TO.N,Net-(J2-Pin_2)*%
X147280000Y-128905000D03*
%TO.P,J2,3,Pin_3*%
%TO.N,GND*%
X149820000Y-128905000D03*
%TO.P,J2,4,Pin_4*%
%TO.N,Net-(J2-Pin_4)*%
X152360000Y-128905000D03*
%TO.P,J2,5,Pin_5*%
%TO.N,Net-(J2-Pin_5)*%
X154900000Y-128905000D03*
%TD*%
D18*
%TO.P,J1,1,Pin_1*%
%TO.N,unconnected-(J1-Pin_1-Pad1)*%
X193040000Y-111125000D03*
D19*
%TO.P,J1,2,Pin_2*%
%TO.N,+5V*%
X190500000Y-111125000D03*
%TO.P,J1,3,Pin_3*%
%TO.N,GND*%
X187960000Y-111125000D03*
%TO.P,J1,4,Pin_4*%
%TO.N,unconnected-(J1-Pin_4-Pad4)*%
X185420000Y-111125000D03*
%TO.P,J1,5,Pin_5*%
%TO.N,+3.3V*%
X182880000Y-111125000D03*
%TO.P,J1,6,Pin_6*%
%TO.N,unconnected-(J1-Pin_6-Pad6)*%
X180340000Y-111125000D03*
%TO.P,J1,7,Pin_7*%
%TO.N,unconnected-(J1-Pin_7-Pad7)*%
X177800000Y-111125000D03*
%TO.P,J1,8,Pin_8*%
%TO.N,unconnected-(J1-Pin_8-Pad8)*%
X175260000Y-111125000D03*
%TO.P,J1,9,Pin_9*%
%TO.N,unconnected-(J1-Pin_9-Pad9)*%
X172720000Y-111125000D03*
%TO.P,J1,10,Pin_10*%
%TO.N,unconnected-(J1-Pin_10-Pad10)*%
X170180000Y-111125000D03*
%TO.P,J1,11,Pin_11*%
%TO.N,unconnected-(J1-Pin_11-Pad11)*%
X167640000Y-111125000D03*
%TO.P,J1,12,Pin_12*%
%TO.N,unconnected-(J1-Pin_12-Pad12)*%
X165100000Y-111125000D03*
%TO.P,J1,13,Pin_13*%
%TO.N,GND*%
X162560000Y-111125000D03*
%TO.P,J1,14,Pin_14*%
%TO.N,unconnected-(J1-Pin_14-Pad14)*%
X160020000Y-111125000D03*
%TO.P,J1,15,Pin_15*%
%TO.N,Net-(J1-Pin_15)*%
X157480000Y-111125000D03*
%TO.P,J1,16,Pin_16*%
%TO.N,Net-(J1-Pin_16)*%
X154940000Y-111125000D03*
%TO.P,J1,17,Pin_17*%
%TO.N,Net-(J1-Pin_17)*%
X152400000Y-111125000D03*
%TO.P,J1,18,Pin_18*%
%TO.N,GND*%
X149860000Y-111125000D03*
%TO.P,J1,19,Pin_19*%
%TO.N,Net-(J1-Pin_19)*%
X147320000Y-111125000D03*
%TO.P,J1,20,Pin_20*%
%TO.N,Net-(J1-Pin_20)*%
X144780000Y-111125000D03*
%TD*%
D20*
%TO.N,GND*%
X148500000Y-127500000D03*
X155159049Y-117205049D03*
X155310000Y-119650000D03*
X148910000Y-113156000D03*
X160510000Y-114406000D03*
%TO.N,+24V*%
X162060000Y-127056000D03*
%TO.N,Net-(U1-OSC1)*%
X150910000Y-120156000D03*
%TO.N,Net-(U1-OSC2)*%
X150910000Y-121556000D03*
%TO.N,+3.3V*%
X151110000Y-116756000D03*
X185910000Y-119556000D03*
%TO.N,Net-(J1-Pin_15)*%
X154710000Y-113881000D03*
%TO.N,Net-(J1-Pin_16)*%
X150110000Y-117556000D03*
%TO.N,Net-(J1-Pin_17)*%
X149310000Y-118156000D03*
%TO.N,Net-(J1-Pin_19)*%
X148330940Y-118359584D03*
%TO.N,Net-(J1-Pin_20)*%
X144012653Y-119687347D03*
%TO.N,Net-(J4-TD-)*%
X168110000Y-114556000D03*
%TO.N,Net-(J4-RD+)*%
X165910000Y-113756000D03*
%TO.N,Net-(J4-RD-)*%
X164910000Y-113956000D03*
%TD*%
D21*
%TO.N,+24V*%
X161250000Y-126246000D02*
X162060000Y-127056000D01*
X161250000Y-122250000D02*
X161250000Y-126246000D01*
D22*
%TO.N,Net-(U1-OSC1)*%
X151110000Y-120156000D02*
X151060000Y-120106000D01*
X148460000Y-120156000D02*
X148110000Y-120506000D01*
X149210000Y-120156000D02*
X149110000Y-120156000D01*
X149720000Y-120716000D02*
X149720000Y-120496000D01*
X150570000Y-120496000D02*
X150570000Y-120716000D01*
X149110000Y-120156000D02*
X148460000Y-120156000D01*
X150230000Y-121056000D02*
X150060000Y-121056000D01*
X149380000Y-120156000D02*
X149210000Y-120156000D01*
X150060000Y-121056000D02*
G75*
G02*
X149720000Y-120716000I0J340000D01*
G01*
X149720000Y-120496000D02*
G75*
G03*
X149380000Y-120156000I-340000J0D01*
G01*
X150570000Y-120716000D02*
G75*
G02*
X150230000Y-121056000I-340000J0D01*
G01*
X150910000Y-120156000D02*
G75*
G03*
X150570000Y-120496000I0J-340000D01*
G01*
%TO.N,Net-(U1-OSC2)*%
X150310000Y-121556000D02*
X150910000Y-121556000D01*
X148110000Y-123756000D02*
X150310000Y-121556000D01*
X148110000Y-124206000D02*
X148110000Y-123756000D01*
%TO.N,+3.3V*%
X181255000Y-112750000D02*
X182880000Y-111125000D01*
X154685000Y-115131000D02*
X152735000Y-115131000D01*
X185910000Y-119556000D02*
X182030000Y-115676000D01*
X182880000Y-111125000D02*
X182030000Y-111975000D01*
X154685000Y-115131000D02*
X161619000Y-115131000D01*
X182030000Y-111975000D02*
X182030000Y-115676000D01*
X152735000Y-115131000D02*
X151110000Y-116756000D01*
X164000000Y-112750000D02*
X181255000Y-112750000D01*
X161619000Y-115131000D02*
X164000000Y-112750000D01*
%TO.N,Net-(J1-Pin_15)*%
X154724000Y-113881000D02*
X157480000Y-111125000D01*
X154710000Y-113881000D02*
X154724000Y-113881000D01*
%TO.N,Net-(J1-Pin_16)*%
X150110000Y-117556000D02*
X150110000Y-114051396D01*
X150110000Y-114051396D02*
X151205396Y-112956000D01*
X153109000Y-112956000D02*
X154940000Y-111125000D01*
X151205396Y-112956000D02*
X153109000Y-112956000D01*
%TO.N,Net-(J1-Pin_17)*%
X149310000Y-118156000D02*
X149310000Y-114215000D01*
X149310000Y-114215000D02*
X152400000Y-111125000D01*
%TO.N,Net-(J1-Pin_19)*%
X148330940Y-118359584D02*
X148330940Y-114106245D01*
X147320000Y-113095305D02*
X147320000Y-111125000D01*
X148330940Y-114106245D02*
X147320000Y-113095305D01*
%TO.N,Net-(J1-Pin_20)*%
X144000000Y-112800000D02*
X144780000Y-112020000D01*
X144012653Y-119687347D02*
X144012653Y-112812653D01*
X144780000Y-112020000D02*
X144780000Y-111125000D01*
X144012653Y-112812653D02*
X144000000Y-112800000D01*
%TO.N,Net-(J4-TD-)*%
X177208114Y-113629312D02*
X176670712Y-114166713D01*
X177519245Y-115015246D02*
X176981842Y-115552645D01*
X177094979Y-114590978D02*
X177632379Y-114053576D01*
X169360000Y-113306000D02*
X168110000Y-114556000D01*
X178056647Y-114477845D02*
X177519245Y-115015246D01*
X176670712Y-114166713D02*
X176501005Y-114336416D01*
X177406112Y-115976914D02*
X177773806Y-115609217D01*
X174395951Y-113306000D02*
X169360000Y-113306000D01*
X178480912Y-114562698D02*
X178396059Y-114477845D01*
X176642432Y-115552646D02*
X176557579Y-115467793D01*
X178198072Y-116033484D02*
X177830375Y-116401178D01*
X176501005Y-114336416D02*
X176133309Y-114704112D01*
X175991889Y-113487889D02*
X175810000Y-113306000D01*
X176076741Y-113572741D02*
X175991889Y-113487889D01*
X177490965Y-116401179D02*
X177406112Y-116316326D01*
X175709046Y-114279848D02*
X176076740Y-113912151D01*
X177632379Y-113714165D02*
X177547526Y-113629312D01*
X176557579Y-115128381D02*
X177094979Y-114590978D01*
X180850000Y-118346000D02*
X178537484Y-116033484D01*
X175793899Y-114704113D02*
X175709046Y-114619260D01*
X180850000Y-118745000D02*
X180850000Y-118346000D01*
X175810000Y-113306000D02*
X174395951Y-113306000D01*
X177773806Y-115609217D02*
X178480912Y-114902109D01*
X175709046Y-114619260D02*
G75*
G02*
X175709092Y-114279894I169654J169660D01*
G01*
X177547526Y-113629312D02*
G75*
G03*
X177208114Y-113629312I-169706J-169704D01*
G01*
X176133308Y-114704111D02*
G75*
G02*
X175793896Y-114704116I-169708J169711D01*
G01*
X176981842Y-115552645D02*
G75*
G02*
X176642396Y-115552682I-169742J169745D01*
G01*
X177632379Y-114053576D02*
G75*
G03*
X177632349Y-113714195I-169679J169676D01*
G01*
X178396059Y-114477845D02*
G75*
G03*
X178056647Y-114477845I-169706J-169704D01*
G01*
X178480911Y-114902108D02*
G75*
G03*
X178480915Y-114562695I-169711J169708D01*
G01*
X178537483Y-116033485D02*
G75*
G03*
X178198073Y-116033485I-169705J-169700D01*
G01*
X176557580Y-115467792D02*
G75*
G02*
X176557593Y-115128395I169720J169692D01*
G01*
X176076740Y-113912151D02*
G75*
G03*
X176076786Y-113572696I-169740J169751D01*
G01*
X177830374Y-116401177D02*
G75*
G02*
X177490996Y-116401148I-169674J169677D01*
G01*
X177406113Y-116316325D02*
G75*
G02*
X177406093Y-115976895I169687J169725D01*
G01*
%TO.N,Net-(J4-RD+)*%
X168886261Y-116732260D02*
X169164860Y-116453659D01*
X169553769Y-117399769D02*
X169760000Y-117606000D01*
X168747670Y-116036471D02*
X168635946Y-116148192D01*
X169582053Y-116870853D02*
X169470331Y-116982576D01*
X169760000Y-117606000D02*
X169999000Y-117845000D01*
X168218754Y-115731000D02*
X168330477Y-115619278D01*
X176140000Y-117845000D02*
X178310000Y-120015000D01*
X169470330Y-117316330D02*
X169553769Y-117399769D01*
X168664231Y-115619277D02*
X168747669Y-115702715D01*
X165910000Y-113756000D02*
X167885000Y-115731000D01*
X169498616Y-116453661D02*
X169582054Y-116537099D01*
X168751911Y-116866611D02*
X168886261Y-116732260D01*
X168334718Y-116718119D02*
X168483210Y-116866611D01*
X168635946Y-116148192D02*
X168334718Y-116449419D01*
X169999000Y-117845000D02*
X176140000Y-117845000D01*
X168334718Y-116449419D02*
G75*
G03*
X168334687Y-116718150I134382J-134381D01*
G01*
X169470331Y-116982576D02*
G75*
G03*
X169470284Y-117316376I166869J-166924D01*
G01*
X168483210Y-116866611D02*
G75*
G03*
X168751911Y-116866611I134351J134353D01*
G01*
X169164860Y-116453659D02*
G75*
G02*
X169498579Y-116453698I166840J-166841D01*
G01*
X168747668Y-115702716D02*
G75*
G02*
X168747676Y-116036477I-166868J-166884D01*
G01*
X168330477Y-115619278D02*
G75*
G02*
X168664276Y-115619232I166923J-166922D01*
G01*
X167885000Y-115731000D02*
G75*
G03*
X168218754Y-115731000I166877J166876D01*
G01*
X169582054Y-116537099D02*
G75*
G02*
X169582077Y-116870877I-166854J-166901D01*
G01*
%TO.N,Net-(J4-RD-)*%
X172239000Y-121285000D02*
X180850000Y-121285000D01*
X164910000Y-113956000D02*
X172239000Y-121285000D01*
%TO.N,Net-(J2-Pin_2)*%
X147180000Y-128905000D02*
X147280000Y-128905000D01*
X143710000Y-125435000D02*
X147180000Y-128905000D01*
X142195000Y-121265000D02*
X143710000Y-122780000D01*
X143710000Y-122780000D02*
X143710000Y-125435000D01*
%TO.N,Net-(J2-Pin_1)*%
X142195000Y-124556396D02*
X144740000Y-127101396D01*
X144740000Y-127101396D02*
X144740000Y-128905000D01*
X142195000Y-123805000D02*
X142195000Y-124556396D01*
%TO.N,Net-(J2-Pin_4)*%
X144160000Y-125248604D02*
X144160000Y-120860000D01*
X142195000Y-118895000D02*
X142195000Y-118725000D01*
X149955000Y-126500000D02*
X145411396Y-126500000D01*
X152360000Y-128905000D02*
X149955000Y-126500000D01*
X145411396Y-126500000D02*
X144160000Y-125248604D01*
X144160000Y-120860000D02*
X142195000Y-118895000D01*
%TD*%
%TA.AperFunction,Conductor*%
%TO.N,GND*%
G36*
X149816646Y-126894407D02*
G01*
X149828459Y-126904496D01*
X150396213Y-127472250D01*
X150423990Y-127526767D01*
X150414419Y-127587199D01*
X150371154Y-127630464D01*
X150310722Y-127640035D01*
X150287583Y-127632961D01*
X150287552Y-127633047D01*
X150285920Y-127632453D01*
X150284376Y-127631981D01*
X150283495Y-127631570D01*
X150070000Y-127574364D01*
X150070000Y-128471988D01*
X150012993Y-128439075D01*
X149885826Y-128405000D01*
X149754174Y-128405000D01*
X149627007Y-128439075D01*
X149570000Y-128471988D01*
X149570000Y-127574364D01*
X149356505Y-127631570D01*
X149142432Y-127731394D01*
X149142424Y-127731398D01*
X148948926Y-127866886D01*
X148781886Y-128033926D01*
X148646398Y-128227424D01*
X148646394Y-128227432D01*
X148546570Y-128441505D01*
X148516014Y-128555541D01*
X148482689Y-128606856D01*
X148425568Y-128628782D01*
X148366467Y-128612946D01*
X148327962Y-128565396D01*
X148325172Y-128557028D01*
X148310582Y-128505750D01*
X148219673Y-128323179D01*
X148096764Y-128160421D01*
X147946041Y-128023019D01*
X147772637Y-127915652D01*
X147582456Y-127841976D01*
X147582455Y-127841975D01*
X147582453Y-127841975D01*
X147381976Y-127804500D01*
X147178024Y-127804500D01*
X146977544Y-127841975D01*
X146800178Y-127910686D01*
X146739087Y-127914076D01*
X146694412Y-127888375D01*
X145850541Y-127044504D01*
X145822764Y-126989987D01*
X145832335Y-126929555D01*
X145875600Y-126886290D01*
X145920545Y-126875500D01*
X149758455Y-126875500D01*
X149816646Y-126894407D01*
G37*
%TD.AperFunction*%
%TA.AperFunction,Conductor*%
G36*
X148515577Y-111417892D02*
G01*
X148553346Y-111466029D01*
X148556014Y-111474458D01*
X148586569Y-111588489D01*
X148686399Y-111802577D01*
X148821886Y-111996073D01*
X148988926Y-112163113D01*
X149182422Y-112298600D01*
X149396509Y-112398430D01*
X149610000Y-112455634D01*
X149610000Y-111558012D01*
X149667007Y-111590925D01*
X149794174Y-111625000D01*
X149925826Y-111625000D01*
X150052993Y-111590925D01*
X150110000Y-111558012D01*
X150110000Y-112455633D01*
X150323488Y-112398431D01*
X150324353Y-112398028D01*
X150324723Y-112397982D01*
X150327552Y-112396953D01*
X150327789Y-112397605D01*
X150385081Y-112390560D01*
X150438600Y-112420214D01*
X150464468Y-112475662D01*
X150452804Y-112535726D01*
X150436212Y-112557749D01*
X149079438Y-113914525D01*
X149079437Y-113914524D01*
X149009524Y-113984438D01*
X148960091Y-114070057D01*
X148934500Y-114165566D01*
X148934500Y-117575048D01*
X148915593Y-117633239D01*
X148901148Y-117649152D01*
X148871088Y-117675782D01*
X148814993Y-117700216D01*
X148755250Y-117687012D01*
X148714677Y-117641214D01*
X148706440Y-117601678D01*
X148706440Y-114056811D01*
X148702923Y-114043685D01*
X148680850Y-113961307D01*
X148680848Y-113961304D01*
X148680848Y-113961302D01*
X148631415Y-113875683D01*
X148561502Y-113805769D01*
X148561502Y-113805770D01*
X147724496Y-112968764D01*
X147696719Y-112914247D01*
X147695500Y-112898760D01*
X147695500Y-112227543D01*
X147714407Y-112169352D01*
X147758738Y-112135228D01*
X147787897Y-112123932D01*
X147812637Y-112114348D01*
X147986041Y-112006981D01*
X148136764Y-111869579D01*
X148259673Y-111706821D01*
X148350582Y-111524250D01*
X148365167Y-111472987D01*
X148399275Y-111422194D01*
X148456728Y-111401149D01*
X148515577Y-111417892D01*
G37*
%TD.AperFunction*%
%TA.AperFunction,Conductor*%
G36*
X194269191Y-109574907D02*
G01*
X194305155Y-109624407D01*
X194310000Y-109655000D01*
X194310000Y-110126326D01*
X194291093Y-110184517D01*
X194241593Y-110220481D01*
X194180407Y-110220481D01*
X194130907Y-110184517D01*
X194128684Y-110181327D01*
X194070602Y-110094400D01*
X194070599Y-110094397D01*
X193987742Y-110039035D01*
X193987740Y-110039034D01*
X193987737Y-110039033D01*
X193987736Y-110039033D01*
X193914684Y-110024501D01*
X193914674Y-110024500D01*
X192165326Y-110024500D01*
X192165325Y-110024500D01*
X192165315Y-110024501D01*
X192092263Y-110039033D01*
X192092257Y-110039035D01*
X192009400Y-110094397D01*
X192009397Y-110094400D01*
X191954035Y-110177257D01*
X191954033Y-110177263D01*
X191939501Y-110250315D01*
X191939500Y-110250327D01*
X191939500Y-111999672D01*
X191939501Y-111999684D01*
X191954033Y-112072736D01*
X191954035Y-112072742D01*
X192009397Y-112155599D01*
X192009400Y-112155602D01*
X192033553Y-112171740D01*
X192092260Y-112210966D01*
X192146911Y-112221837D01*
X192165315Y-112225498D01*
X192165320Y-112225498D01*
X192165326Y-112225500D01*
X192165327Y-112225500D01*
X193914673Y-112225500D01*
X193914674Y-112225500D01*
X193987740Y-112210966D01*
X194070601Y-112155601D01*
X194087348Y-112130537D01*
X194128684Y-112068673D01*
X194176733Y-112030792D01*
X194237871Y-112028390D01*
X194288746Y-112062382D01*
X194309924Y-112119785D01*
X194310000Y-112123673D01*
X194310000Y-131457000D01*
X194291093Y-131515191D01*
X194241593Y-131551155D01*
X194211000Y-131556000D01*
X184571074Y-131556000D01*
X184512883Y-131537093D01*
X184476919Y-131487593D01*
X184476919Y-131426407D01*
X184512883Y-131376907D01*
X184541893Y-131362398D01*
X184786560Y-131286927D01*
X185021178Y-131173941D01*
X185190170Y-131058724D01*
X184531427Y-130399981D01*
X184540784Y-130396106D01*
X184675907Y-130305819D01*
X184790819Y-130190907D01*
X184881106Y-130055784D01*
X184884981Y-130046427D01*
X185543230Y-130704676D01*
X185589614Y-130646514D01*
X185719816Y-130420999D01*
X185719820Y-130420991D01*
X185814964Y-130178566D01*
X185872909Y-129924691D01*
X185872911Y-129924681D01*
X185892372Y-129665002D01*
X185892372Y-129664997D01*
X185872911Y-129405318D01*
X185872910Y-129405311D01*
X185816537Y-129158325D01*
X185822022Y-129097386D01*
X185862278Y-129051309D01*
X185921929Y-129037694D01*
X185973322Y-129057753D01*
X186104390Y-129158325D01*
X186155792Y-129197767D01*
X186368708Y-129320694D01*
X186595847Y-129414778D01*
X186833323Y-129478409D01*
X187077073Y-129510500D01*
X187077074Y-129510500D01*
X187322926Y-129510500D01*
X187322927Y-129510500D01*
X187566677Y-129478409D01*
X187804153Y-129414778D01*
X188031292Y-129320694D01*
X188244208Y-129197767D01*
X188439256Y-129048101D01*
X188613101Y-128874256D01*
X188762767Y-128679208D01*
X188885694Y-128466292D01*
X188979778Y-128239153D01*
X189043409Y-128001677D01*
X189075500Y-127757927D01*
X189075500Y-127512073D01*
X189043409Y-127268323D01*
X188979778Y-127030847D01*
X188891178Y-126816948D01*
X188885697Y-126803715D01*
X188885696Y-126803714D01*
X188885694Y-126803708D01*
X188762767Y-126590792D01*
X188762764Y-126590788D01*
X188613106Y-126395750D01*
X188613104Y-126395748D01*
X188613101Y-126395744D01*
X188439256Y-126221899D01*
X188439251Y-126221895D01*
X188439249Y-126221893D01*
X188244211Y-126072235D01*
X188240657Y-126070183D01*
X188031292Y-125949306D01*
X188031288Y-125949304D01*
X188031284Y-125949302D01*
X187804154Y-125855222D01*
X187699440Y-125827164D01*
X187566677Y-125791591D01*
X187566674Y-125791590D01*
X187566672Y-125791590D01*
X187322927Y-125759500D01*
X187077073Y-125759500D01*
X187077072Y-125759500D01*
X186833330Y-125791590D01*
X186833325Y-125791590D01*
X186595845Y-125855222D01*
X186368715Y-125949302D01*
X186155788Y-126072235D01*
X185960750Y-126221893D01*
X185786893Y-126395750D01*
X185637235Y-126590788D01*
X185514302Y-126803715D01*
X185420222Y-127030845D01*
X185356590Y-127268325D01*
X185356590Y-127268330D01*
X185324500Y-127512072D01*
X185324500Y-127757927D01*
X185356590Y-128001669D01*
X185356590Y-128001674D01*
X185364264Y-128030315D01*
X185406353Y-128187394D01*
X185414805Y-128218935D01*
X185411602Y-128280037D01*
X185373097Y-128327587D01*
X185313996Y-128343422D01*
X185256875Y-128321495D01*
X185251843Y-128317132D01*
X185236357Y-128302764D01*
X185021178Y-128156058D01*
X184786560Y-128043072D01*
X184537718Y-127966314D01*
X184537708Y-127966312D01*
X184280211Y-127927500D01*
X184019788Y-127927500D01*
X183762291Y-127966312D01*
X183762281Y-127966314D01*
X183513439Y-128043072D01*
X183278812Y-128156062D01*
X183109827Y-128271273D01*
X183768571Y-128930018D01*
X183759216Y-128933894D01*
X183624093Y-129024181D01*
X183509181Y-129139093D01*
X183418894Y-129274216D01*
X183415018Y-129283572D01*
X182756768Y-128625322D01*
X182710390Y-128683479D01*
X182710381Y-128683493D01*
X182580183Y-128909000D01*
X182580179Y-128909008D01*
X182485035Y-129151433D01*
X182427090Y-129405308D01*
X182427088Y-129405318D01*
X182407628Y-129664997D01*
X182407628Y-129665002D01*
X182427088Y-129924681D01*
X182427090Y-129924691D01*
X182485035Y-130178566D01*
X182580179Y-130420991D01*
X182580183Y-130420999D01*
X182710381Y-130646506D01*
X182710391Y-130646521D01*
X182756768Y-130704676D01*
X183415017Y-130046426D01*
X183418894Y-130055784D01*
X183509181Y-130190907D01*
X183624093Y-130305819D01*
X183759216Y-130396106D01*
X183768571Y-130399980D01*
X183109828Y-131058724D01*
X183278821Y-131173941D01*
X183513439Y-131286927D01*
X183758107Y-131362398D01*
X183808139Y-131397618D01*
X183827915Y-131455519D01*
X183809880Y-131513986D01*
X183760924Y-131550686D01*
X183728926Y-131556000D01*
X139409000Y-131556000D01*
X139350809Y-131537093D01*
X139314845Y-131487593D01*
X139310000Y-131457000D01*
X139310000Y-117332824D01*
X140594999Y-117332824D01*
X140601401Y-117392370D01*
X140601403Y-117392381D01*
X140651646Y-117527088D01*
X140651647Y-117527090D01*
X140737807Y-117642184D01*
X140737815Y-117642192D01*
X140852909Y-117728352D01*
X140852911Y-117728353D01*
X140987618Y-117778596D01*
X140987629Y-117778598D01*
X141026867Y-117782816D01*
X141082704Y-117807834D01*
X141113172Y-117860893D01*
X141106633Y-117921728D01*
X141097384Y-117938032D01*
X141020962Y-118047175D01*
X141020959Y-118047181D01*
X140921098Y-118261332D01*
X140859935Y-118489599D01*
X140839341Y-118724995D01*
X140839341Y-118725004D01*
X140859935Y-118960400D01*
X140859936Y-118960407D01*
X140859937Y-118960408D01*
X140921097Y-119188663D01*
X141020965Y-119402830D01*
X141026774Y-119411126D01*
X141139224Y-119571722D01*
X141156505Y-119596401D01*
X141323599Y-119763495D01*
X141517170Y-119899035D01*
X141530552Y-119905275D01*
X141575300Y-119947003D01*
X141586975Y-120007064D01*
X141561117Y-120062517D01*
X141530554Y-120084724D01*
X141517173Y-120090963D01*
X141323603Y-120226501D01*
X141156501Y-120393603D01*
X141020963Y-120587173D01*
X141020959Y-120587181D01*
X140921098Y-120801332D01*
X140859935Y-121029599D01*
X140839341Y-121264995D01*
X140839341Y-121265004D01*
X140859935Y-121500400D01*
X140859936Y-121500407D01*
X140859937Y-121500408D01*
X140921097Y-121728663D01*
X141020965Y-121942830D01*
X141052637Y-121988062D01*
X141139224Y-122111722D01*
X141156505Y-122136401D01*
X141323599Y-122303495D01*
X141517170Y-122439035D01*
X141530552Y-122445275D01*
X141575300Y-122487003D01*
X141586975Y-122547064D01*
X141561117Y-122602517D01*
X141530554Y-122624724D01*
X141517173Y-122630963D01*
X141323603Y-122766501D01*
X141156501Y-122933603D01*
X141020963Y-123127173D01*
X141020959Y-123127181D01*
X140921098Y-123341332D01*
X140859935Y-123569599D01*
X140839341Y-123804995D01*
X140839341Y-123805004D01*
X140859935Y-124040400D01*
X140859936Y-124040407D01*
X140859937Y-124040408D01*
X140921097Y-124268663D01*
X141020965Y-124482830D01*
X141156505Y-124676401D01*
X141323599Y-124843495D01*
X141517170Y-124979035D01*
X141731337Y-125078903D01*
X141959592Y-125140063D01*
X141959596Y-125140063D01*
X141959599Y-125140064D01*
X142194997Y-125160659D01*
X142194999Y-125160659D01*
X142194999Y-125160658D01*
X142195000Y-125160659D01*
X142216342Y-125158791D01*
X142275958Y-125172552D01*
X142294977Y-125187410D01*
X144335504Y-127227937D01*
X144363281Y-127282454D01*
X144364500Y-127297941D01*
X144364500Y-127705500D01*
X144345593Y-127763691D01*
X144296093Y-127799655D01*
X144265500Y-127804500D01*
X143865326Y-127804500D01*
X143865325Y-127804500D01*
X143865315Y-127804501D01*
X143792263Y-127819033D01*
X143792257Y-127819035D01*
X143709400Y-127874397D01*
X143709397Y-127874400D01*
X143654035Y-127957257D01*
X143654033Y-127957263D01*
X143639501Y-128030315D01*
X143639500Y-128030327D01*
X143639500Y-129779672D01*
X143639501Y-129779684D01*
X143654033Y-129852736D01*
X143654035Y-129852742D01*
X143709397Y-129935599D01*
X143709400Y-129935602D01*
X143757924Y-129968024D01*
X143792260Y-129990966D01*
X143847808Y-130002015D01*
X143865315Y-130005498D01*
X143865320Y-130005498D01*
X143865326Y-130005500D01*
X143865327Y-130005500D01*
X145614673Y-130005500D01*
X145614674Y-130005500D01*
X145687740Y-129990966D01*
X145770601Y-129935601D01*
X145825966Y-129852740D01*
X145840500Y-129779674D01*
X145840500Y-128335545D01*
X145859407Y-128277354D01*
X145908907Y-128241390D01*
X145970093Y-128241390D01*
X146009504Y-128265541D01*
X146208344Y-128464381D01*
X146236121Y-128518898D01*
X146233561Y-128561477D01*
X146193603Y-128701915D01*
X146180808Y-128840000D01*
X146174785Y-128905000D01*
X146193603Y-129108083D01*
X146249418Y-129304250D01*
X146340327Y-129486821D01*
X146463236Y-129649579D01*
X146613959Y-129786981D01*
X146787363Y-129894348D01*
X146977544Y-129968024D01*
X147178024Y-130005500D01*
X147381976Y-130005500D01*
X147582456Y-129968024D01*
X147772637Y-129894348D01*
X147946041Y-129786981D01*
X148096764Y-129649579D01*
X148219673Y-129486821D01*
X148310582Y-129304250D01*
X148325167Y-129252987D01*
X148359275Y-129202194D01*
X148416728Y-129181149D01*
X148475577Y-129197892D01*
X148513346Y-129246029D01*
X148516014Y-129254458D01*
X148546569Y-129368489D01*
X148646399Y-129582577D01*
X148781886Y-129776073D01*
X148948926Y-129943113D01*
X149142422Y-130078600D01*
X149356509Y-130178430D01*
X149570000Y-130235634D01*
X149570000Y-129338012D01*
X149627007Y-129370925D01*
X149754174Y-129405000D01*
X149885826Y-129405000D01*
X150012993Y-129370925D01*
X150070000Y-129338012D01*
X150070000Y-130235633D01*
X150283490Y-130178430D01*
X150497577Y-130078600D01*
X150691073Y-129943113D01*
X150858113Y-129776073D01*
X150993600Y-129582577D01*
X151093430Y-129368490D01*
X151123985Y-129254458D01*
X151157309Y-129203144D01*
X151214430Y-129181217D01*
X151273531Y-129197052D01*
X151312036Y-129244602D01*
X151314829Y-129252978D01*
X151329418Y-129304250D01*
X151420327Y-129486821D01*
X151543236Y-129649579D01*
X151693959Y-129786981D01*
X151867363Y-129894348D01*
X152057544Y-129968024D01*
X152258024Y-130005500D01*
X152461976Y-130005500D01*
X152662456Y-129968024D01*
X152852637Y-129894348D01*
X153026041Y-129786981D01*
X153176764Y-129649579D01*
X153299673Y-129486821D01*
X153390582Y-129304250D01*
X153446397Y-129108083D01*
X153465215Y-128905000D01*
X153794785Y-128905000D01*
X153813603Y-129108083D01*
X153869418Y-129304250D01*
X153960327Y-129486821D01*
X154083236Y-129649579D01*
X154233959Y-129786981D01*
X154407363Y-129894348D01*
X154597544Y-129968024D01*
X154798024Y-130005500D01*
X155001976Y-130005500D01*
X155202456Y-129968024D01*
X155392637Y-129894348D01*
X155566041Y-129786981D01*
X155716764Y-129649579D01*
X155839673Y-129486821D01*
X155930582Y-129304250D01*
X155986397Y-129108083D01*
X156005215Y-128905000D01*
X155986397Y-128701917D01*
X155930582Y-128505750D01*
X155839673Y-128323179D01*
X155716764Y-128160421D01*
X155566041Y-128023019D01*
X155392637Y-127915652D01*
X155202456Y-127841976D01*
X155202455Y-127841975D01*
X155202453Y-127841975D01*
X155001976Y-127804500D01*
X154798024Y-127804500D01*
X154597546Y-127841975D01*
X154549849Y-127860453D01*
X154407363Y-127915652D01*
X154268428Y-128001677D01*
X154233959Y-128023019D01*
X154083237Y-128160420D01*
X153960328Y-128323177D01*
X153960323Y-128323186D01*
X153869516Y-128505553D01*
X153869418Y-128505750D01*
X153813603Y-128701917D01*
X153794785Y-128905000D01*
X153465215Y-128905000D01*
X153446397Y-128701917D01*
X153390582Y-128505750D01*
X153299673Y-128323179D01*
X153176764Y-128160421D01*
X153026041Y-128023019D01*
X152852637Y-127915652D01*
X152662456Y-127841976D01*
X152662455Y-127841975D01*
X152662453Y-127841975D01*
X152461976Y-127804500D01*
X152258024Y-127804500D01*
X152057544Y-127841975D01*
X151952256Y-127882764D01*
X151891165Y-127886154D01*
X151846490Y-127860453D01*
X150185563Y-126199526D01*
X150185563Y-126199525D01*
X150099941Y-126150091D01*
X150099934Y-126150088D01*
X150052185Y-126137294D01*
X150052184Y-126137294D01*
X150004438Y-126124500D01*
X150004436Y-126124500D01*
X150004435Y-126124500D01*
X145607941Y-126124500D01*
X145549750Y-126105593D01*
X145537937Y-126095504D01*
X144673105Y-125230672D01*
X146659500Y-125230672D01*
X146659501Y-125230684D01*
X146674033Y-125303736D01*
X146674035Y-125303742D01*
X146729397Y-125386599D01*
X146729400Y-125386602D01*
X146734212Y-125389817D01*
X146812260Y-125441966D01*
X146867808Y-125453015D01*
X146885315Y-125456498D01*
X146885320Y-125456498D01*
X146885326Y-125456500D01*
X146885327Y-125456500D01*
X149334673Y-125456500D01*
X149334674Y-125456500D01*
X149407740Y-125441966D01*
X149490601Y-125386601D01*
X149545966Y-125303740D01*
X149560500Y-125230674D01*
X149560500Y-123181326D01*
X149545966Y-123108260D01*
X149490601Y-123025399D01*
X149488089Y-123021639D01*
X149471481Y-122962750D01*
X149492659Y-122905347D01*
X149500392Y-122896643D01*
X150147033Y-122250003D01*
X160245362Y-122250003D01*
X160264664Y-122445990D01*
X160264665Y-122445992D01*
X160321837Y-122634461D01*
X160321838Y-122634463D01*
X160414669Y-122808139D01*
X160414672Y-122808144D01*
X160414674Y-122808147D01*
X160466774Y-122871631D01*
X160539609Y-122960381D01*
X160539618Y-122960390D01*
X160603203Y-123012572D01*
X160691853Y-123085326D01*
X160772168Y-123128254D01*
X160814575Y-123172360D01*
X160824500Y-123215565D01*
X160824500Y-126189982D01*
X160824500Y-126302018D01*
X160834815Y-126340513D01*
X160853498Y-126410241D01*
X160909514Y-126507262D01*
X161376433Y-126974182D01*
X161404210Y-127028698D01*
X161404597Y-127050013D01*
X161404722Y-127050013D01*
X161404722Y-127056002D01*
X161423762Y-127212816D01*
X161423763Y-127212818D01*
X161479312Y-127359288D01*
X161479780Y-127360523D01*
X161569515Y-127490528D01*
X161569516Y-127490529D01*
X161569517Y-127490530D01*
X161687760Y-127595283D01*
X161827635Y-127668696D01*
X161981015Y-127706500D01*
X161981018Y-127706500D01*
X162138982Y-127706500D01*
X162138985Y-127706500D01*
X162292365Y-127668696D01*
X162432240Y-127595283D01*
X162550483Y-127490530D01*
X162640220Y-127360523D01*
X162696237Y-127212818D01*
X162713813Y-127068068D01*
X162715278Y-127056001D01*
X162715278Y-127055998D01*
X162700214Y-126931937D01*
X162696237Y-126899182D01*
X162640220Y-126751477D01*
X162575241Y-126657338D01*
X162550484Y-126621471D01*
X162432241Y-126516718D01*
X162432240Y-126516717D01*
X162362302Y-126480010D01*
X162292364Y-126443303D01*
X162138987Y-126405500D01*
X162138985Y-126405500D01*
X162052256Y-126405500D01*
X161994065Y-126386593D01*
X161982252Y-126376504D01*
X161704496Y-126098748D01*
X161676719Y-126044231D01*
X161675500Y-126028744D01*
X161675500Y-124845004D01*
X172149939Y-124845004D01*
X172170144Y-125075955D01*
X172230151Y-125299907D01*
X172328132Y-125510029D01*
X172383022Y-125588421D01*
X172956211Y-125015231D01*
X172967482Y-125057292D01*
X173039890Y-125182708D01*
X173142292Y-125285110D01*
X173267708Y-125357518D01*
X173309766Y-125368787D01*
X172736577Y-125941976D01*
X172814967Y-125996866D01*
X173025092Y-126094848D01*
X173221862Y-126147572D01*
X173273176Y-126180896D01*
X173295103Y-126238017D01*
X173279268Y-126297118D01*
X173231718Y-126335623D01*
X173214430Y-126340513D01*
X173184416Y-126346123D01*
X172998553Y-126418127D01*
X172998548Y-126418130D01*
X172829094Y-126523052D01*
X172829092Y-126523053D01*
X172829090Y-126523055D01*
X172721134Y-126621470D01*
X172681789Y-126657338D01*
X172561680Y-126816387D01*
X172561670Y-126816403D01*
X172472829Y-126994819D01*
X172418283Y-127186529D01*
X172399892Y-127385000D01*
X172418283Y-127583470D01*
X172453288Y-127706499D01*
X172472829Y-127775180D01*
X172561674Y-127953604D01*
X172681791Y-128112664D01*
X172829090Y-128246945D01*
X172998554Y-128351873D01*
X173184414Y-128423876D01*
X173380340Y-128460500D01*
X173579660Y-128460500D01*
X173775586Y-128423876D01*
X173961446Y-128351873D01*
X174130910Y-128246945D01*
X174278209Y-128112664D01*
X174398326Y-127953604D01*
X174487171Y-127775180D01*
X174527054Y-127635003D01*
X177315712Y-127635003D01*
X177334815Y-127828971D01*
X177334816Y-127828976D01*
X177391398Y-128015498D01*
X177391400Y-128015503D01*
X177483277Y-128187394D01*
X177559307Y-128280037D01*
X177606932Y-128338068D01*
X177606937Y-128338072D01*
X177757605Y-128461722D01*
X177864575Y-128518898D01*
X177929502Y-128553602D01*
X178059442Y-128593018D01*
X178116023Y-128610183D01*
X178116028Y-128610184D01*
X178309997Y-128629288D01*
X178310000Y-128629288D01*
X178310003Y-128629288D01*
X178503971Y-128610184D01*
X178503976Y-128610183D01*
X178690498Y-128553602D01*
X178780023Y-128505750D01*
X178862394Y-128461722D01*
X178862395Y-128461720D01*
X178862397Y-128461720D01*
X179013068Y-128338068D01*
X179136720Y-128187397D01*
X179228602Y-128015498D01*
X179285183Y-127828976D01*
X179285184Y-127828971D01*
X179304288Y-127635003D01*
X179304288Y-127634996D01*
X179285184Y-127441028D01*
X179285183Y-127441023D01*
X179260763Y-127360523D01*
X179228602Y-127254502D01*
X179214403Y-127227937D01*
X179136722Y-127082605D01*
X179040738Y-126965648D01*
X179013068Y-126931932D01*
X178973162Y-126899182D01*
X178862394Y-126808277D01*
X178690503Y-126716400D01*
X178690498Y-126716398D01*
X178503976Y-126659816D01*
X178503971Y-126659815D01*
X178310003Y-126640712D01*
X178309997Y-126640712D01*
X178116028Y-126659815D01*
X178116023Y-126659816D01*
X177929501Y-126716398D01*
X177929496Y-126716400D01*
X177757605Y-126808277D01*
X177606937Y-126931927D01*
X177606927Y-126931937D01*
X177483277Y-127082605D01*
X177391400Y-127254496D01*
X177391398Y-127254501D01*
X177334816Y-127441023D01*
X177334815Y-127441028D01*
X177315712Y-127634996D01*
X177315712Y-127635003D01*
X174527054Y-127635003D01*
X174541717Y-127583469D01*
X174560108Y-127385000D01*
X174541717Y-127186531D01*
X174499152Y-127036929D01*
X174501413Y-126975788D01*
X174539182Y-126927651D01*
X174598031Y-126910907D01*
X174655484Y-126931951D01*
X174684097Y-126967999D01*
X174692893Y-126986861D01*
X174692902Y-126986877D01*
X174734770Y-127046672D01*
X175299283Y-126482159D01*
X175318052Y-126552203D01*
X175381903Y-126662797D01*
X175472203Y-126753097D01*
X175582797Y-126816948D01*
X175652837Y-126835715D01*
X175088326Y-127400227D01*
X175148135Y-127442105D01*
X175148143Y-127442109D01*
X175344614Y-127533725D01*
X175344613Y-127533725D01*
X175554035Y-127589839D01*
X175769997Y-127608733D01*
X175770003Y-127608733D01*
X175985964Y-127589839D01*
X176195386Y-127533725D01*
X176391858Y-127442108D01*
X176391868Y-127442103D01*
X176451672Y-127400227D01*
X175887160Y-126835715D01*
X175957203Y-126816948D01*
X176067797Y-126753097D01*
X176158097Y-126662797D01*
X176221948Y-126552203D01*
X176240715Y-126482161D01*
X176805227Y-127046672D01*
X176847103Y-126986868D01*
X176847108Y-126986858D01*
X176938725Y-126790386D01*
X176994839Y-126580964D01*
X177013733Y-126365003D01*
X179855712Y-126365003D01*
X179874815Y-126558971D01*
X179874816Y-126558976D01*
X179931398Y-126745498D01*
X179931400Y-126745503D01*
X180023277Y-126917394D01*
X180129373Y-127046672D01*
X180146932Y-127068068D01*
X180180648Y-127095738D01*
X180297605Y-127191722D01*
X180440930Y-127268330D01*
X180469502Y-127283602D01*
X180599442Y-127323018D01*
X180656023Y-127340183D01*
X180656028Y-127340184D01*
X180849997Y-127359288D01*
X180850000Y-127359288D01*
X180850003Y-127359288D01*
X181043971Y-127340184D01*
X181043976Y-127340183D01*
X181230498Y-127283602D01*
X181334640Y-127227937D01*
X181402394Y-127191722D01*
X181402395Y-127191720D01*
X181402397Y-127191720D01*
X181553068Y-127068068D01*
X181676720Y-126917397D01*
X181689009Y-126894407D01*
X181765406Y-126751477D01*
X181768602Y-126745498D01*
X181825183Y-126558976D01*
X181825184Y-126558971D01*
X181844288Y-126365003D01*
X181844288Y-126364996D01*
X181825184Y-126171028D01*
X181825183Y-126171023D01*
X181802075Y-126094848D01*
X181768602Y-125984502D01*
X181764540Y-125976903D01*
X181676722Y-125812605D01*
X181572576Y-125685703D01*
X181553068Y-125661932D01*
X181535353Y-125647394D01*
X181402394Y-125538277D01*
X181230503Y-125446400D01*
X181230498Y-125446398D01*
X181043976Y-125389816D01*
X181043971Y-125389815D01*
X180850003Y-125370712D01*
X180849997Y-125370712D01*
X180656028Y-125389815D01*
X180656023Y-125389816D01*
X180469501Y-125446398D01*
X180469496Y-125446400D01*
X180297605Y-125538277D01*
X180146937Y-125661927D01*
X180146927Y-125661937D01*
X180023277Y-125812605D01*
X179931400Y-125984496D01*
X179931398Y-125984501D01*
X179874816Y-126171023D01*
X179874815Y-126171028D01*
X179855712Y-126364996D01*
X179855712Y-126365003D01*
X177013733Y-126365003D01*
X177013733Y-126364996D01*
X176994839Y-126149035D01*
X176938725Y-125939614D01*
X176847109Y-125743144D01*
X176847105Y-125743136D01*
X176805226Y-125683326D01*
X176240715Y-126247836D01*
X176221948Y-126177797D01*
X176158097Y-126067203D01*
X176067797Y-125976903D01*
X175957203Y-125913052D01*
X175887159Y-125894284D01*
X176451673Y-125329770D01*
X176391877Y-125287902D01*
X176391858Y-125287890D01*
X176195385Y-125196274D01*
X176195386Y-125196274D01*
X175985964Y-125140160D01*
X175770003Y-125121267D01*
X175769997Y-125121267D01*
X175554035Y-125140160D01*
X175344614Y-125196274D01*
X175148143Y-125287890D01*
X175148129Y-125287898D01*
X175088326Y-125329772D01*
X175652838Y-125894284D01*
X175582797Y-125913052D01*
X175472203Y-125976903D01*
X175381903Y-126067203D01*
X175318052Y-126177797D01*
X175299284Y-126247838D01*
X174734771Y-125683325D01*
X174707596Y-125685703D01*
X174709453Y-125706918D01*
X174695009Y-125739363D01*
X174695057Y-125739391D01*
X174694794Y-125739846D01*
X174694090Y-125741428D01*
X174692897Y-125743130D01*
X174692890Y-125743143D01*
X174601274Y-125939614D01*
X174545160Y-126149035D01*
X174526267Y-126364996D01*
X174526267Y-126365003D01*
X174545160Y-126580965D01*
X174597685Y-126776994D01*
X174594482Y-126838095D01*
X174555977Y-126885645D01*
X174496876Y-126901480D01*
X174439755Y-126879553D01*
X174413438Y-126846746D01*
X174398326Y-126816396D01*
X174278209Y-126657336D01*
X174130910Y-126523055D01*
X173961446Y-126418127D01*
X173775586Y-126346124D01*
X173775585Y-126346123D01*
X173775583Y-126346123D01*
X173745569Y-126340513D01*
X173691843Y-126311236D01*
X173665587Y-126255970D01*
X173676830Y-126195827D01*
X173721277Y-126153778D01*
X173738137Y-126147572D01*
X173934907Y-126094848D01*
X174145029Y-125996867D01*
X174223421Y-125941975D01*
X173650233Y-125368787D01*
X173692292Y-125357518D01*
X173817708Y-125285110D01*
X173920110Y-125182708D01*
X173992518Y-125057292D01*
X174003787Y-125015233D01*
X174576976Y-125588422D01*
X174604152Y-125586044D01*
X174602296Y-125564830D01*
X174617665Y-125530312D01*
X174631866Y-125510030D01*
X174729848Y-125299907D01*
X174784751Y-125095003D01*
X177315712Y-125095003D01*
X177334815Y-125288971D01*
X177334816Y-125288976D01*
X177391398Y-125475498D01*
X177391400Y-125475503D01*
X177483277Y-125647394D01*
X177561856Y-125743143D01*
X177606932Y-125798068D01*
X177640648Y-125825738D01*
X177757605Y-125921722D01*
X177929496Y-126013599D01*
X177929502Y-126013602D01*
X178030472Y-126044231D01*
X178116023Y-126070183D01*
X178116028Y-126070184D01*
X178309997Y-126089288D01*
X178310000Y-126089288D01*
X178310003Y-126089288D01*
X178503971Y-126070184D01*
X178503976Y-126070183D01*
X178513800Y-126067203D01*
X178690498Y-126013602D01*
X178768253Y-125972040D01*
X178862394Y-125921722D01*
X178862395Y-125921720D01*
X178862397Y-125921720D01*
X179013068Y-125798068D01*
X179136720Y-125647397D01*
X179168244Y-125588421D01*
X179228599Y-125475503D01*
X179228602Y-125475498D01*
X179285183Y-125288976D01*
X179285184Y-125288971D01*
X179304288Y-125095003D01*
X179304288Y-125094996D01*
X179285184Y-124901028D01*
X179285183Y-124901023D01*
X179246223Y-124772591D01*
X179228602Y-124714502D01*
X179208234Y-124676396D01*
X179136722Y-124542605D01*
X179013072Y-124391937D01*
X179013068Y-124391932D01*
X178862864Y-124268663D01*
X178862394Y-124268277D01*
X178690503Y-124176400D01*
X178690498Y-124176398D01*
X178503976Y-124119816D01*
X178503971Y-124119815D01*
X178310003Y-124100712D01*
X178309997Y-124100712D01*
X178116028Y-124119815D01*
X178116023Y-124119816D01*
X177929501Y-124176398D01*
X177929496Y-124176400D01*
X177757605Y-124268277D01*
X177606937Y-124391927D01*
X177606927Y-124391937D01*
X177483277Y-124542605D01*
X177391400Y-124714496D01*
X177391398Y-124714501D01*
X177334816Y-124901023D01*
X177334815Y-124901028D01*
X177315712Y-125094996D01*
X177315712Y-125095003D01*
X174784751Y-125095003D01*
X174789855Y-125075955D01*
X174810061Y-124845004D01*
X174810061Y-124844995D01*
X174789855Y-124614044D01*
X174729847Y-124390087D01*
X174631872Y-124179980D01*
X174631868Y-124179972D01*
X174576976Y-124101577D01*
X174003787Y-124674766D01*
X173992518Y-124632708D01*
X173920110Y-124507292D01*
X173817708Y-124404890D01*
X173692292Y-124332482D01*
X173650231Y-124321211D01*
X174223421Y-123748022D01*
X174145029Y-123693132D01*
X173934907Y-123595151D01*
X173710955Y-123535144D01*
X173480004Y-123514939D01*
X173479996Y-123514939D01*
X173249044Y-123535144D01*
X173025087Y-123595152D01*
X172814978Y-123693127D01*
X172814965Y-123693135D01*
X172736577Y-123748022D01*
X173309767Y-124321212D01*
X173267708Y-124332482D01*
X173142292Y-124404890D01*
X173039890Y-124507292D01*
X172967482Y-124632708D01*
X172956212Y-124674767D01*
X172383022Y-124101577D01*
X172328135Y-124179965D01*
X172328127Y-124179978D01*
X172230152Y-124390087D01*
X172170144Y-124614044D01*
X172149939Y-124844995D01*
X172149939Y-124845004D01*
X161675500Y-124845004D01*
X161675500Y-123215565D01*
X161694407Y-123157374D01*
X161727830Y-123128255D01*
X161808147Y-123085326D01*
X161960386Y-122960386D01*
X162085326Y-122808147D01*
X162178164Y-122634458D01*
X162235334Y-122445995D01*
X162235334Y-122445991D01*
X162235335Y-122445990D01*
X162254638Y-122250003D01*
X162254638Y-122249996D01*
X162235335Y-122054009D01*
X162235334Y-122054007D01*
X162235334Y-122054005D01*
X162178164Y-121865542D01*
X162178161Y-121865536D01*
X162085330Y-121691860D01*
X162085328Y-121691858D01*
X162085326Y-121691853D01*
X162013010Y-121603736D01*
X161960390Y-121539618D01*
X161960381Y-121539609D01*
X161811249Y-121417220D01*
X161808147Y-121414674D01*
X161808144Y-121414672D01*
X161808139Y-121414669D01*
X161634463Y-121321838D01*
X161634461Y-121321837D01*
X161445992Y-121264665D01*
X161445990Y-121264664D01*
X161250003Y-121245362D01*
X161249997Y-121245362D01*
X161054009Y-121264664D01*
X161054007Y-121264665D01*
X160865538Y-121321837D01*
X160865536Y-121321838D01*
X160691860Y-121414669D01*
X160691854Y-121414673D01*
X160539618Y-121539609D01*
X160539609Y-121539618D01*
X160414673Y-121691854D01*
X160414669Y-121691860D01*
X160321838Y-121865536D01*
X160321837Y-121865538D01*
X160264665Y-122054007D01*
X160264664Y-122054009D01*
X160245362Y-122249996D01*
X160245362Y-122250003D01*
X150147033Y-122250003D01*
X150346722Y-122050314D01*
X150401238Y-122022538D01*
X150461670Y-122032109D01*
X150482374Y-122046216D01*
X150491171Y-122054009D01*
X150537760Y-122095283D01*
X150677635Y-122168696D01*
X150831015Y-122206500D01*
X150831018Y-122206500D01*
X150988982Y-122206500D01*
X150988985Y-122206500D01*
X151142365Y-122168696D01*
X151282240Y-122095283D01*
X151400483Y-121990530D01*
X151490220Y-121860523D01*
X151546237Y-121712818D01*
X151565278Y-121556000D01*
X151563288Y-121539614D01*
X151546237Y-121399183D01*
X151546237Y-121399182D01*
X151490220Y-121251477D01*
X151400483Y-121121470D01*
X151282240Y-121016717D01*
X151143040Y-120943658D01*
X151100304Y-120899876D01*
X151091463Y-120839332D01*
X151119898Y-120785155D01*
X151143038Y-120768342D01*
X151282240Y-120695283D01*
X151400483Y-120590530D01*
X151490220Y-120460523D01*
X151546237Y-120312818D01*
X151563501Y-120170632D01*
X151565278Y-120156001D01*
X151565278Y-120155998D01*
X151546237Y-119999183D01*
X151546237Y-119999182D01*
X151490220Y-119851477D01*
X151412782Y-119739288D01*
X151400484Y-119721471D01*
X151390715Y-119712816D01*
X151387540Y-119710003D01*
X159995928Y-119710003D01*
X160014978Y-119927759D01*
X160071558Y-120138916D01*
X160163941Y-120337034D01*
X160207376Y-120399067D01*
X160770873Y-119835569D01*
X160788454Y-119901179D01*
X160853661Y-120014121D01*
X160945879Y-120106339D01*
X161058821Y-120171546D01*
X161124427Y-120189125D01*
X160560931Y-120752622D01*
X160622965Y-120796058D01*
X160821083Y-120888441D01*
X161032240Y-120945021D01*
X161249997Y-120964072D01*
X161250003Y-120964072D01*
X161467759Y-120945021D01*
X161678916Y-120888441D01*
X161877034Y-120796058D01*
X161939067Y-120752622D01*
X161375570Y-120189125D01*
X161441179Y-120171546D01*
X161554121Y-120106339D01*
X161646339Y-120014121D01*
X161711546Y-119901179D01*
X161729125Y-119835570D01*
X162292622Y-120399067D01*
X162336058Y-120337034D01*
X162428441Y-120138916D01*
X162485021Y-119927759D01*
X162504072Y-119710003D01*
X162504072Y-119709996D01*
X162485021Y-119492240D01*
X162428441Y-119281083D01*
X162336058Y-119082965D01*
X162292622Y-119020931D01*
X161729125Y-119584427D01*
X161711546Y-119518821D01*
X161646339Y-119405879D01*
X161554121Y-119313661D01*
X161441179Y-119248454D01*
X161375569Y-119230873D01*
X161939067Y-118667376D01*
X161877034Y-118623941D01*
X161678916Y-118531558D01*
X161467759Y-118474978D01*
X161250003Y-118455928D01*
X161249997Y-118455928D01*
X161032240Y-118474978D01*
X160821078Y-118531559D01*
X160622972Y-118623937D01*
X160622955Y-118623947D01*
X160560931Y-118667376D01*
X161124429Y-119230874D01*
X161058821Y-119248454D01*
X160945879Y-119313661D01*
X160853661Y-119405879D01*
X160788454Y-119518821D01*
X160770874Y-119584429D01*
X160207376Y-119020931D01*
X160163947Y-119082955D01*
X160163937Y-119082972D01*
X160071559Y-119281078D01*
X160014978Y-119492240D01*
X159995928Y-119709996D01*
X159995928Y-119710003D01*
X151387540Y-119710003D01*
X151282240Y-119616717D01*
X151196510Y-119571722D01*
X151142364Y-119543303D01*
X150988987Y-119505500D01*
X150988985Y-119505500D01*
X150831015Y-119505500D01*
X150831012Y-119505500D01*
X150677635Y-119543303D01*
X150537758Y-119616718D01*
X150419515Y-119721471D01*
X150329780Y-119851476D01*
X150273763Y-119999182D01*
X150273762Y-119999183D01*
X150254722Y-120155997D01*
X150254722Y-120156003D01*
X150256498Y-120170632D01*
X150249684Y-120220449D01*
X150236463Y-120252367D01*
X150196726Y-120298893D01*
X150137231Y-120313176D01*
X150080703Y-120289761D01*
X150053535Y-120252366D01*
X150042821Y-120226501D01*
X150030368Y-120196435D01*
X150014070Y-120157088D01*
X150014064Y-120157076D01*
X149961747Y-120078780D01*
X149935765Y-120039895D01*
X149836105Y-119940235D01*
X149783784Y-119905275D01*
X149718923Y-119861935D01*
X149718917Y-119861933D01*
X149718918Y-119861933D01*
X149718916Y-119861932D01*
X149664475Y-119839381D01*
X149621613Y-119821627D01*
X149575088Y-119781890D01*
X149560500Y-119730163D01*
X149560500Y-119481327D01*
X149560498Y-119481315D01*
X149546536Y-119411126D01*
X149545966Y-119408260D01*
X149530545Y-119385180D01*
X149490602Y-119325400D01*
X149490599Y-119325397D01*
X149407742Y-119270035D01*
X149407740Y-119270034D01*
X149407737Y-119270033D01*
X149407736Y-119270033D01*
X149334684Y-119255501D01*
X149334674Y-119255500D01*
X146885326Y-119255500D01*
X146885325Y-119255500D01*
X146885315Y-119255501D01*
X146812263Y-119270033D01*
X146812257Y-119270035D01*
X146729400Y-119325397D01*
X146729397Y-119325400D01*
X146674035Y-119408257D01*
X146674033Y-119408263D01*
X146659501Y-119481315D01*
X146659500Y-119481327D01*
X146659500Y-121530672D01*
X146659501Y-121530684D01*
X146674033Y-121603736D01*
X146674035Y-121603742D01*
X146729397Y-121686599D01*
X146729400Y-121686602D01*
X146768636Y-121712818D01*
X146812260Y-121741966D01*
X146867808Y-121753015D01*
X146885315Y-121756498D01*
X146885320Y-121756498D01*
X146885326Y-121756500D01*
X146885327Y-121756500D01*
X149339454Y-121756500D01*
X149397645Y-121775407D01*
X149433609Y-121824907D01*
X149433609Y-121886093D01*
X149409458Y-121925503D01*
X148732446Y-122602517D01*
X148408459Y-122926504D01*
X148353942Y-122954281D01*
X148338455Y-122955500D01*
X146885326Y-122955500D01*
X146885325Y-122955500D01*
X146885315Y-122955501D01*
X146812263Y-122970033D01*
X146812257Y-122970035D01*
X146729400Y-123025397D01*
X146729397Y-123025400D01*
X146674035Y-123108257D01*
X146674033Y-123108263D01*
X146659501Y-123181315D01*
X146659500Y-123181327D01*
X146659500Y-125230672D01*
X144673105Y-125230672D01*
X144564496Y-125122063D01*
X144536719Y-125067546D01*
X144535500Y-125052059D01*
X144535500Y-120810566D01*
X144535500Y-120810565D01*
X144534404Y-120806474D01*
X144509911Y-120715063D01*
X144460475Y-120629437D01*
X144398432Y-120567394D01*
X144265434Y-120434395D01*
X144237657Y-120379879D01*
X144247228Y-120319447D01*
X144289429Y-120276733D01*
X144384893Y-120226630D01*
X144503136Y-120121877D01*
X144592873Y-119991870D01*
X144648890Y-119844165D01*
X144667931Y-119687347D01*
X144665047Y-119663599D01*
X144648890Y-119530530D01*
X144648890Y-119530529D01*
X144592873Y-119382824D01*
X144515020Y-119270034D01*
X144503137Y-119252818D01*
X144421504Y-119180498D01*
X144390485Y-119127758D01*
X144388153Y-119106395D01*
X144388153Y-112983891D01*
X144407060Y-112925700D01*
X144417143Y-112913893D01*
X145080475Y-112250562D01*
X145108970Y-112201205D01*
X145154438Y-112160265D01*
X145158932Y-112158396D01*
X145218738Y-112135228D01*
X145272628Y-112114352D01*
X145272632Y-112114350D01*
X145272632Y-112114349D01*
X145272637Y-112114348D01*
X145446041Y-112006981D01*
X145596764Y-111869579D01*
X145719673Y-111706821D01*
X145810582Y-111524250D01*
X145866397Y-111328083D01*
X145885215Y-111125000D01*
X146214785Y-111125000D01*
X146233603Y-111328083D01*
X146289418Y-111524250D01*
X146380327Y-111706821D01*
X146503236Y-111869579D01*
X146653959Y-112006981D01*
X146827363Y-112114348D01*
X146827367Y-112114349D01*
X146827368Y-112114350D01*
X146881262Y-112135228D01*
X146928693Y-112173878D01*
X146944500Y-112227543D01*
X146944500Y-113144743D01*
X146957294Y-113192489D01*
X146957294Y-113192490D01*
X146970088Y-113240239D01*
X146970091Y-113240246D01*
X147019525Y-113325868D01*
X147019526Y-113325868D01*
X147926444Y-114232786D01*
X147954221Y-114287303D01*
X147955440Y-114302790D01*
X147955440Y-117778632D01*
X147936533Y-117836823D01*
X147922089Y-117852735D01*
X147840455Y-117925055D01*
X147750720Y-118055060D01*
X147694703Y-118202766D01*
X147694702Y-118202767D01*
X147675662Y-118359582D01*
X147675662Y-118359585D01*
X147694702Y-118516400D01*
X147694703Y-118516402D01*
X147735486Y-118623937D01*
X147750720Y-118664107D01*
X147840455Y-118794112D01*
X147840456Y-118794113D01*
X147840457Y-118794114D01*
X147958700Y-118898867D01*
X148098575Y-118972280D01*
X148251955Y-119010084D01*
X148251958Y-119010084D01*
X148409922Y-119010084D01*
X148409925Y-119010084D01*
X148563305Y-118972280D01*
X148703180Y-118898867D01*
X148821423Y-118794114D01*
X148852614Y-118748925D01*
X148901228Y-118711776D01*
X148962395Y-118710296D01*
X148980093Y-118717501D01*
X149077635Y-118768696D01*
X149231015Y-118806500D01*
X149231018Y-118806500D01*
X149388982Y-118806500D01*
X149388985Y-118806500D01*
X149542365Y-118768696D01*
X149682240Y-118695283D01*
X149800483Y-118590530D01*
X149890220Y-118460523D01*
X149946237Y-118312818D01*
X149948574Y-118293567D01*
X149974357Y-118238080D01*
X150027831Y-118208345D01*
X150046852Y-118206500D01*
X150188982Y-118206500D01*
X150188985Y-118206500D01*
X150342365Y-118168696D01*
X150482240Y-118095283D01*
X150600483Y-117990530D01*
X150690220Y-117860523D01*
X150746237Y-117712818D01*
X150765278Y-117556000D01*
X150755655Y-117476748D01*
X150767410Y-117416704D01*
X150812214Y-117375036D01*
X150872953Y-117367660D01*
X150877625Y-117368693D01*
X150877633Y-117368694D01*
X150877635Y-117368696D01*
X151031015Y-117406500D01*
X151031018Y-117406500D01*
X151188982Y-117406500D01*
X151188985Y-117406500D01*
X151342365Y-117368696D01*
X151482240Y-117295283D01*
X151600483Y-117190530D01*
X151614652Y-117170003D01*
X160245362Y-117170003D01*
X160264664Y-117365990D01*
X160264665Y-117365991D01*
X160264665Y-117365993D01*
X160264666Y-117365995D01*
X160319541Y-117546893D01*
X160321837Y-117554461D01*
X160321838Y-117554463D01*
X160414669Y-117728139D01*
X160414672Y-117728144D01*
X160414674Y-117728147D01*
X160448870Y-117769815D01*
X160539609Y-117880381D01*
X160539618Y-117880390D01*
X160589989Y-117921728D01*
X160691853Y-118005326D01*
X160691858Y-118005328D01*
X160691860Y-118005330D01*
X160860148Y-118095281D01*
X160865542Y-118098164D01*
X161054005Y-118155334D01*
X161054007Y-118155334D01*
X161054009Y-118155335D01*
X161249997Y-118174638D01*
X161250000Y-118174638D01*
X161250003Y-118174638D01*
X161445990Y-118155335D01*
X161445991Y-118155334D01*
X161445995Y-118155334D01*
X161634458Y-118098164D01*
X161808147Y-118005326D01*
X161960386Y-117880386D01*
X162085326Y-117728147D01*
X162178164Y-117554458D01*
X162235334Y-117365995D01*
X162235334Y-117365993D01*
X162235335Y-117365991D01*
X162235335Y-117365990D01*
X162254638Y-117170003D01*
X162254638Y-117169996D01*
X162235335Y-116974009D01*
X162235334Y-116974007D01*
X162235334Y-116974005D01*
X162178164Y-116785542D01*
X162151149Y-116735000D01*
X162085330Y-116611860D01*
X162085328Y-116611858D01*
X162085326Y-116611853D01*
X162012166Y-116522708D01*
X161960390Y-116459618D01*
X161960381Y-116459609D01*
X161866534Y-116382591D01*
X161808147Y-116334674D01*
X161808144Y-116334672D01*
X161808139Y-116334669D01*
X161634463Y-116241838D01*
X161634461Y-116241837D01*
X161445992Y-116184665D01*
X161445990Y-116184664D01*
X161250003Y-116165362D01*
X161249997Y-116165362D01*
X161054009Y-116184664D01*
X161054007Y-116184665D01*
X160865538Y-116241837D01*
X160865536Y-116241838D01*
X160691860Y-116334669D01*
X160691854Y-116334673D01*
X160539618Y-116459609D01*
X160539609Y-116459618D01*
X160414673Y-116611854D01*
X160414669Y-116611860D01*
X160321838Y-116785536D01*
X160321837Y-116785538D01*
X160264665Y-116974007D01*
X160264664Y-116974009D01*
X160245362Y-117169996D01*
X160245362Y-117170003D01*
X151614652Y-117170003D01*
X151690220Y-117060523D01*
X151746237Y-116912818D01*
X151760821Y-116792708D01*
X151765278Y-116756001D01*
X151765278Y-116756000D01*
X151762728Y-116735000D01*
X151757635Y-116693062D01*
X151769389Y-116633019D01*
X151785905Y-116611130D01*
X152861541Y-115535496D01*
X152916058Y-115507719D01*
X152931545Y-115506500D01*
X161668435Y-115506500D01*
X161668436Y-115506500D01*
X161742680Y-115486606D01*
X161763938Y-115480910D01*
X161849562Y-115431475D01*
X161919475Y-115361562D01*
X164126541Y-113154496D01*
X164181058Y-113126719D01*
X164196545Y-113125500D01*
X164745965Y-113125500D01*
X164804156Y-113144407D01*
X164840120Y-113193907D01*
X164840120Y-113255093D01*
X164804156Y-113304593D01*
X164769657Y-113320623D01*
X164677635Y-113343303D01*
X164537758Y-113416718D01*
X164419515Y-113521471D01*
X164329780Y-113651476D01*
X164273763Y-113799182D01*
X164273762Y-113799183D01*
X164254722Y-113955998D01*
X164254722Y-113956001D01*
X164273762Y-114112816D01*
X164273763Y-114112818D01*
X164303235Y-114190529D01*
X164329780Y-114260523D01*
X164419515Y-114390528D01*
X164419516Y-114390529D01*
X164419517Y-114390530D01*
X164537760Y-114495283D01*
X164677635Y-114568696D01*
X164831015Y-114606500D01*
X164831018Y-114606500D01*
X164988455Y-114606500D01*
X165046646Y-114625407D01*
X165058459Y-114635496D01*
X171938525Y-121515562D01*
X171938524Y-121515562D01*
X172008438Y-121585475D01*
X172094058Y-121634908D01*
X172094062Y-121634910D01*
X172141812Y-121647705D01*
X172141813Y-121647705D01*
X172189564Y-121660500D01*
X172189565Y-121660500D01*
X179869388Y-121660500D01*
X179927579Y-121679407D01*
X179956698Y-121712832D01*
X180023277Y-121837394D01*
X180109806Y-121942830D01*
X180146932Y-121988068D01*
X180146937Y-121988072D01*
X180297605Y-122111722D01*
X180422745Y-122178610D01*
X180469502Y-122203602D01*
X180599442Y-122243018D01*
X180656023Y-122260183D01*
X180656028Y-122260184D01*
X180849997Y-122279288D01*
X180850000Y-122279288D01*
X180850003Y-122279288D01*
X181043971Y-122260184D01*
X181043976Y-122260183D01*
X181230498Y-122203602D01*
X181344539Y-122142646D01*
X181402394Y-122111722D01*
X181402395Y-122111720D01*
X181402397Y-122111720D01*
X181553068Y-121988068D01*
X181676720Y-121837397D01*
X181709855Y-121775407D01*
X181754515Y-121691853D01*
X181768602Y-121665498D01*
X181825183Y-121478976D01*
X181825184Y-121478971D01*
X181844288Y-121285003D01*
X181844288Y-121284996D01*
X181825184Y-121091028D01*
X181825183Y-121091023D01*
X181772438Y-120917148D01*
X181768602Y-120904502D01*
X181768599Y-120904496D01*
X181676722Y-120732605D01*
X181560124Y-120590530D01*
X181553068Y-120581932D01*
X181535353Y-120567394D01*
X181402394Y-120458277D01*
X181230503Y-120366400D01*
X181230498Y-120366398D01*
X181043976Y-120309816D01*
X181043971Y-120309815D01*
X180850003Y-120290712D01*
X180849997Y-120290712D01*
X180656028Y-120309815D01*
X180656023Y-120309816D01*
X180469501Y-120366398D01*
X180469496Y-120366400D01*
X180297605Y-120458277D01*
X180146937Y-120581927D01*
X180146927Y-120581937D01*
X180023277Y-120732605D01*
X179956698Y-120857168D01*
X179912593Y-120899575D01*
X179869388Y-120909500D01*
X179056494Y-120909500D01*
X178998303Y-120890593D01*
X178962339Y-120841093D01*
X178962339Y-120779907D01*
X178993689Y-120733972D01*
X178996066Y-120732020D01*
X179013068Y-120718068D01*
X179136720Y-120567397D01*
X179228602Y-120395498D01*
X179285183Y-120208976D01*
X179285184Y-120208971D01*
X179304288Y-120015003D01*
X179304288Y-120014996D01*
X179285184Y-119821028D01*
X179285183Y-119821023D01*
X179267732Y-119763495D01*
X179228602Y-119634502D01*
X179226140Y-119629896D01*
X179136722Y-119462605D01*
X179013072Y-119311937D01*
X179013068Y-119311932D01*
X178962014Y-119270033D01*
X178862394Y-119188277D01*
X178690503Y-119096400D01*
X178690498Y-119096398D01*
X178503976Y-119039816D01*
X178503971Y-119039815D01*
X178310003Y-119020712D01*
X178309997Y-119020712D01*
X178116028Y-119039815D01*
X178116023Y-119039816D01*
X177980863Y-119080817D01*
X177919689Y-119079616D01*
X177882121Y-119056084D01*
X176370563Y-117544526D01*
X176370563Y-117544525D01*
X176284941Y-117495091D01*
X176284934Y-117495088D01*
X176237185Y-117482294D01*
X176237184Y-117482294D01*
X176189438Y-117469500D01*
X176189436Y-117469500D01*
X176189435Y-117469500D01*
X174577312Y-117469500D01*
X174519121Y-117450593D01*
X174483157Y-117401093D01*
X174483157Y-117339907D01*
X174497402Y-117314184D01*
X174496407Y-117313488D01*
X174631867Y-117120029D01*
X174729848Y-116909907D01*
X174789855Y-116685955D01*
X174810061Y-116455004D01*
X174810061Y-116454995D01*
X174789855Y-116224044D01*
X174729847Y-116000087D01*
X174631872Y-115789980D01*
X174631868Y-115789972D01*
X174576976Y-115711577D01*
X174003787Y-116284765D01*
X173992518Y-116242708D01*
X173920110Y-116117292D01*
X173817708Y-116014890D01*
X173692292Y-115942482D01*
X173650231Y-115931211D01*
X174223421Y-115358022D01*
X174145029Y-115303132D01*
X173934907Y-115205151D01*
X173710955Y-115145144D01*
X173480004Y-115124939D01*
X173479996Y-115124939D01*
X173249044Y-115145144D01*
X173025087Y-115205152D01*
X172814978Y-115303127D01*
X172814965Y-115303135D01*
X172736577Y-115358022D01*
X173309767Y-115931212D01*
X173267708Y-115942482D01*
X173142292Y-116014890D01*
X173039890Y-116117292D01*
X172967482Y-116242708D01*
X172956212Y-116284766D01*
X172383022Y-115711577D01*
X172328135Y-115789965D01*
X172328127Y-115789978D01*
X172230152Y-116000087D01*
X172170144Y-116224044D01*
X172149939Y-116454995D01*
X172149939Y-116455004D01*
X172170144Y-116685955D01*
X172230151Y-116909907D01*
X172328132Y-117120029D01*
X172463593Y-117313488D01*
X172461744Y-117314782D01*
X172481452Y-117363674D01*
X172466602Y-117423030D01*
X172419700Y-117462321D01*
X172382688Y-117469500D01*
X170195545Y-117469500D01*
X170137354Y-117450593D01*
X170125541Y-117440504D01*
X170066120Y-117381083D01*
X170066110Y-117381071D01*
X169904037Y-117218999D01*
X169876259Y-117164482D01*
X169885830Y-117104050D01*
X169893883Y-117091547D01*
X169896317Y-117087672D01*
X169896319Y-117087671D01*
X169969636Y-116970982D01*
X170015147Y-116840902D01*
X170030569Y-116703957D01*
X170015128Y-116567013D01*
X169969599Y-116436940D01*
X169944680Y-116397292D01*
X169896267Y-116320263D01*
X169847543Y-116271551D01*
X169847537Y-116271541D01*
X169847536Y-116271543D01*
X169724810Y-116148818D01*
X169724344Y-116148409D01*
X169715447Y-116139508D01*
X169598781Y-116066169D01*
X169598772Y-116066165D01*
X169538994Y-116045237D01*
X169468711Y-116020631D01*
X169468709Y-116020630D01*
X169363817Y-116008798D01*
X169331772Y-116005183D01*
X169331770Y-116005183D01*
X169331769Y-116005183D01*
X169302300Y-116008500D01*
X169242360Y-115996220D01*
X169201085Y-115951053D01*
X169192849Y-115899041D01*
X169196168Y-115869586D01*
X169186071Y-115779995D01*
X169180736Y-115732654D01*
X169180735Y-115732650D01*
X169135218Y-115602581D01*
X169135215Y-115602577D01*
X169135215Y-115602575D01*
X169068964Y-115497149D01*
X169061897Y-115485903D01*
X169021429Y-115445438D01*
X169021428Y-115445436D01*
X169021428Y-115445437D01*
X168972929Y-115396938D01*
X168972781Y-115396767D01*
X168958956Y-115382949D01*
X168958862Y-115382765D01*
X168880992Y-115304934D01*
X168764313Y-115231658D01*
X168764306Y-115231655D01*
X168634242Y-115186172D01*
X168634236Y-115186171D01*
X168629516Y-115185640D01*
X168573805Y-115160343D01*
X168543603Y-115107131D01*
X168550447Y-115046329D01*
X168574938Y-115013159D01*
X168600483Y-114990530D01*
X168690220Y-114860523D01*
X168746237Y-114712818D01*
X168761757Y-114585000D01*
X168765278Y-114556001D01*
X168765278Y-114556000D01*
X168763906Y-114544704D01*
X168757635Y-114493062D01*
X168769389Y-114433019D01*
X168785910Y-114411126D01*
X169486542Y-113710496D01*
X169541058Y-113682719D01*
X169556545Y-113681500D01*
X174346516Y-113681500D01*
X175537347Y-113681500D01*
X175595538Y-113700407D01*
X175631502Y-113749907D01*
X175631502Y-113811093D01*
X175607351Y-113850503D01*
X175404327Y-114053529D01*
X175403818Y-114054108D01*
X175394599Y-114063322D01*
X175394594Y-114063329D01*
X175320766Y-114180761D01*
X175274928Y-114311675D01*
X175274927Y-114311676D01*
X175259375Y-114449518D01*
X175274889Y-114587354D01*
X175274889Y-114587356D01*
X175274890Y-114587357D01*
X175320695Y-114718288D01*
X175320697Y-114718291D01*
X175394487Y-114835736D01*
X175394489Y-114835738D01*
X175394491Y-114835741D01*
X175402930Y-114844180D01*
X175402933Y-114844184D01*
X175485918Y-114927170D01*
X175485926Y-114927179D01*
X175490212Y-114931465D01*
X175490213Y-114931466D01*
X175499388Y-114940641D01*
X175499395Y-114940654D01*
X175536361Y-114977618D01*
X175577425Y-115018680D01*
X175694866Y-115092468D01*
X175825782Y-115138274D01*
X175963608Y-115153801D01*
X175989060Y-115150932D01*
X176002862Y-115149378D01*
X176062804Y-115161650D01*
X176104085Y-115206811D01*
X176112325Y-115258842D01*
X176107904Y-115298071D01*
X176107904Y-115298074D01*
X176107904Y-115298076D01*
X176108677Y-115304936D01*
X176123426Y-115435893D01*
X176123426Y-115435895D01*
X176169226Y-115566811D01*
X176243002Y-115684244D01*
X176243010Y-115684253D01*
X176252797Y-115694042D01*
X176252842Y-115694093D01*
X176292039Y-115733291D01*
X176292038Y-115733291D01*
X176292044Y-115733295D01*
X176333850Y-115775108D01*
X176333932Y-115775202D01*
X176347933Y-115789198D01*
X176348007Y-115789344D01*
X176376938Y-115818262D01*
X176425984Y-115867286D01*
X176497971Y-115912499D01*
X176533796Y-115935000D01*
X176543431Y-115941051D01*
X176674347Y-115986837D01*
X176812168Y-116002348D01*
X176851352Y-115997929D01*
X176911295Y-116010196D01*
X176952579Y-116055354D01*
X176960824Y-116107383D01*
X176956404Y-116146635D01*
X176956404Y-116146636D01*
X176971944Y-116284472D01*
X176971944Y-116284475D01*
X177017768Y-116415399D01*
X177091571Y-116532830D01*
X177091575Y-116532835D01*
X177091577Y-116532838D01*
X177136158Y-116577409D01*
X177136162Y-116577417D01*
X177136164Y-116577416D01*
X177264743Y-116705994D01*
X177265154Y-116706355D01*
X177274466Y-116715669D01*
X177391900Y-116789482D01*
X177409645Y-116795693D01*
X177419733Y-116799225D01*
X177468409Y-116836296D01*
X177486000Y-116894898D01*
X177474336Y-116939334D01*
X177391397Y-117094503D01*
X177334816Y-117281023D01*
X177334815Y-117281028D01*
X177315712Y-117474996D01*
X177315712Y-117475003D01*
X177334815Y-117668971D01*
X177334816Y-117668976D01*
X177391398Y-117855498D01*
X177391400Y-117855503D01*
X177483277Y-118027394D01*
X177596990Y-118165954D01*
X177606932Y-118178068D01*
X177624647Y-118192606D01*
X177757605Y-118301722D01*
X177921835Y-118389504D01*
X177929502Y-118393602D01*
X178037609Y-118426396D01*
X178116023Y-118450183D01*
X178116028Y-118450184D01*
X178309997Y-118469288D01*
X178310000Y-118469288D01*
X178310003Y-118469288D01*
X178503971Y-118450184D01*
X178503976Y-118450183D01*
X178690498Y-118393602D01*
X178800159Y-118334987D01*
X178862394Y-118301722D01*
X178862395Y-118301720D01*
X178862397Y-118301720D01*
X179013068Y-118178068D01*
X179136720Y-118027397D01*
X179148518Y-118005326D01*
X179191423Y-117925055D01*
X179228602Y-117855498D01*
X179285183Y-117668976D01*
X179285184Y-117668970D01*
X179296310Y-117555999D01*
X179296653Y-117552517D01*
X179321172Y-117496461D01*
X179373959Y-117465521D01*
X179434849Y-117471518D01*
X179465180Y-117492217D01*
X180023968Y-118051005D01*
X180051745Y-118105522D01*
X180042174Y-118165954D01*
X180030497Y-118183808D01*
X180023279Y-118192604D01*
X180023277Y-118192606D01*
X179931400Y-118364496D01*
X179931398Y-118364501D01*
X179874816Y-118551023D01*
X179874815Y-118551028D01*
X179855712Y-118744996D01*
X179855712Y-118745003D01*
X179874815Y-118938971D01*
X179874816Y-118938976D01*
X179931398Y-119125498D01*
X179931400Y-119125503D01*
X180023277Y-119297394D01*
X180144587Y-119445211D01*
X180146932Y-119448068D01*
X180168347Y-119465643D01*
X180297605Y-119571722D01*
X180469496Y-119663599D01*
X180469502Y-119663602D01*
X180599442Y-119703018D01*
X180656023Y-119720183D01*
X180656028Y-119720184D01*
X180849997Y-119739288D01*
X180850000Y-119739288D01*
X180850003Y-119739288D01*
X181043971Y-119720184D01*
X181043976Y-119720183D01*
X181068258Y-119712817D01*
X181230498Y-119663602D01*
X181318214Y-119616717D01*
X181402394Y-119571722D01*
X181402395Y-119571720D01*
X181402397Y-119571720D01*
X181553068Y-119448068D01*
X181676720Y-119297397D01*
X181691346Y-119270035D01*
X181739204Y-119180498D01*
X181768602Y-119125498D01*
X181825183Y-118938976D01*
X181825184Y-118938971D01*
X181844288Y-118745003D01*
X181844288Y-118744996D01*
X181825184Y-118551028D01*
X181825183Y-118551023D01*
X181802115Y-118474978D01*
X181768602Y-118364502D01*
X181745526Y-118321330D01*
X181676722Y-118192605D01*
X181560514Y-118051005D01*
X181553068Y-118041932D01*
X181508468Y-118005330D01*
X181402394Y-117918277D01*
X181230503Y-117826400D01*
X181230498Y-117826398D01*
X181043976Y-117769816D01*
X181043971Y-117769815D01*
X180850003Y-117750712D01*
X180849999Y-117750712D01*
X180838101Y-117751883D01*
X180778338Y-117738766D01*
X180758400Y-117723363D01*
X180398541Y-117363504D01*
X180370764Y-117308987D01*
X180380335Y-117248555D01*
X180423600Y-117205290D01*
X180468545Y-117194500D01*
X181613673Y-117194500D01*
X181613674Y-117194500D01*
X181686740Y-117179966D01*
X181769601Y-117124601D01*
X181824966Y-117041740D01*
X181839500Y-116968674D01*
X181839500Y-116255545D01*
X181858407Y-116197354D01*
X181907907Y-116161390D01*
X181969093Y-116161390D01*
X182008504Y-116185541D01*
X185234089Y-119411126D01*
X185261866Y-119465643D01*
X185262363Y-119493062D01*
X185254722Y-119555997D01*
X185254722Y-119556001D01*
X185273762Y-119712816D01*
X185273763Y-119712818D01*
X185323576Y-119844164D01*
X185329780Y-119860523D01*
X185419515Y-119990528D01*
X185419516Y-119990529D01*
X185419517Y-119990530D01*
X185537760Y-120095283D01*
X185677635Y-120168696D01*
X185831015Y-120206500D01*
X185831018Y-120206500D01*
X185988982Y-120206500D01*
X185988985Y-120206500D01*
X186142365Y-120168696D01*
X186282240Y-120095283D01*
X186400483Y-119990530D01*
X186490220Y-119860523D01*
X186546237Y-119712818D01*
X186565278Y-119556000D01*
X186563736Y-119543304D01*
X186546237Y-119399183D01*
X186546237Y-119399182D01*
X186490220Y-119251477D01*
X186420833Y-119150952D01*
X186400484Y-119121471D01*
X186372185Y-119096400D01*
X186282240Y-119016717D01*
X186212302Y-118980010D01*
X186142364Y-118943303D01*
X185988987Y-118905500D01*
X185988985Y-118905500D01*
X185831546Y-118905500D01*
X185773355Y-118886593D01*
X185761542Y-118876504D01*
X182434496Y-115549458D01*
X182406719Y-115494941D01*
X182405500Y-115479454D01*
X182405500Y-114997911D01*
X182424407Y-114939720D01*
X182473907Y-114903756D01*
X182535093Y-114903756D01*
X182584593Y-114939720D01*
X182590236Y-114948411D01*
X182710381Y-115156506D01*
X182710391Y-115156521D01*
X182756768Y-115214676D01*
X183415017Y-114556426D01*
X183418894Y-114565784D01*
X183509181Y-114700907D01*
X183624093Y-114815819D01*
X183759216Y-114906106D01*
X183768571Y-114909980D01*
X183109828Y-115568724D01*
X183278821Y-115683941D01*
X183513439Y-115796927D01*
X183762281Y-115873685D01*
X183762291Y-115873687D01*
X184019788Y-115912499D01*
X184019797Y-115912500D01*
X184280203Y-115912500D01*
X184280211Y-115912499D01*
X184537708Y-115873687D01*
X184537718Y-115873685D01*
X184786560Y-115796927D01*
X185021178Y-115683941D01*
X185236353Y-115537238D01*
X185251840Y-115522869D01*
X185307357Y-115497149D01*
X185367389Y-115508973D01*
X185409006Y-115553825D01*
X185416312Y-115614573D01*
X185414805Y-115621061D01*
X185356591Y-115838323D01*
X185356591Y-115838325D01*
X185356590Y-115838330D01*
X185324500Y-116082072D01*
X185324500Y-116327927D01*
X185356590Y-116571669D01*
X185356590Y-116571674D01*
X185420222Y-116809154D01*
X185514302Y-117036284D01*
X185514304Y-117036288D01*
X185514306Y-117036292D01*
X185611877Y-117205290D01*
X185637235Y-117249211D01*
X185786893Y-117444249D01*
X185786895Y-117444251D01*
X185786899Y-117444256D01*
X185960744Y-117618101D01*
X185960748Y-117618104D01*
X185960750Y-117618106D01*
X186141072Y-117756472D01*
X186155792Y-117767767D01*
X186368708Y-117890694D01*
X186368714Y-117890696D01*
X186368715Y-117890697D01*
X186443631Y-117921728D01*
X186595847Y-117984778D01*
X186833323Y-118048409D01*
X187077073Y-118080500D01*
X187077074Y-118080500D01*
X187322926Y-118080500D01*
X187322927Y-118080500D01*
X187566677Y-118048409D01*
X187804153Y-117984778D01*
X188031292Y-117890694D01*
X188244208Y-117767767D01*
X188439256Y-117618101D01*
X188613101Y-117444256D01*
X188762767Y-117249208D01*
X188885694Y-117036292D01*
X188979778Y-116809153D01*
X189043409Y-116571677D01*
X189075500Y-116327927D01*
X189075500Y-116082073D01*
X189043409Y-115838323D01*
X188979778Y-115600847D01*
X188885694Y-115373708D01*
X188762767Y-115160792D01*
X188762764Y-115160788D01*
X188613106Y-114965750D01*
X188613104Y-114965748D01*
X188613101Y-114965744D01*
X188439256Y-114791899D01*
X188439251Y-114791895D01*
X188439249Y-114791893D01*
X188244211Y-114642235D01*
X188223948Y-114630536D01*
X188031292Y-114519306D01*
X188031288Y-114519304D01*
X188031284Y-114519302D01*
X187804154Y-114425222D01*
X187699440Y-114397164D01*
X187566677Y-114361591D01*
X187566674Y-114361590D01*
X187566672Y-114361590D01*
X187322927Y-114329500D01*
X187077073Y-114329500D01*
X187077072Y-114329500D01*
X186833330Y-114361590D01*
X186833325Y-114361590D01*
X186595845Y-114425222D01*
X186368715Y-114519302D01*
X186155788Y-114642235D01*
X185973322Y-114782246D01*
X185915646Y-114802670D01*
X185856981Y-114785292D01*
X185819733Y-114736751D01*
X185816537Y-114681674D01*
X185872910Y-114434688D01*
X185872911Y-114434681D01*
X185892372Y-114175002D01*
X185892372Y-114174997D01*
X185872911Y-113915318D01*
X185872909Y-113915308D01*
X185814964Y-113661433D01*
X185719820Y-113419008D01*
X185719816Y-113419000D01*
X185589618Y-113193493D01*
X185589608Y-113193478D01*
X185543230Y-113135322D01*
X184884980Y-113793571D01*
X184881106Y-113784216D01*
X184790819Y-113649093D01*
X184675907Y-113534181D01*
X184540784Y-113443894D01*
X184531426Y-113440017D01*
X185190171Y-112781273D01*
X185021182Y-112666059D01*
X184786560Y-112553072D01*
X184537718Y-112476314D01*
X184537708Y-112476312D01*
X184280211Y-112437500D01*
X184019788Y-112437500D01*
X183762291Y-112476312D01*
X183762281Y-112476314D01*
X183513439Y-112553072D01*
X183278812Y-112666062D01*
X183109827Y-112781273D01*
X183768572Y-113440018D01*
X183759216Y-113443894D01*
X183624093Y-113534181D01*
X183509181Y-113649093D01*
X183418894Y-113784216D01*
X183415018Y-113793572D01*
X182756768Y-113135322D01*
X182710390Y-113193479D01*
X182710385Y-113193487D01*
X182590236Y-113401589D01*
X182544766Y-113442529D01*
X182483916Y-113448924D01*
X182430928Y-113418331D01*
X182406042Y-113362436D01*
X182405500Y-113352088D01*
X182405500Y-112265895D01*
X182424407Y-112207704D01*
X182473907Y-112171740D01*
X182535093Y-112171740D01*
X182540233Y-112173569D01*
X182577544Y-112188024D01*
X182778024Y-112225500D01*
X182981976Y-112225500D01*
X183182456Y-112188024D01*
X183372637Y-112114348D01*
X183546041Y-112006981D01*
X183696764Y-111869579D01*
X183819673Y-111706821D01*
X183910582Y-111524250D01*
X183966397Y-111328083D01*
X183985215Y-111125000D01*
X184314785Y-111125000D01*
X184333603Y-111328083D01*
X184389418Y-111524250D01*
X184480327Y-111706821D01*
X184603236Y-111869579D01*
X184753959Y-112006981D01*
X184927363Y-112114348D01*
X185117544Y-112188024D01*
X185318024Y-112225500D01*
X185521976Y-112225500D01*
X185722456Y-112188024D01*
X185912637Y-112114348D01*
X186086041Y-112006981D01*
X186236764Y-111869579D01*
X186359673Y-111706821D01*
X186450582Y-111524250D01*
X186465167Y-111472987D01*
X186499275Y-111422194D01*
X186556728Y-111401149D01*
X186615577Y-111417892D01*
X186653346Y-111466029D01*
X186656014Y-111474458D01*
X186686569Y-111588489D01*
X186786399Y-111802577D01*
X186921886Y-111996073D01*
X187088926Y-112163113D01*
X187282422Y-112298600D01*
X187496509Y-112398430D01*
X187710000Y-112455634D01*
X187710000Y-111558012D01*
X187767007Y-111590925D01*
X187894174Y-111625000D01*
X188025826Y-111625000D01*
X188152993Y-111590925D01*
X188210000Y-111558012D01*
X188210000Y-112455633D01*
X188423490Y-112398430D01*
X188637577Y-112298600D01*
X188831073Y-112163113D01*
X188998113Y-111996073D01*
X189133600Y-111802577D01*
X189233430Y-111588490D01*
X189263985Y-111474458D01*
X189297309Y-111423144D01*
X189354430Y-111401217D01*
X189413531Y-111417052D01*
X189452036Y-111464602D01*
X189454829Y-111472978D01*
X189469418Y-111524250D01*
X189560327Y-111706821D01*
X189683236Y-111869579D01*
X189833959Y-112006981D01*
X190007363Y-112114348D01*
X190197544Y-112188024D01*
X190398024Y-112225500D01*
X190601976Y-112225500D01*
X190802456Y-112188024D01*
X190992637Y-112114348D01*
X191166041Y-112006981D01*
X191316764Y-111869579D01*
X191439673Y-111706821D01*
X191530582Y-111524250D01*
X191586397Y-111328083D01*
X191605215Y-111125000D01*
X191586397Y-110921917D01*
X191530582Y-110725750D01*
X191439673Y-110543179D01*
X191316764Y-110380421D01*
X191166041Y-110243019D01*
X190992637Y-110135652D01*
X190802456Y-110061976D01*
X190802455Y-110061975D01*
X190802453Y-110061975D01*
X190601976Y-110024500D01*
X190398024Y-110024500D01*
X190197546Y-110061975D01*
X190133243Y-110086886D01*
X190007363Y-110135652D01*
X189870359Y-110220481D01*
X189833959Y-110243019D01*
X189683237Y-110380420D01*
X189560328Y-110543177D01*
X189560323Y-110543186D01*
X189469419Y-110725747D01*
X189454833Y-110777011D01*
X189420722Y-110827806D01*
X189363269Y-110848850D01*
X189304420Y-110832106D01*
X189266652Y-110783968D01*
X189263985Y-110775541D01*
X189233429Y-110661504D01*
X189133605Y-110447432D01*
X189133601Y-110447424D01*
X188998113Y-110253926D01*
X188831073Y-110086886D01*
X188637577Y-109951399D01*
X188423489Y-109851569D01*
X188210000Y-109794364D01*
X188210000Y-110691988D01*
X188152993Y-110659075D01*
X188025826Y-110625000D01*
X187894174Y-110625000D01*
X187767007Y-110659075D01*
X187710000Y-110691988D01*
X187710000Y-109794364D01*
X187496505Y-109851570D01*
X187282432Y-109951394D01*
X187282424Y-109951398D01*
X187088926Y-110086886D01*
X186921886Y-110253926D01*
X186786398Y-110447424D01*
X186786394Y-110447432D01*
X186686570Y-110661505D01*
X186656014Y-110775541D01*
X186622689Y-110826856D01*
X186565568Y-110848782D01*
X186506467Y-110832946D01*
X186467962Y-110785396D01*
X186465172Y-110777028D01*
X186450582Y-110725750D01*
X186359673Y-110543179D01*
X186236764Y-110380421D01*
X186086041Y-110243019D01*
X185912637Y-110135652D01*
X185722456Y-110061976D01*
X185722455Y-110061975D01*
X185722453Y-110061975D01*
X185521976Y-110024500D01*
X185318024Y-110024500D01*
X185117546Y-110061975D01*
X185053243Y-110086886D01*
X184927363Y-110135652D01*
X184790359Y-110220481D01*
X184753959Y-110243019D01*
X184603237Y-110380420D01*
X184480328Y-110543177D01*
X184480323Y-110543186D01*
X184389419Y-110725747D01*
X184389418Y-110725750D01*
X184333603Y-110921917D01*
X184314785Y-111125000D01*
X183985215Y-111125000D01*
X183966397Y-110921917D01*
X183910582Y-110725750D01*
X183819673Y-110543179D01*
X183696764Y-110380421D01*
X183546041Y-110243019D01*
X183372637Y-110135652D01*
X183182456Y-110061976D01*
X183182455Y-110061975D01*
X183182453Y-110061975D01*
X182981976Y-110024500D01*
X182778024Y-110024500D01*
X182577546Y-110061975D01*
X182513243Y-110086886D01*
X182387363Y-110135652D01*
X182250359Y-110220481D01*
X182213959Y-110243019D01*
X182063237Y-110380420D01*
X181940328Y-110543177D01*
X181940323Y-110543186D01*
X181849419Y-110725747D01*
X181793603Y-110921917D01*
X181774785Y-111125000D01*
X181793603Y-111328082D01*
X181849419Y-111524254D01*
X181851006Y-111527440D01*
X181860019Y-111587958D01*
X181832389Y-111641571D01*
X181128459Y-112345503D01*
X181073942Y-112373281D01*
X181058455Y-112374500D01*
X180690709Y-112374500D01*
X180632518Y-112355593D01*
X180596554Y-112306093D01*
X180596554Y-112244907D01*
X180632518Y-112195407D01*
X180654943Y-112183186D01*
X180832637Y-112114348D01*
X181006041Y-112006981D01*
X181156764Y-111869579D01*
X181279673Y-111706821D01*
X181370582Y-111524250D01*
X181426397Y-111328083D01*
X181445215Y-111125000D01*
X181426397Y-110921917D01*
X181370582Y-110725750D01*
X181279673Y-110543179D01*
X181156764Y-110380421D01*
X181006041Y-110243019D01*
X180832637Y-110135652D01*
X180642456Y-110061976D01*
X180642455Y-110061975D01*
X180642453Y-110061975D01*
X180441976Y-110024500D01*
X180238024Y-110024500D01*
X180037546Y-110061975D01*
X179973243Y-110086886D01*
X179847363Y-110135652D01*
X179710359Y-110220481D01*
X179673959Y-110243019D01*
X179523237Y-110380420D01*
X179400328Y-110543177D01*
X179400323Y-110543186D01*
X179309419Y-110725747D01*
X179309418Y-110725750D01*
X179253603Y-110921917D01*
X179234785Y-111125000D01*
X179253603Y-111328083D01*
X179309418Y-111524250D01*
X179400327Y-111706821D01*
X179523236Y-111869579D01*
X179673959Y-112006981D01*
X179847363Y-112114348D01*
X180025054Y-112183185D01*
X180072485Y-112221837D01*
X180088139Y-112280986D01*
X180066036Y-112338039D01*
X180014620Y-112371205D01*
X179989291Y-112374500D01*
X178150709Y-112374500D01*
X178092518Y-112355593D01*
X178056554Y-112306093D01*
X178056554Y-112244907D01*
X178092518Y-112195407D01*
X178114943Y-112183186D01*
X178292637Y-112114348D01*
X178466041Y-112006981D01*
X178616764Y-111869579D01*
X178739673Y-111706821D01*
X178830582Y-111524250D01*
X178886397Y-111328083D01*
X178905215Y-111125000D01*
X178886397Y-110921917D01*
X178830582Y-110725750D01*
X178739673Y-110543179D01*
X178616764Y-110380421D01*
X178466041Y-110243019D01*
X178292637Y-110135652D01*
X178102456Y-110061976D01*
X178102455Y-110061975D01*
X178102453Y-110061975D01*
X177901976Y-110024500D01*
X177698024Y-110024500D01*
X177497546Y-110061975D01*
X177433243Y-110086886D01*
X177307363Y-110135652D01*
X177170359Y-110220481D01*
X177133959Y-110243019D01*
X176983237Y-110380420D01*
X176860328Y-110543177D01*
X176860323Y-110543186D01*
X176769419Y-110725747D01*
X176769418Y-110725750D01*
X176713603Y-110921917D01*
X176694785Y-111125000D01*
X176713603Y-111328083D01*
X176769418Y-111524250D01*
X176860327Y-111706821D01*
X176983236Y-111869579D01*
X177133959Y-112006981D01*
X177307363Y-112114348D01*
X177485054Y-112183185D01*
X177532485Y-112221837D01*
X177548139Y-112280986D01*
X177526036Y-112338039D01*
X177474620Y-112371205D01*
X177449291Y-112374500D01*
X175610709Y-112374500D01*
X175552518Y-112355593D01*
X175516554Y-112306093D01*
X175516554Y-112244907D01*
X175552518Y-112195407D01*
X175574943Y-112183186D01*
X175752637Y-112114348D01*
X175926041Y-112006981D01*
X176076764Y-111869579D01*
X176199673Y-111706821D01*
X176290582Y-111524250D01*
X176346397Y-111328083D01*
X176365215Y-111125000D01*
X176346397Y-110921917D01*
X176290582Y-110725750D01*
X176199673Y-110543179D01*
X176076764Y-110380421D01*
X175926041Y-110243019D01*
X175752637Y-110135652D01*
X175562456Y-110061976D01*
X175562455Y-110061975D01*
X175562453Y-110061975D01*
X175361976Y-110024500D01*
X175158024Y-110024500D01*
X174957546Y-110061975D01*
X174893243Y-110086886D01*
X174767363Y-110135652D01*
X174630359Y-110220481D01*
X174593959Y-110243019D01*
X174443237Y-110380420D01*
X174320328Y-110543177D01*
X174320323Y-110543186D01*
X174229419Y-110725747D01*
X174229418Y-110725750D01*
X174173603Y-110921917D01*
X174154785Y-111125000D01*
X174173603Y-111328083D01*
X174229418Y-111524250D01*
X174320327Y-111706821D01*
X174443236Y-111869579D01*
X174593959Y-112006981D01*
X174767363Y-112114348D01*
X174945054Y-112183185D01*
X174992485Y-112221837D01*
X175008139Y-112280986D01*
X174986036Y-112338039D01*
X174934620Y-112371205D01*
X174909291Y-112374500D01*
X173070709Y-112374500D01*
X173012518Y-112355593D01*
X172976554Y-112306093D01*
X172976554Y-112244907D01*
X173012518Y-112195407D01*
X173034943Y-112183186D01*
X173212637Y-112114348D01*
X173386041Y-112006981D01*
X173536764Y-111869579D01*
X173659673Y-111706821D01*
X173750582Y-111524250D01*
X173806397Y-111328083D01*
X173825215Y-111125000D01*
X173806397Y-110921917D01*
X173750582Y-110725750D01*
X173659673Y-110543179D01*
X173536764Y-110380421D01*
X173386041Y-110243019D01*
X173212637Y-110135652D01*
X173022456Y-110061976D01*
X173022455Y-110061975D01*
X173022453Y-110061975D01*
X172821976Y-110024500D01*
X172618024Y-110024500D01*
X172417546Y-110061975D01*
X172353243Y-110086886D01*
X172227363Y-110135652D01*
X172090359Y-110220481D01*
X172053959Y-110243019D01*
X171903237Y-110380420D01*
X171780328Y-110543177D01*
X171780323Y-110543186D01*
X171689419Y-110725747D01*
X171689418Y-110725750D01*
X171633603Y-110921917D01*
X171614785Y-111125000D01*
X171633603Y-111328083D01*
X171689418Y-111524250D01*
X171780327Y-111706821D01*
X171903236Y-111869579D01*
X172053959Y-112006981D01*
X172227363Y-112114348D01*
X172405054Y-112183185D01*
X172452485Y-112221837D01*
X172468139Y-112280986D01*
X172446036Y-112338039D01*
X172394620Y-112371205D01*
X172369291Y-112374500D01*
X170530709Y-112374500D01*
X170472518Y-112355593D01*
X170436554Y-112306093D01*
X170436554Y-112244907D01*
X170472518Y-112195407D01*
X170494943Y-112183186D01*
X170672637Y-112114348D01*
X170846041Y-112006981D01*
X170996764Y-111869579D01*
X171119673Y-111706821D01*
X171210582Y-111524250D01*
X171266397Y-111328083D01*
X171285215Y-111125000D01*
X171266397Y-110921917D01*
X171210582Y-110725750D01*
X171119673Y-110543179D01*
X170996764Y-110380421D01*
X170846041Y-110243019D01*
X170672637Y-110135652D01*
X170482456Y-110061976D01*
X170482455Y-110061975D01*
X170482453Y-110061975D01*
X170281976Y-110024500D01*
X170078024Y-110024500D01*
X169877546Y-110061975D01*
X169813243Y-110086886D01*
X169687363Y-110135652D01*
X169550359Y-110220481D01*
X169513959Y-110243019D01*
X169363237Y-110380420D01*
X169240328Y-110543177D01*
X169240323Y-110543186D01*
X169149419Y-110725747D01*
X169149418Y-110725750D01*
X169093603Y-110921917D01*
X169074785Y-111125000D01*
X169093603Y-111328083D01*
X169149418Y-111524250D01*
X169240327Y-111706821D01*
X169363236Y-111869579D01*
X169513959Y-112006981D01*
X169687363Y-112114348D01*
X169865054Y-112183185D01*
X169912485Y-112221837D01*
X169928139Y-112280986D01*
X169906036Y-112338039D01*
X169854620Y-112371205D01*
X169829291Y-112374500D01*
X167990709Y-112374500D01*
X167932518Y-112355593D01*
X167896554Y-112306093D01*
X167896554Y-112244907D01*
X167932518Y-112195407D01*
X167954943Y-112183186D01*
X168132637Y-112114348D01*
X168306041Y-112006981D01*
X168456764Y-111869579D01*
X168579673Y-111706821D01*
X168670582Y-111524250D01*
X168726397Y-111328083D01*
X168745215Y-111125000D01*
X168726397Y-110921917D01*
X168670582Y-110725750D01*
X168579673Y-110543179D01*
X168456764Y-110380421D01*
X168306041Y-110243019D01*
X168132637Y-110135652D01*
X167942456Y-110061976D01*
X167942455Y-110061975D01*
X167942453Y-110061975D01*
X167741976Y-110024500D01*
X167538024Y-110024500D01*
X167337546Y-110061975D01*
X167273243Y-110086886D01*
X167147363Y-110135652D01*
X167010359Y-110220481D01*
X166973959Y-110243019D01*
X166823237Y-110380420D01*
X166700328Y-110543177D01*
X166700323Y-110543186D01*
X166609419Y-110725747D01*
X166609418Y-110725750D01*
X166553603Y-110921917D01*
X166534785Y-111125000D01*
X166553603Y-111328083D01*
X166609418Y-111524250D01*
X166700327Y-111706821D01*
X166823236Y-111869579D01*
X166973959Y-112006981D01*
X167147363Y-112114348D01*
X167325054Y-112183185D01*
X167372485Y-112221837D01*
X167388139Y-112280986D01*
X167366036Y-112338039D01*
X167314620Y-112371205D01*
X167289291Y-112374500D01*
X165450709Y-112374500D01*
X165392518Y-112355593D01*
X165356554Y-112306093D01*
X165356554Y-112244907D01*
X165392518Y-112195407D01*
X165414943Y-112183186D01*
X165592637Y-112114348D01*
X165766041Y-112006981D01*
X165916764Y-111869579D01*
X166039673Y-111706821D01*
X166130582Y-111524250D01*
X166186397Y-111328083D01*
X166205215Y-111125000D01*
X166186397Y-110921917D01*
X166130582Y-110725750D01*
X166039673Y-110543179D01*
X165916764Y-110380421D01*
X165766041Y-110243019D01*
X165592637Y-110135652D01*
X165402456Y-110061976D01*
X165402455Y-110061975D01*
X165402453Y-110061975D01*
X165201976Y-110024500D01*
X164998024Y-110024500D01*
X164797546Y-110061975D01*
X164733243Y-110086886D01*
X164607363Y-110135652D01*
X164470359Y-110220481D01*
X164433959Y-110243019D01*
X164283237Y-110380420D01*
X164160328Y-110543177D01*
X164160323Y-110543186D01*
X164069419Y-110725747D01*
X164054833Y-110777011D01*
X164020722Y-110827806D01*
X163963269Y-110848850D01*
X163904420Y-110832106D01*
X163866652Y-110783968D01*
X163863985Y-110775541D01*
X163833429Y-110661504D01*
X163733605Y-110447432D01*
X163733601Y-110447424D01*
X163598113Y-110253926D01*
X163431073Y-110086886D01*
X163237577Y-109951399D01*
X163023489Y-109851569D01*
X162810000Y-109794364D01*
X162810000Y-110691988D01*
X162752993Y-110659075D01*
X162625826Y-110625000D01*
X162494174Y-110625000D01*
X162367007Y-110659075D01*
X162310000Y-110691988D01*
X162310000Y-109794364D01*
X162096505Y-109851570D01*
X161882432Y-109951394D01*
X161882424Y-109951398D01*
X161688926Y-110086886D01*
X161521886Y-110253926D01*
X161386398Y-110447424D01*
X161386394Y-110447432D01*
X161286570Y-110661505D01*
X161256014Y-110775541D01*
X161222689Y-110826856D01*
X161165568Y-110848782D01*
X161106467Y-110832946D01*
X161067962Y-110785396D01*
X161065172Y-110777028D01*
X161050582Y-110725750D01*
X160959673Y-110543179D01*
X160836764Y-110380421D01*
X160686041Y-110243019D01*
X160512637Y-110135652D01*
X160322456Y-110061976D01*
X160322455Y-110061975D01*
X160322453Y-110061975D01*
X160121976Y-110024500D01*
X159918024Y-110024500D01*
X159717546Y-110061975D01*
X159653243Y-110086886D01*
X159527363Y-110135652D01*
X159390359Y-110220481D01*
X159353959Y-110243019D01*
X159203237Y-110380420D01*
X159080328Y-110543177D01*
X159080323Y-110543186D01*
X158989419Y-110725747D01*
X158989418Y-110725750D01*
X158933603Y-110921917D01*
X158914785Y-111125000D01*
X158933603Y-111328083D01*
X158989418Y-111524250D01*
X159080327Y-111706821D01*
X159203236Y-111869579D01*
X159353959Y-112006981D01*
X159527363Y-112114348D01*
X159717544Y-112188024D01*
X159918024Y-112225500D01*
X160121976Y-112225500D01*
X160322456Y-112188024D01*
X160512637Y-112114348D01*
X160686041Y-112006981D01*
X160836764Y-111869579D01*
X160959673Y-111706821D01*
X161050582Y-111524250D01*
X161065167Y-111472987D01*
X161099275Y-111422194D01*
X161156728Y-111401149D01*
X161215577Y-111417892D01*
X161253346Y-111466029D01*
X161256014Y-111474458D01*
X161286569Y-111588489D01*
X161386399Y-111802577D01*
X161521886Y-111996073D01*
X161688926Y-112163113D01*
X161882422Y-112298600D01*
X162096509Y-112398430D01*
X162310000Y-112455634D01*
X162310000Y-111558012D01*
X162367007Y-111590925D01*
X162494174Y-111625000D01*
X162625826Y-111625000D01*
X162752993Y-111590925D01*
X162810000Y-111558012D01*
X162810000Y-112455633D01*
X163023490Y-112398430D01*
X163237577Y-112298600D01*
X163431073Y-112163113D01*
X163598113Y-111996073D01*
X163733600Y-111802577D01*
X163833430Y-111588490D01*
X163863985Y-111474458D01*
X163897309Y-111423144D01*
X163954430Y-111401217D01*
X164013531Y-111417052D01*
X164052036Y-111464602D01*
X164054829Y-111472978D01*
X164069418Y-111524250D01*
X164160327Y-111706821D01*
X164283236Y-111869579D01*
X164433959Y-112006981D01*
X164607363Y-112114348D01*
X164785054Y-112183185D01*
X164832485Y-112221837D01*
X164848139Y-112280986D01*
X164826036Y-112338039D01*
X164774620Y-112371205D01*
X164749291Y-112374500D01*
X164049436Y-112374500D01*
X163950564Y-112374500D01*
X163902813Y-112387295D01*
X163902812Y-112387294D01*
X163855062Y-112400089D01*
X163855058Y-112400091D01*
X163769436Y-112449525D01*
X163769437Y-112449526D01*
X161492459Y-114726504D01*
X161437942Y-114754281D01*
X161422455Y-114755500D01*
X152685564Y-114755500D01*
X152653105Y-114764197D01*
X152653104Y-114764196D01*
X152590062Y-114781089D01*
X152590058Y-114781091D01*
X152504436Y-114830525D01*
X152504437Y-114830526D01*
X151258458Y-116076504D01*
X151203941Y-116104281D01*
X151188454Y-116105500D01*
X151031012Y-116105500D01*
X150877635Y-116143303D01*
X150737758Y-116216718D01*
X150650149Y-116294332D01*
X150594054Y-116318767D01*
X150534310Y-116305564D01*
X150493737Y-116259765D01*
X150485500Y-116220229D01*
X150485500Y-114247941D01*
X150504407Y-114189750D01*
X150514496Y-114177937D01*
X150811432Y-113881001D01*
X154054722Y-113881001D01*
X154073762Y-114037816D01*
X154073763Y-114037818D01*
X154102206Y-114112816D01*
X154129780Y-114185523D01*
X154219515Y-114315528D01*
X154219516Y-114315529D01*
X154219517Y-114315530D01*
X154337760Y-114420283D01*
X154477635Y-114493696D01*
X154631015Y-114531500D01*
X154631018Y-114531500D01*
X154788982Y-114531500D01*
X154788985Y-114531500D01*
X154942365Y-114493696D01*
X155082240Y-114420283D01*
X155200483Y-114315530D01*
X155290220Y-114185523D01*
X155346237Y-114037818D01*
X155361207Y-113914525D01*
X155365278Y-113881001D01*
X155365278Y-113881000D01*
X155363552Y-113866788D01*
X155359151Y-113830546D01*
X155370905Y-113770503D01*
X155387421Y-113748614D01*
X156966491Y-112169544D01*
X157021006Y-112141769D01*
X157072255Y-112147234D01*
X157177544Y-112188024D01*
X157378024Y-112225500D01*
X157581976Y-112225500D01*
X157782456Y-112188024D01*
X157972637Y-112114348D01*
X158146041Y-112006981D01*
X158296764Y-111869579D01*
X158419673Y-111706821D01*
X158510582Y-111524250D01*
X158566397Y-111328083D01*
X158585215Y-111125000D01*
X158566397Y-110921917D01*
X158510582Y-110725750D01*
X158419673Y-110543179D01*
X158296764Y-110380421D01*
X158146041Y-110243019D01*
X157972637Y-110135652D01*
X157782456Y-110061976D01*
X157782455Y-110061975D01*
X157782453Y-110061975D01*
X157581976Y-110024500D01*
X157378024Y-110024500D01*
X157177546Y-110061975D01*
X157113243Y-110086886D01*
X156987363Y-110135652D01*
X156850359Y-110220481D01*
X156813959Y-110243019D01*
X156663237Y-110380420D01*
X156540328Y-110543177D01*
X156540323Y-110543186D01*
X156449419Y-110725747D01*
X156393603Y-110921917D01*
X156374785Y-111125000D01*
X156393603Y-111328082D01*
X156449419Y-111524254D01*
X156451006Y-111527440D01*
X156460019Y-111587958D01*
X156432389Y-111641572D01*
X154871647Y-113202314D01*
X154817130Y-113230091D01*
X154794973Y-113230492D01*
X154794973Y-113230500D01*
X154794563Y-113230500D01*
X154789708Y-113230588D01*
X154788986Y-113230500D01*
X154788985Y-113230500D01*
X154631015Y-113230500D01*
X154631012Y-113230500D01*
X154477635Y-113268303D01*
X154337760Y-113341717D01*
X154219515Y-113446471D01*
X154129780Y-113576476D01*
X154073763Y-113724182D01*
X154073762Y-113724183D01*
X154054722Y-113880998D01*
X154054722Y-113881001D01*
X150811432Y-113881001D01*
X151331938Y-113360496D01*
X151386455Y-113332719D01*
X151401942Y-113331500D01*
X153158435Y-113331500D01*
X153158436Y-113331500D01*
X153220924Y-113314756D01*
X153253938Y-113305910D01*
X153339562Y-113256475D01*
X153409475Y-113186562D01*
X154426491Y-112169544D01*
X154481006Y-112141769D01*
X154532255Y-112147234D01*
X154637544Y-112188024D01*
X154838024Y-112225500D01*
X155041976Y-112225500D01*
X155242456Y-112188024D01*
X155432637Y-112114348D01*
X155606041Y-112006981D01*
X155756764Y-111869579D01*
X155879673Y-111706821D01*
X155970582Y-111524250D01*
X156026397Y-111328083D01*
X156045215Y-111125000D01*
X156026397Y-110921917D01*
X155970582Y-110725750D01*
X155879673Y-110543179D01*
X155756764Y-110380421D01*
X155606041Y-110243019D01*
X155432637Y-110135652D01*
X155242456Y-110061976D01*
X155242455Y-110061975D01*
X155242453Y-110061975D01*
X155041976Y-110024500D01*
X154838024Y-110024500D01*
X154637546Y-110061975D01*
X154573243Y-110086886D01*
X154447363Y-110135652D01*
X154310359Y-110220481D01*
X154273959Y-110243019D01*
X154123237Y-110380420D01*
X154000328Y-110543177D01*
X154000323Y-110543186D01*
X153909419Y-110725747D01*
X153853603Y-110921917D01*
X153834785Y-111125000D01*
X153853603Y-111328082D01*
X153909419Y-111524254D01*
X153911006Y-111527440D01*
X153920019Y-111587958D01*
X153892389Y-111641571D01*
X152982459Y-112551503D01*
X152927942Y-112579281D01*
X152912455Y-112580500D01*
X151714544Y-112580500D01*
X151656353Y-112561593D01*
X151620389Y-112512093D01*
X151620389Y-112450907D01*
X151644540Y-112411497D01*
X151811129Y-112244907D01*
X151886491Y-112169544D01*
X151941006Y-112141768D01*
X151992252Y-112147233D01*
X152097544Y-112188024D01*
X152298024Y-112225500D01*
X152501976Y-112225500D01*
X152702456Y-112188024D01*
X152892637Y-112114348D01*
X153066041Y-112006981D01*
X153216764Y-111869579D01*
X153339673Y-111706821D01*
X153430582Y-111524250D01*
X153486397Y-111328083D01*
X153505215Y-111125000D01*
X153486397Y-110921917D01*
X153430582Y-110725750D01*
X153339673Y-110543179D01*
X153216764Y-110380421D01*
X153066041Y-110243019D01*
X152892637Y-110135652D01*
X152702456Y-110061976D01*
X152702455Y-110061975D01*
X152702453Y-110061975D01*
X152501976Y-110024500D01*
X152298024Y-110024500D01*
X152097546Y-110061975D01*
X152033243Y-110086886D01*
X151907363Y-110135652D01*
X151770359Y-110220481D01*
X151733959Y-110243019D01*
X151583237Y-110380420D01*
X151460328Y-110543177D01*
X151460323Y-110543186D01*
X151369419Y-110725747D01*
X151354833Y-110777011D01*
X151320722Y-110827806D01*
X151263269Y-110848850D01*
X151204420Y-110832106D01*
X151166652Y-110783968D01*
X151163985Y-110775541D01*
X151133429Y-110661504D01*
X151033605Y-110447432D01*
X151033601Y-110447424D01*
X150898113Y-110253926D01*
X150731073Y-110086886D01*
X150537577Y-109951399D01*
X150323489Y-109851569D01*
X150110000Y-109794364D01*
X150110000Y-110691988D01*
X150052993Y-110659075D01*
X149925826Y-110625000D01*
X149794174Y-110625000D01*
X149667007Y-110659075D01*
X149610000Y-110691988D01*
X149610000Y-109794364D01*
X149396505Y-109851570D01*
X149182432Y-109951394D01*
X149182424Y-109951398D01*
X148988926Y-110086886D01*
X148821886Y-110253926D01*
X148686398Y-110447424D01*
X148686394Y-110447432D01*
X148586570Y-110661505D01*
X148556014Y-110775541D01*
X148522689Y-110826856D01*
X148465568Y-110848782D01*
X148406467Y-110832946D01*
X148367962Y-110785396D01*
X148365172Y-110777028D01*
X148350582Y-110725750D01*
X148259673Y-110543179D01*
X148136764Y-110380421D01*
X147986041Y-110243019D01*
X147812637Y-110135652D01*
X147622456Y-110061976D01*
X147622455Y-110061975D01*
X147622453Y-110061975D01*
X147421976Y-110024500D01*
X147218024Y-110024500D01*
X147017546Y-110061975D01*
X146953243Y-110086886D01*
X146827363Y-110135652D01*
X146690359Y-110220481D01*
X146653959Y-110243019D01*
X146503237Y-110380420D01*
X146380328Y-110543177D01*
X146380323Y-110543186D01*
X146289419Y-110725747D01*
X146289418Y-110725750D01*
X146233603Y-110921917D01*
X146214785Y-111125000D01*
X145885215Y-111125000D01*
X145866397Y-110921917D01*
X145810582Y-110725750D01*
X145719673Y-110543179D01*
X145596764Y-110380421D01*
X145446041Y-110243019D01*
X145272637Y-110135652D01*
X145082456Y-110061976D01*
X145082455Y-110061975D01*
X145082453Y-110061975D01*
X144881976Y-110024500D01*
X144678024Y-110024500D01*
X144477546Y-110061975D01*
X144413243Y-110086886D01*
X144287363Y-110135652D01*
X144150359Y-110220481D01*
X144113959Y-110243019D01*
X143963237Y-110380420D01*
X143840328Y-110543177D01*
X143840323Y-110543186D01*
X143749419Y-110725747D01*
X143749418Y-110725750D01*
X143693603Y-110921917D01*
X143674785Y-111125000D01*
X143693603Y-111328083D01*
X143749418Y-111524250D01*
X143840327Y-111706821D01*
X143963236Y-111869579D01*
X144105944Y-111999674D01*
X144114769Y-112007719D01*
X144145035Y-112060895D01*
X144138264Y-112121704D01*
X144118077Y-112150884D01*
X143769437Y-112499525D01*
X143699525Y-112569437D01*
X143650091Y-112655059D01*
X143650089Y-112655063D01*
X143624500Y-112750561D01*
X143624500Y-112849436D01*
X143624499Y-112849436D01*
X143633779Y-112884063D01*
X143637153Y-112909688D01*
X143637153Y-114536381D01*
X143618246Y-114594572D01*
X143568746Y-114630536D01*
X143507560Y-114630536D01*
X143503557Y-114629139D01*
X143402381Y-114591403D01*
X143402370Y-114591401D01*
X143342824Y-114585000D01*
X142445001Y-114585000D01*
X142445000Y-114585001D01*
X142445000Y-115694252D01*
X142407292Y-115672482D01*
X142267409Y-115635000D01*
X142122591Y-115635000D01*
X141982708Y-115672482D01*
X141945000Y-115694252D01*
X141945000Y-114585001D01*
X141944999Y-114585000D01*
X141047176Y-114585000D01*
X140987629Y-114591401D01*
X140987618Y-114591403D01*
X140852911Y-114641646D01*
X140852909Y-114641647D01*
X140737815Y-114727807D01*
X140737807Y-114727815D01*
X140651647Y-114842909D01*
X140651646Y-114842911D01*
X140601403Y-114977618D01*
X140601401Y-114977629D01*
X140595000Y-115037175D01*
X140595000Y-115934999D01*
X140595001Y-115935000D01*
X141704252Y-115935000D01*
X141682482Y-115972708D01*
X141645000Y-116112591D01*
X141645000Y-116257409D01*
X141682482Y-116397292D01*
X141704252Y-116435000D01*
X140595001Y-116435000D01*
X140595000Y-116435001D01*
X140595000Y-117332824D01*
X140594999Y-117332824D01*
X139310000Y-117332824D01*
X139310000Y-109655000D01*
X139328907Y-109596809D01*
X139378407Y-109560845D01*
X139409000Y-109556000D01*
X194211000Y-109556000D01*
X194269191Y-109574907D01*
G37*
%TD.AperFunction*%
%TD*%
M02*
