M48
; DRILL file {KiCad 8.0.0} date 2024-03-13T21:02:20-0400
; FORMAT={-:-/ absolute / metric / decimal}
; #@! TF.CreationDate,2024-03-13T21:02:20-04:00
; #@! TF.GenerationSoftware,Kicad,Pcbnew,8.0.0
; #@! TF.FileFunction,Plated,1,2,PTH
FMAT,2
METRIC
; #@! TA.AperFunction,Plated,PTH,ViaDrill
T1C0.400
; #@! TA.AperFunction,Plated,PTH,ComponentDrill
T2C0.970
; #@! TA.AperFunction,Plated,PTH,ComponentDrill
T3C0.991
; #@! TA.AperFunction,Plated,PTH,ComponentDrill
T4C1.000
; #@! TA.AperFunction,Plated,PTH,ComponentDrill
T5C1.100
; #@! TA.AperFunction,Plated,PTH,ComponentDrill
T6C1.650
%
G90
G05
T1
X144.013Y-119.687
X148.331Y-118.36
X148.5Y-127.5
X148.91Y-113.156
X149.31Y-118.156
X150.11Y-117.556
X150.91Y-120.156
X150.91Y-121.556
X151.11Y-116.756
X154.71Y-113.881
X155.159Y-117.205
X155.31Y-119.65
X160.51Y-114.406
X162.06Y-127.056
X164.91Y-113.956
X165.91Y-113.756
X168.11Y-114.556
X185.91Y-119.556
T2
X175.77Y-126.365
X178.31Y-117.475
X178.31Y-120.015
X178.31Y-125.095
X178.31Y-127.635
X180.85Y-116.205
X180.85Y-118.745
X180.85Y-121.285
X180.85Y-126.365
T3
X161.25Y-117.17
X161.25Y-119.71
X161.25Y-122.25
T4
X144.74Y-128.905
X144.78Y-111.125
X147.28Y-128.905
X147.32Y-111.125
X149.82Y-128.905
X149.86Y-111.125
X152.36Y-128.905
X152.4Y-111.125
X154.9Y-128.905
X154.94Y-111.125
X157.48Y-111.125
X160.02Y-111.125
X162.56Y-111.125
X165.1Y-111.125
X167.64Y-111.125
X170.18Y-111.125
X172.72Y-111.125
X175.26Y-111.125
X177.8Y-111.125
X180.34Y-111.125
X182.88Y-111.125
X185.42Y-111.125
X187.96Y-111.125
X190.5Y-111.125
X193.04Y-111.125
T5
X142.195Y-116.185
X142.195Y-118.725
X142.195Y-121.265
X142.195Y-123.805
X173.48Y-116.455
X173.48Y-118.995
X173.48Y-124.845
X173.48Y-127.385
T6
X184.15Y-114.175
X184.15Y-129.665
M30
