%TF.GenerationSoftware,KiCad,Pcbnew,8.0.0*%
%TF.CreationDate,2024-03-13T21:01:22-04:00*%
%TF.ProjectId,pico-ethernet,7069636f-2d65-4746-9865-726e65742e6b,rev?*%
%TF.SameCoordinates,Original*%
%TF.FileFunction,Paste,Bot*%
%TF.FilePolarity,Positive*%
%FSLAX46Y46*%
G04 Gerber Fmt 4.6, Leading zero omitted, Abs format (unit mm)*
G04 Created by KiCad (PCBNEW 8.0.0) date 2024-03-13 21:01:22*
%MOMM*%
%LPD*%
G01*
G04 APERTURE LIST*
G04 Aperture macros list*
%AMRoundRect*
0 Rectangle with rounded corners*
0 $1 Rounding radius*
0 $2 $3 $4 $5 $6 $7 $8 $9 X,Y pos of 4 corners*
0 Add a 4 corners polygon primitive as box body*
4,1,4,$2,$3,$4,$5,$6,$7,$8,$9,$2,$3,0*
0 Add four circle primitives for the rounded corners*
1,1,$1+$1,$2,$3*
1,1,$1+$1,$4,$5*
1,1,$1+$1,$6,$7*
1,1,$1+$1,$8,$9*
0 Add four rect primitives between the rounded corners*
20,1,$1+$1,$2,$3,$4,$5,0*
20,1,$1+$1,$4,$5,$6,$7,0*
20,1,$1+$1,$6,$7,$8,$9,0*
20,1,$1+$1,$8,$9,$2,$3,0*%
G04 Aperture macros list end*
%ADD10RoundRect,0.225000X-0.225000X-0.250000X0.225000X-0.250000X0.225000X0.250000X-0.225000X0.250000X0*%
%ADD11RoundRect,0.225000X0.225000X0.250000X-0.225000X0.250000X-0.225000X-0.250000X0.225000X-0.250000X0*%
%ADD12RoundRect,0.200000X0.275000X-0.200000X0.275000X0.200000X-0.275000X0.200000X-0.275000X-0.200000X0*%
%ADD13RoundRect,0.225000X0.250000X-0.225000X0.250000X0.225000X-0.250000X0.225000X-0.250000X-0.225000X0*%
%ADD14RoundRect,0.200000X-0.275000X0.200000X-0.275000X-0.200000X0.275000X-0.200000X0.275000X0.200000X0*%
%ADD15RoundRect,0.225000X-0.250000X0.225000X-0.250000X-0.225000X0.250000X-0.225000X0.250000X0.225000X0*%
%ADD16RoundRect,0.225000X-0.375000X0.225000X-0.375000X-0.225000X0.375000X-0.225000X0.375000X0.225000X0*%
%ADD17R,2.500000X1.600000*%
%ADD18R,1.750000X0.450000*%
%ADD19R,1.600000X3.200000*%
G04 APERTURE END LIST*
D10*
%TO.C,C10*%
X156975000Y-123356000D03*
X158525000Y-123356000D03*
%TD*%
D11*
%TO.C,C5*%
X158525000Y-120056000D03*
X156975000Y-120056000D03*
%TD*%
D12*
%TO.C,R2*%
X190310000Y-123253000D03*
X190310000Y-121603000D03*
%TD*%
D13*
%TO.C,C7*%
X191910000Y-119956000D03*
X191910000Y-118406000D03*
%TD*%
D14*
%TO.C,R5*%
X183388000Y-121603000D03*
X183388000Y-123253000D03*
%TD*%
D15*
%TO.C,C9*%
X141710000Y-126981000D03*
X141710000Y-128531000D03*
%TD*%
D16*
%TO.C,D1*%
X170500000Y-114350000D03*
X170500000Y-117650000D03*
%TD*%
D11*
%TO.C,C12*%
X158525000Y-114050000D03*
X156975000Y-114050000D03*
%TD*%
D10*
%TO.C,C4*%
X156960000Y-116756000D03*
X158510000Y-116756000D03*
%TD*%
D17*
%TO.C,C1*%
X164637500Y-119500000D03*
X168137500Y-119500000D03*
%TD*%
D10*
%TO.C,C3*%
X156960000Y-126156000D03*
X158510000Y-126156000D03*
%TD*%
D12*
%TO.C,R6*%
X171000000Y-124825000D03*
X171000000Y-123175000D03*
%TD*%
%TO.C,R3*%
X191910000Y-123253000D03*
X191910000Y-121603000D03*
%TD*%
D15*
%TO.C,FB1*%
X186669332Y-121653000D03*
X186669332Y-123203000D03*
%TD*%
D14*
%TO.C,R4*%
X185028666Y-121603000D03*
X185028666Y-123253000D03*
%TD*%
D10*
%TO.C,C11*%
X156975000Y-118406000D03*
X158525000Y-118406000D03*
%TD*%
D13*
%TO.C,C8*%
X188310000Y-123203000D03*
X188310000Y-121653000D03*
%TD*%
D18*
%TO.C,U1*%
X145600000Y-124125000D03*
X145600000Y-123475000D03*
X145600000Y-122825000D03*
X145600000Y-122175000D03*
X145600000Y-121525000D03*
X145600000Y-120875000D03*
X145600000Y-120225000D03*
X145600000Y-119575000D03*
X145600000Y-118925000D03*
X145600000Y-118275000D03*
X145600000Y-117625000D03*
X145600000Y-116975000D03*
X145600000Y-116325000D03*
X145600000Y-115675000D03*
X152800000Y-115675000D03*
X152800000Y-116325000D03*
X152800000Y-116975000D03*
X152800000Y-117625000D03*
X152800000Y-118275000D03*
X152800000Y-118925000D03*
X152800000Y-119575000D03*
X152800000Y-120225000D03*
X152800000Y-120875000D03*
X152800000Y-121525000D03*
X152800000Y-122175000D03*
X152800000Y-122825000D03*
X152800000Y-123475000D03*
X152800000Y-124125000D03*
%TD*%
D14*
%TO.C,R7*%
X171000000Y-126175000D03*
X171000000Y-127825000D03*
%TD*%
D19*
%TO.C,C2*%
X166000000Y-129250000D03*
X166000000Y-124250000D03*
%TD*%
D11*
%TO.C,C6*%
X158525000Y-121706000D03*
X156975000Y-121706000D03*
%TD*%
D12*
%TO.C,R1*%
X142100000Y-113525000D03*
X142100000Y-111875000D03*
%TD*%
M02*
