%TF.GenerationSoftware,KiCad,Pcbnew,8.0.0*%
%TF.CreationDate,2024-03-13T21:01:22-04:00*%
%TF.ProjectId,pico-ethernet,7069636f-2d65-4746-9865-726e65742e6b,rev?*%
%TF.SameCoordinates,Original*%
%TF.FileFunction,Soldermask,Top*%
%TF.FilePolarity,Negative*%
%FSLAX46Y46*%
G04 Gerber Fmt 4.6, Leading zero omitted, Abs format (unit mm)*
G04 Created by KiCad (PCBNEW 8.0.0) date 2024-03-13 21:01:22*
%MOMM*%
%LPD*%
G01*
G04 APERTURE LIST*
G04 Aperture macros list*
%AMRoundRect*
0 Rectangle with rounded corners*
0 $1 Rounding radius*
0 $2 $3 $4 $5 $6 $7 $8 $9 X,Y pos of 4 corners*
0 Add a 4 corners polygon primitive as box body*
4,1,4,$2,$3,$4,$5,$6,$7,$8,$9,$2,$3,0*
0 Add four circle primitives for the rounded corners*
1,1,$1+$1,$2,$3*
1,1,$1+$1,$4,$5*
1,1,$1+$1,$6,$7*
1,1,$1+$1,$8,$9*
0 Add four rect primitives between the rounded corners*
20,1,$1+$1,$2,$3,$4,$5,0*
20,1,$1+$1,$4,$5,$6,$7,0*
20,1,$1+$1,$6,$7,$8,$9,0*
20,1,$1+$1,$8,$9,$2,$3,0*%
G04 Aperture macros list end*
%ADD10R,2.200000X2.200000*%
%ADD11C,2.200000*%
%ADD12R,2.400000X2.000000*%
%ADD13C,3.250000*%
%ADD14RoundRect,0.102000X0.739000X-0.739000X0.739000X0.739000X-0.739000X0.739000X-0.739000X-0.739000X0*%
%ADD15C,1.682000*%
%ADD16C,1.854000*%
%ADD17C,2.679000*%
%ADD18C,1.498600*%
%ADD19R,1.700000X1.700000*%
%ADD20O,1.700000X1.700000*%
G04 APERTURE END LIST*
D10*
%TO.C,J5*%
X142195000Y-116185000D03*
D11*
X142195000Y-118725000D03*
X142195000Y-121265000D03*
X142195000Y-123805000D03*
%TD*%
D12*
%TO.C,Y1*%
X148110000Y-124206000D03*
X148110000Y-120506000D03*
%TD*%
D13*
%TO.C,J4*%
X187200000Y-127635000D03*
X187200000Y-116205000D03*
D14*
X180850000Y-116205000D03*
D15*
X178310000Y-117475000D03*
X180850000Y-118745000D03*
X178310000Y-120015000D03*
X180850000Y-121285000D03*
X178310000Y-125095000D03*
X180850000Y-126365000D03*
X178310000Y-127635000D03*
X175770000Y-126365000D03*
D16*
X173480000Y-127385000D03*
X173480000Y-118995000D03*
X173480000Y-124845000D03*
X173480000Y-116455000D03*
D17*
X184150000Y-129665000D03*
X184150000Y-114175000D03*
%TD*%
D18*
%TO.C,J3*%
X161250000Y-122250000D03*
X161250000Y-119710000D03*
X161250000Y-117170000D03*
%TD*%
D19*
%TO.C,J2*%
X144740000Y-128905000D03*
D20*
X147280000Y-128905000D03*
X149820000Y-128905000D03*
X152360000Y-128905000D03*
X154900000Y-128905000D03*
%TD*%
D19*
%TO.C,J1*%
X193040000Y-111125000D03*
D20*
X190500000Y-111125000D03*
X187960000Y-111125000D03*
X185420000Y-111125000D03*
X182880000Y-111125000D03*
X180340000Y-111125000D03*
X177800000Y-111125000D03*
X175260000Y-111125000D03*
X172720000Y-111125000D03*
X170180000Y-111125000D03*
X167640000Y-111125000D03*
X165100000Y-111125000D03*
X162560000Y-111125000D03*
X160020000Y-111125000D03*
X157480000Y-111125000D03*
X154940000Y-111125000D03*
X152400000Y-111125000D03*
X149860000Y-111125000D03*
X147320000Y-111125000D03*
X144780000Y-111125000D03*
%TD*%
M02*
